<?xml version="1.0" encoding="UTF-8"?>
<svg width="100px" height="93px" viewBox="0 0 100 93" version="1.1" xmlns="http://www.w3.org/2000/svg" xmlns:xlink="http://www.w3.org/1999/xlink">
    <title>logo组合备份 5</title>
    <defs>
        <polygon id="path-1" points="0 0 22.0689655 0 22.0689655 21.651102 0 21.651102"></polygon>
        <polygon id="path-3" points="0 0 23.7931034 0 23.7931034 23.3694434 0 23.3694434"></polygon>
    </defs>
    <g id="投放页" stroke="none" stroke-width="1" fill="none" fill-rule="evenodd">
        <g id="C端投放页-小程序" transform="translate(-138.000000, -455.000000)">
            <g id="弹窗备份" transform="translate(16.000000, 403.000000)">
                <g id="logo组合备份-5" transform="translate(122.000000, 52.000000)">
                    <g id="编组" transform="translate(28.620690, 0.000000)">
                        <path d="M32.7376617,11.2126371 C33.1398432,11.4126186 33.4482759,11.4379368 33.4482759,11.4379368 C33.3503196,11.4403938 30.2310395,11.3625164 29.313509,11.5192327 C19.296298,12.2284619 11.1868601,19.762807 9.70079509,29.45144 C9.54037558,30.4980311 8.6364381,31.273814 7.5675501,31.273814 L7.55169155,31.273814 C3.38100019,31.273814 0,27.9258333 0,23.7958738 L0,18.9352127 C0,14.8052532 3.38100019,11.4572726 7.55169155,11.4572726 L9.41372292,11.4572726 C10.6053799,11.4572726 11.5713491,10.5007372 11.5713491,9.32071825 L11.5713491,7.47794015 C11.5713491,3.34798063 14.9523493,0 19.1230406,0 L24.0305613,0 C28.2012527,0 31.5822529,3.34798063 31.5822529,7.47794015 L31.5822529,9.32071825 C31.5822529,10.1422234 32.0504578,10.8558325 32.7376617,11.2126371" id="Fill-1" fill="#194DB5"></path>
                        <path d="M43.1034483,18.8529459 L43.1034483,23.7066717 C43.1034483,27.8307385 39.7071427,31.1739422 35.5175712,31.1739422 L33.6481943,31.1739422 C32.4507095,31.1739422 31.4808009,32.1286861 31.4808009,33.3074481 L31.4808009,35.1475969 C31.4808009,39.2716637 28.0844954,42.6148674 23.8949238,42.6148674 L18.9651874,42.6148674 C16.2245184,42.6148674 13.8219628,41.183285 12.4890158,39.0391116 C11.7846129,37.90622 11.3793103,36.5738455 11.3793103,35.1475969 L11.3793103,32.0316116 C11.5115213,21.6979759 19.166755,13.1490179 29.2017867,11.447547 C30.3201617,11.257665 33.8395752,11.3795948 34.457174,11.3795948 C34.6224377,11.3795948 36.0232241,11.3474856 36.8570204,11.5019514 C36.9209585,11.5126189 36.9838129,11.5243532 37.0466673,11.5371543 C38.8120092,11.8934497 40.3541097,12.8524606 41.4399738,14.1869685 C42.4814064,15.4649385 43.1034483,17.0874698 43.1034483,18.8529459" id="Fill-3" fill="#14A1FF"></path>
                    </g>
                    <g id="编组" transform="translate(0.000000, 49.488233)">
                        <g transform="translate(0.000000, 0.687337)">
                            <mask id="mask-2" fill="white">
                                <use xlink:href="#path-1"></use>
                            </mask>
                            <g id="Clip-2"></g>
                            <path d="M21.4615904,18.5269299 C17.7495156,17.721384 15.1178019,16.4471112 13.5663444,14.700665 C12.3516992,16.3796429 9.48260007,17.6553779 4.9625116,18.5269299 L4.9625116,16.5131173 C8.40402372,15.506211 10.4284673,14.164261 11.0357374,12.485492 L4.65877157,12.485492 L4.65877157,10.0689587 L11.5419008,10.0689587 L11.5419008,9.36409292 L11.5419008,7.24970455 L8.60644708,7.24970455 C7.72861424,8.12282318 6.4127574,8.6940057 4.65877157,8.96137217 L4.65877157,7.14891992 C6.00791067,6.5448388 6.85078139,5.23589193 7.18937856,3.22207931 L10.6308907,3.22207931 C10.4284673,3.82616043 10.2592212,4.36433989 10.1248323,4.83306674 L20.2469453,4.83306674 L20.2469453,7.24970455 L15.1858363,7.24970455 L15.1858363,9.16273254 L15.1858363,10.0689587 L21.2591671,10.0689587 L21.2591671,12.485492 L15.6919997,12.485492 C16.9066448,14.2979443 18.8298768,15.6068912 21.4615904,16.4122282 L21.4615904,18.5269299 Z M3.74786644,21.6485379 C1.18240231,21.714544 -0.0654201227,20.5061729 0.00261428512,18.0236334 L0.00261428512,0 L21.7652255,0 L21.7652255,2.51721356 L3.74786644,2.51721356 L3.74786644,17.6209127 C3.67972704,18.8291793 4.25392484,19.3999441 5.46857,19.3324758 L22.0689655,19.3324758 L22.0689655,21.6485379 L3.74786644,21.6485379 Z" id="Fill-1" fill="#194DB5" mask="url(#mask-2)"></path>
                        </g>
                        <g transform="translate(24.482759, 0.000000)">
                            <mask id="mask-4" fill="white">
                                <use xlink:href="#path-3"></use>
                            </mask>
                            <g id="Clip-4"></g>
                            <path d="M23.6929277,21.5481088 C20.4130557,19.1201523 18.8067026,15.5131604 18.8740765,10.7235655 L18.8740765,8.39676512 L20.6810936,8.39676512 C21.8858064,8.46476217 22.9226571,8.26244995 23.7931034,7.78972353 L23.7931034,10.4200972 C22.990031,10.7584035 22.2874468,10.9258777 21.6850383,10.9258777 C21.6850383,14.0968699 22.3532587,16.7272436 23.6929277,18.8167889 L23.6929277,21.5481088 Z M20.2795574,4.4512571 C17.9358397,3.37327295 15.29274,2.69833923 12.3483841,2.42792503 L12.3483841,-3.14801174e-05 C15.7616502,0.270277793 18.4051664,0.74300422 20.2795574,1.41625899 L20.2795574,4.4512571 Z M12.6496404,22.863453 L12.6496404,20.7387549 L13.6535851,20.7387549 C14.5899475,20.8069619 15.0244939,20.3341305 14.9586819,19.3228842 L14.9586819,6.27227694 L10.0393426,6.27227694 L10.0393426,3.8442155 L18.0709,3.8442155 L18.0709,19.7275086 C18.1367119,21.884946 17.0669553,22.9297711 14.8582978,22.863453 L12.6496404,22.863453 Z M8.93501387,21.6494747 L8.93501387,19.1201523 C10.3405989,16.9627149 11.1090992,14.130029 11.2440554,10.6224094 L9.13578197,10.6224094 L9.13578197,8.39676512 L14.1555053,8.39676512 L14.1555053,10.6224094 C14.0880273,15.6806346 12.3483841,19.3575123 8.93501387,21.6494747 L8.93501387,21.6494747 Z M4.11616274,13.2526781 L5.72251587,13.2526781 L5.72251587,9.206014 L4.11616274,9.206014 L4.11616274,13.2526781 Z M4.11616274,6.98036971 L5.72251587,6.98036971 L5.72251587,3.1360178 L4.11616274,3.1360178 L4.11616274,6.98036971 Z M0,23.3694434 L0,20.8401209 C0.936466595,19.6939299 1.37090879,17.8398559 1.30509683,15.2760102 L1.30509683,0.910478444 L8.4330936,0.910478444 L8.4330936,20.2331843 C8.49890555,22.0540992 7.62991703,22.9297711 5.82279579,22.863453 L4.11616274,22.863453 L4.11616274,20.8401209 L4.81885112,20.8401209 C5.48707153,20.8401209 5.78822369,20.5032837 5.72241174,19.8284549 L5.72241174,15.4783224 L4.01577869,15.4783224 C4.08159064,19.0538341 2.7434837,21.6826338 0,23.3694434 L0,23.3694434 Z" id="Fill-3" fill="#194DB5" mask="url(#mask-4)"></path>
                        </g>
                        <path d="M60.395734,16.6694653 L63.3201177,16.6694653 C64.1927995,16.7372793 64.5960907,16.3337439 64.5300957,15.4587545 L64.5300957,12.3310415 L60.395734,12.3310415 L60.395734,16.6694653 Z M57.2701231,19.0906774 L57.2701231,9.90962003 L67.5546746,9.90962003 L67.5546746,15.8622899 C67.6210879,18.082153 66.5117236,19.1587008 64.2274182,19.0906774 L57.2701231,19.0906774 Z M56.2613724,8.0935016 L68.6639344,8.0935016 L68.6639344,5.57119629 L56.2613724,5.57119629 L56.2613724,8.0935016 Z M51.7241379,23.0257751 L51.7241379,1.03100486 L73.1006598,1.03100486 L73.1006598,19.5954106 C73.1667594,21.881204 72.0577088,22.9911355 69.7734034,22.9251006 L66.9500517,22.9251006 L66.9500517,20.5035745 L68.2606433,20.5035745 C69.1334297,20.5712838 69.5367208,20.2007136 69.4706213,19.3936429 L69.4706213,3.65419401 L55.4547901,3.65419401 L55.4547901,23.0257751 L51.7241379,23.0257751 Z" id="Fill-5" fill="#194DB5"></path>
                        <path d="M87.4129136,16.6353437 L94.2141603,16.6353437 C95.0927967,16.7035218 95.498791,16.2645728 95.4322484,15.3167083 L95.4322484,14.9109015 L87.4129136,14.9109015 L87.4129136,16.6353437 Z M87.4129136,12.8822883 L95.4322484,12.8822883 L95.4322484,11.2593767 L87.4129136,11.2593767 L87.4129136,12.8822883 Z M87.4129136,9.33197844 L95.4322484,9.33197844 L95.4322484,7.70906684 L87.4129136,7.70906684 L87.4129136,9.33197844 Z M83.1499736,3.85448081 L83.1499736,1.724337 L86.2965346,1.724337 C86.1599748,1.5214862 86.0254155,1.08253728 85.8904351,0.405701597 C85.8224184,0.202850799 85.7888312,0.0681780693 85.7888312,0 L89.2404144,0 C89.306957,0.136356139 89.3749737,0.339206937 89.4430956,0.608552396 C89.5099541,0.879686477 89.6113474,1.25214074 89.7478019,1.724337 L93.3007784,1.724337 C93.5034597,1.25214074 93.6716062,0.676730465 93.808166,0 L97.2594333,0 C97.1914166,0.745013748 97.0564361,1.3186354 96.853439,1.724337 L99.7973187,1.724337 L99.7973187,3.85448081 L93.0973601,3.85448081 C92.9613267,4.53131649 92.793075,5.10672677 92.5900778,5.57892303 L98.8835157,5.57892303 L98.8835157,15.3167083 C98.9500583,17.6162451 97.8684247,18.7654875 95.6352455,18.7654875 L83.9619622,18.7654875 L83.9619622,5.57892303 L89.0371014,5.57892303 C89.2404144,5.03844349 89.3749737,4.46313842 89.4430956,3.85448081 L83.1499736,3.85448081 Z M79.1908976,5.47749763 C78.9198838,3.99094217 78.378909,2.29974728 77.5668151,0.405701597 L80.8150853,0.405701597 C81.6936165,2.09689648 82.3027132,3.78798615 82.6421649,5.47749763 L79.1908976,5.47749763 Z M76.5517241,23.0257751 L76.5517241,20.8958417 C77.9728094,20.4900349 78.6484488,19.5437486 78.5819062,18.0556149 L78.5819062,9.83921065 L76.5517241,9.83921065 L76.5517241,7.30326003 L82.3378798,7.30326003 L82.3378798,17.1424707 C82.3378798,19.3076504 83.4195134,20.3883991 85.5861499,20.3883991 L100,20.3883991 L100,22.7212885 L85.2814436,22.7212885 C83.2512616,22.7212885 81.8301763,22.1130517 81.0180825,20.8958417 C80.1379719,21.9766956 78.6484488,22.686463 76.5517241,23.0257751 L76.5517241,23.0257751 Z" id="Fill-7" fill="#194DB5"></path>
                    </g>
                    <text id="医药人跳槽-上医脉同道" font-family="PingFangSC-Semibold, PingFang SC" font-size="9.65517241" font-weight="500" fill="#194DB5">
                        <tspan x="0" y="89.0218528">医药人跳槽 上医脉同道</tspan>
                    </text>
                    <line x1="0" y1="75.7780718" x2="100" y2="75.7780718" id="路径-9" stroke="#194DB5" stroke-width="0.5"></line>
                </g>
            </g>
        </g>
    </g>
</svg>