<?xml version="1.0" encoding="UTF-8"?>
<svg width="285px" height="102px" viewBox="0 0 285 102" version="1.1" xmlns="http://www.w3.org/2000/svg" xmlns:xlink="http://www.w3.org/1999/xlink">
    <title>信息框</title>
    <g id="投放页" stroke="none" stroke-width="1" fill="none" fill-rule="evenodd">
        <g id="画板" transform="translate(-1350.000000, -227.000000)" fill-rule="nonzero" stroke-width="2">
            <g id="信息框" transform="translate(1351.000000, 227.999798)">
                <path d="M21.4963229,10.9999204 C17.3857347,10.9972367 13.4428412,13.0922726 10.5362159,16.8238012 C7.62959061,20.5553299 6,25.6172209 6,30.8943985 L6,61.5576234 C6,66.834801 7.62959061,71.8966919 10.5362159,75.6282206 C13.4428412,79.3597493 17.3857347,81.4547852 21.4963229,81.4518163 L86.9571708,81.4518163 L76.0911565,97.1754769 C75.7771734,97.6298259 75.8909625,98.2526822 76.3453115,98.5666653 C76.6687803,98.7902021 77.0932247,98.8034357 77.4299908,98.6004841 L105.885504,81.4518163 L105.885504,81.4518163 L267.503677,81.4518163 C271.614265,81.4547852 275.557159,79.3597493 278.463784,75.6282206 C281.370409,71.8966919 283,66.834801 283,61.5576234 L283,30.8943985 C283,25.6172209 281.370409,20.5553299 278.463784,16.8238012 C275.557159,13.0922726 271.614265,10.9972367 267.503677,10.9999204 L21.4963229,10.9999204 Z" id="路径" stroke="#1A1A1A" fill="#3381EA"></path>
                <path d="M15.4963229,0 C11.3857347,-0.00276334984 7.44284116,2.09227256 4.53621589,5.82380122 C1.62959061,9.55532989 0,14.6172209 0,19.8943985 L0,50.5576234 C0,55.834801 1.62959061,60.8966919 4.53621589,64.6282206 C7.44284116,68.3597493 11.3857347,70.4547852 15.4963229,70.4518163 L80.9571708,70.4518163 L70.6116231,85.7595251 C70.302371,86.2171075 70.4226165,86.8387496 70.8801989,87.1480016 C71.202011,87.3654948 71.6206525,87.3769654 71.9538913,87.1774202 L99.8855038,70.4518163 L99.8855038,70.4518163 L261.503677,70.4518163 C265.614265,70.4547852 269.557159,68.3597493 272.463784,64.6282206 C275.370409,60.8966919 277,55.834801 277,50.5576234 L277,19.8943985 C277,14.6172209 275.370409,9.55532989 272.463784,5.82380122 C269.557159,2.09227256 265.614265,-0.00276334984 261.503677,0 L15.4963229,0 Z" id="路径" stroke="#000000" fill="#F6F7F7"></path>
            </g>
        </g>
    </g>
</svg>