<?xml version="1.0" encoding="UTF-8"?>
<svg width="21px" height="20px" viewBox="0 0 21 20" version="1.1" xmlns="http://www.w3.org/2000/svg" xmlns:xlink="http://www.w3.org/1999/xlink">
    <title>icon_yueliao</title>
    <g id="投放页" stroke="none" stroke-width="1" fill="none" fill-rule="evenodd">
        <g id="画板" transform="translate(-205.000000, -1622.000000)">
            <g id="icon_yueliao" transform="translate(205.500000, 1622.000000)">
                <rect id="矩形" fill="#FFFFFF" opacity="0" x="0" y="0" width="20" height="20"></rect>
                <g id="沟通" transform="translate(10.526316, 9.797368) scale(-1, 1) translate(-10.526316, -9.797368) translate(1.052632, 3.000000)" fill-rule="nonzero">
                    <path d="M18.245614,0 L0.701754386,0 C0.315789474,0 0,0.301138645 0,0.66919699 L0,11.0417503 C0,11.4098087 0.315789474,11.7109473 0.701754386,11.7109473 L3.68070175,11.7109473 L3.68070175,13.5947368 L6.60701754,11.7109473 L18.245614,11.7109473 C18.6315789,11.7109473 18.9473684,11.4098087 18.9473684,11.0417503 L18.9473684,0.66919699 C18.9473684,0.301138645 18.6350877,0 18.245614,0 L18.245614,0 Z" id="形状结合" fill="#547DFF"></path>
                    <g id="编组-2" transform="translate(3.157895, 4.210526)" fill="#FFFFFF">
                        <path d="M0,1.57894737 C0,2.45097592 0.706918816,3.15789474 1.57894737,3.15789474 C2.45097592,3.15789474 3.15789474,2.45097592 3.15789474,1.57894737 C3.15789474,0.706918816 2.45097592,0 1.57894737,0 C0.706918816,0 0,0.706918816 0,1.57894737 L0,1.57894737 Z" id="路径"></path>
                        <path d="M9.6,1.57894737 C9.6,2.45097592 10.3069188,3.15789474 11.1789474,3.15789474 C12.0509759,3.15789474 12.7578947,2.45097592 12.7578947,1.57894737 C12.7578947,0.706918816 12.0509759,0 11.1789474,0 C10.3069188,0 9.6,0.706918816 9.6,1.57894737 L9.6,1.57894737 Z" id="路径"></path>
                        <path d="M6.37894737,3.15789474 C7.25097592,3.15789474 7.95789474,2.45097592 7.95789474,1.57894737 C7.95789474,0.706918816 7.25097592,0 6.37894737,0 C5.50691882,0 4.8,0.706918816 4.8,1.57894737 C4.8,2.45097592 5.50691882,3.15789474 6.37894737,3.15789474 Z" id="路径"></path>
                    </g>
                </g>
            </g>
        </g>
    </g>
</svg>