<?xml version="1.0" encoding="UTF-8"?>
<svg width="16px" height="16px" viewBox="0 0 16 16" version="1.1" xmlns="http://www.w3.org/2000/svg" xmlns:xlink="http://www.w3.org/1999/xlink">
    <title>关闭</title>
    <g id="小程序登录注册优化后正向流程" stroke="none" stroke-width="1" fill="none" fill-rule="evenodd">
        <g id="01-08替换求职意向" transform="translate(-307.000000, -196.000000)" fill-rule="nonzero">
            <g id="弹窗" transform="translate(35.000000, 180.000000)">
                <g id="关闭" transform="translate(272.000000, 16.000000)">
                    <rect id="矩形" fill="#000000" opacity="0" x="0" y="0" width="16" height="16"></rect>
                    <path d="M7.15151757,8.0665176 L2.58951745,3.50451747 C2.42606843,3.34106846 2.36223433,3.10283634 2.42206082,2.87956083 C2.48188731,2.65628533 2.65628533,2.48188731 2.87956083,2.42206082 C3.10283634,2.36223433 3.34106846,2.42606843 3.50451747,2.58951745 L8.0665176,7.15151757 L12.6285177,2.58951745 C12.7919667,2.42606843 13.0301989,2.36223433 13.2534744,2.42206082 C13.4767499,2.48188731 13.6511479,2.65628533 13.7109744,2.87956083 C13.7708009,3.10283634 13.7069668,3.34106846 13.5435178,3.50451747 L8.98151763,8.0665176 L13.5435178,12.6285177 C13.796188,12.881188 13.796188,13.2908475 13.5435178,13.5435178 C13.2908475,13.796188 12.881188,13.796188 12.6285177,13.5435178 L8.0665176,8.98151763 L3.50451747,13.5435178 C3.25184719,13.796188 2.84218774,13.796188 2.58951746,13.5435177 C2.33684719,13.2908475 2.33684718,12.881188 2.58951745,12.6285177 L7.15151757,8.0665176 Z" id="路径" fill="#B2B3BE"></path>
                </g>
            </g>
        </g>
    </g>
</svg>