<?xml version="1.0" encoding="UTF-8"?>
<svg width="50px" height="50px" viewBox="0 0 50 50" version="1.1" xmlns="http://www.w3.org/2000/svg" xmlns:xlink="http://www.w3.org/1999/xlink">
    <title>tongyong_logo</title>
    <defs>
        <path d="M24,0 C37.2529356,0 48,10.7479107 48,24.0008463 C48,37.2529356 37.2529356,48 24,48 C10.7479107,48.0008463 0,37.2537819 0,24.0008463 C0,10.7479107 10.7479107,0 24,0 L24,0 Z" id="path-1"></path>
    </defs>
    <g id="投放页" stroke="none" stroke-width="1" fill="none" fill-rule="evenodd">
        <g id="画板" transform="translate(-257.000000, -1684.000000)">
            <g id="tongyong_logo" transform="translate(258.000000, 1685.000000)">
                <mask id="mask-2" fill="white">
                    <use xlink:href="#path-1"></use>
                </mask>
                <use id="蒙版" stroke="#194DB5" stroke-width="2" fill-rule="nonzero" xlink:href="#path-1"></use>
                <g id="图形" mask="url(#mask-2)" fill-rule="nonzero">
                    <g transform="translate(5.000000, 5.000000)" id="路径">
                        <path d="M28.8282795,9.97094017 C28.9641102,10.0375735 29.1067058,10.0894243 29.2536123,10.1256003 C29.2938256,10.1348799 29.4082787,10.1534392 29.471692,10.1611722 L29.5706785,10.1611722 L29.6047051,10.1611722 L29.6572917,10.1611722 L29.0943058,10.1611722 L27.8569742,10.1611722 C27.069722,10.1611722 26.2035899,10.1611722 25.8060971,10.2245828 C17.0314106,10.8674661 9.86744795,17.4926745 8.54222801,26.1901506 C8.40367997,27.1206089 7.6053308,27.8097653 6.66457731,27.810989 L6.65065733,27.810989 C2.97760071,27.810989 0,24.8335095 0,21.1606024 L0,16.837851 C0,13.1649439 2.97760071,10.1874644 6.65065733,10.1874644 L8.2901217,10.1874644 C9.33907833,10.1874644 10.1894257,9.33715163 10.1894257,8.28823769 L10.1894257,6.65038665 C10.1894257,2.97747952 13.1670264,0 16.840083,0 L21.1614636,0 C22.9253276,0 24.6169483,0.700663725 25.8641885,1.94785315 C27.1114287,3.19504258 27.812121,4.88659445 27.812121,6.65038665 L27.812121,8.28823769 C27.8109476,8.99462281 28.2025529,9.64309964 28.8282795,9.97094017 Z" fill="#194DB5"></path>
                        <path d="M38,16.837851 L38,21.1606024 C38,22.9243946 37.2993078,24.6159464 36.0520676,25.8631359 C34.8048274,27.1103253 33.1132067,27.810989 31.3493427,27.810989 L29.711425,27.810989 C29.2075724,27.8105782 28.7242383,28.0105428 28.3679606,28.366806 C28.0116829,28.7230692 27.8117102,29.2063837 27.812121,29.7102157 L27.812121,31.3496133 C27.812121,33.1134056 27.1114287,34.8049574 25.8641885,36.0521468 C24.6169483,37.2993363 22.9253276,38 21.1614636,38 L16.840083,38 C13.1670264,38 10.1894257,35.0225205 10.1894257,31.3496133 L10.1894257,28.5734636 C10.3067967,19.5004582 16.8708368,11.7980981 25.8107371,10.243142 C26.2283365,10.1719984 27.0202287,10.181278 27.8430543,10.1797314 C28.4617201,10.1797314 28.987586,10.1797314 29.4515853,10.1797314 C29.6712117,10.1797314 29.8073182,10.1797314 29.9697179,10.1797314 L30.8884366,10.1797314 C31.4350388,10.1724709 31.9813106,10.2102325 32.5217144,10.2926333 C32.5773943,10.3019129 32.6330742,10.3111925 32.6872075,10.3235653 C35.7787517,10.9599515 37.9971361,13.6816104 37.9969067,16.837851 L38,16.837851 Z" fill="#14A1FF"></path>
                    </g>
                </g>
            </g>
        </g>
    </g>
</svg>