<?xml version="1.0" encoding="UTF-8"?>
<svg width="21px" height="20px" viewBox="0 0 21 20" version="1.1" xmlns="http://www.w3.org/2000/svg" xmlns:xlink="http://www.w3.org/1999/xlink">
    <title>icon_mianfei</title>
    <g id="投放页" stroke="none" stroke-width="1" fill="none" fill-rule="evenodd">
        <g id="画板" transform="translate(-205.000000, -1534.000000)">
            <g id="icon_mianfei" transform="translate(205.500000, 1534.000000)">
                <circle id="椭圆形" fill="#547DFF" cx="10" cy="10" r="10"></circle>
                <path d="M6.24205121,4 C5.65605461,5.11626768 5.00637543,6.10570902 4,7.42492332 L6.10189418,7.42492332 C6.53500338,6.8921425 6.92992149,6.32133216 7.28661774,5.73781468 L12.5477337,5.73781468 C12.6369078,5.73781468 12.7261126,5.78855134 12.7643037,5.85199512 C12.8025563,5.9280848 12.8025563,6.0168816 12.7770341,6.09300189 L11.8726246,7.7547269 L5.28662799,7.7547269 C4.82802731,7.7547269 4.44587032,8.13526713 4.44587032,8.60463478 L4.44587032,10.9386741 C4.44587032,11.4080111 4.82802731,11.788582 5.28662799,11.788582 L8.19108874,11.788582 C7.31210922,13.1965931 5.88535495,14.1479743 4.21656998,14.5538981 L4.21656998,16 C6.91722187,15.5687231 9.04460753,14.211418 10.1528874,12.0296193 L10.1528874,15.137385 C10.1528874,15.5940455 10.5350444,15.9746164 11.0063754,15.9746164 L16,15.9746164 L16,15.2515654 L12.5604949,15.2515654 C12.2930034,15.2515654 12.0891638,15.0359423 12.0891638,14.7695519 L12.0891638,11.7886126 L14.7134028,11.7886126 C15.1974642,11.7886126 15.5668908,11.4080417 15.5668908,10.9387047 L15.5668908,8.6046654 C15.5668908,8.13529775 15.1974642,7.75475752 14.7134028,7.75475752 L13.8471229,7.75475752 L14.853529,5.9027624 C14.9554335,5.71249228 14.9554335,5.49683853 14.8280683,5.30656841 C14.7134028,5.1162983 14.5350546,5.01482498 14.3185462,5.01482498 L7.71972694,5.01482498 C7.91080544,4.68502141 8.10191468,4.3425107 8.28026281,4 L6.24205121,4 L6.24205121,4 Z" id="形状" fill="#FFFFFF" fill-rule="nonzero"></path>
                <path d="M8.69628841,11.2042471 L6.99650326,11.2042471 C6.73011285,11.2042471 6.51445909,10.9885933 6.51445909,10.7222335 L6.51445909,9.09856866 C6.51445909,8.83217825 6.73011285,8.61652449 6.99650326,8.61652449 L9.24174574,8.61652449 C9.22903861,9.5805822 9.02609199,10.4431666 8.69628841,11.2042471 Z" id="路径" fill="#4773FF" fill-rule="nonzero"></path>
                <path d="M13.7322307,9.09856866 L13.7322307,10.7222335 C13.7322307,10.9885933 13.5165769,11.2042471 13.2501559,11.2042471 L10.6751099,11.2042471 C10.9415309,10.4304595 11.0810644,9.55522918 11.1064174,8.61652449 L13.2501559,8.61652449 C13.5165769,8.61652449 13.7322307,8.83217825 13.7322307,9.09856866 Z" id="路径" fill="#4773FF" fill-rule="nonzero"></path>
            </g>
        </g>
    </g>
</svg>