<?xml version="1.0" encoding="UTF-8"?>
<svg width="16px" height="17px" viewBox="0 0 16 17" version="1.1" xmlns="http://www.w3.org/2000/svg" xmlns:xlink="http://www.w3.org/1999/xlink">
    <title>切片</title>
    <g id="c-小程序、c-APP" stroke="none" stroke-width="1" fill="none" fill-rule="evenodd">
        <g id="12_01首页-卡片增加猎头图标及企业名称显示" transform="translate(-216.000000, -571.000000)">
            <g id="card_1备份-11@3x备份-3" transform="translate(15.500000, 551.000000)">
                <g id="卡片内容" transform="translate(16.000000, 16.000000)">
                    <g id="标签/猎" transform="translate(184.500000, 4.500000)">
                        <g id="编组" transform="translate(0.500000, 0.500000)">
                            <rect id="矩形" stroke="#E3787C" x="0" y="0" width="15" height="15" rx="2"></rect>
                            <g id="猎备份" transform="translate(2.925000, 2.970000)" fill="#E3787C" fill-rule="nonzero">
                                <path d="M3.58,1.1 L3.58,1.74 L4.74,1.74 L4.74,3 L3.35,3 L3.35,3.68 L9.15,3.68 L9.15,3 L7.74,3 L7.74,1.74 L8.94,1.74 L8.94,1.1 L7.74,1.1 L7.74,0 L7.04,0 L7.04,1.1 L5.43,1.1 L5.43,0 L4.74,0 L4.74,1.1 L3.58,1.1 Z M5.43,3 L5.43,1.74 L7.04,1.74 L7.04,3 L5.43,3 Z M8.51,4.44 L4.02,4.44 L4.02,9.05 L4.72,9.05 L4.72,8.59 L7.81,8.59 L7.81,9.06 L8.51,9.06 L8.51,4.44 Z M4.72,7.93 L4.72,6.84 L7.81,6.84 L7.81,7.93 L4.72,7.93 Z M4.72,6.2 L4.72,5.09 L7.81,5.09 L7.81,6.2 L4.72,6.2 Z M2.86,0.09 C2.56,0.59 2.24,1.03 1.88,1.41 C1.6,0.99 1.26,0.58 0.86,0.18 L0.3,0.62 C0.73,1 1.09,1.43 1.38,1.9 C0.97,2.28 0.52,2.59 0.02,2.84 L0.41,3.46 C0.9,3.16 1.33,2.85 1.71,2.54 C1.74,2.6 1.77,2.68 1.81,2.77 C1.91,3.05 1.99,3.37 2.05,3.74 C1.56,4.59 0.88,5.32 0,5.92 L0.41,6.52 C1.08,6.03 1.66,5.42 2.16,4.7 C2.18,5.05 2.2,5.43 2.21,5.85 C2.21,7.15 2.08,7.93 1.84,8.19 C1.73,8.31 1.51,8.37 1.17,8.37 C0.93,8.37 0.68,8.35 0.42,8.32 L0.62,8.99 C0.8,8.99 1.04,9 1.33,9 C1.75,9 2.08,8.91 2.31,8.75 C2.7,8.42 2.9,7.47 2.9,5.89 C2.88,4.41 2.72,3.27 2.43,2.47 C2.37,2.33 2.31,2.19 2.24,2.05 C2.65,1.63 3.06,1.1 3.46,0.46 L2.86,0.09 Z" id="形状"></path>
                            </g>
                        </g>
                    </g>
                </g>
            </g>
        </g>
    </g>
</svg>