<?xml version="1.0" encoding="UTF-8"?>
<svg width="20px" height="20px" viewBox="0 0 20 20" version="1.1" xmlns="http://www.w3.org/2000/svg" xmlns:xlink="http://www.w3.org/1999/xlink">
    <title>创新平台备份</title>
    <g id="投放页" stroke="none" stroke-width="1" fill="none" fill-rule="evenodd">
        <g id="画板" transform="translate(-206.000000, -1658.000000)" fill="#4773FF" fill-rule="nonzero">
            <g id="创新平台备份" transform="translate(206.000000, 1658.000000)">
                <path d="M2.94117646,0 L17.0588235,0 C18.6832353,0 20,1.31676471 20,2.94117646 L20,17.0588235 C20,18.6832353 18.6832353,20 17.0588235,20 L2.94117646,20 C1.31676471,20 0,18.6832353 0,17.0588235 L0,2.94117646 C0,1.31676471 1.31676471,0 2.94117646,0 Z M10,4.66680001 C10.368,4.66680001 10.6668,4.36800002 10.6668,4 L10.6668,2.6668 C10.6668,2.29853653 10.3682635,2 10,2 C9.63173653,2 9.3332,2.29853653 9.3332,2.6668 L9.3332,4 C9.3332,4.36800002 9.63199999,4.66680001 10,4.66680001 L10,4.66680001 Z M6.22880001,6.22880001 C6.35391119,6.10374253 6.42420243,5.93409596 6.42420243,5.75720001 C6.42420243,5.58030406 6.35391119,5.41065749 6.22880001,5.28560001 L5.28560001,4.34280001 C5.02512975,4.08275066 4.60327027,4.08275066 4.34280001,4.34280001 C4.08275066,4.60327027 4.08275066,5.02512975 4.34280001,5.28560001 L5.28560001,6.22880001 C5.41065749,6.35391119 5.58030406,6.42420243 5.75720001,6.42420243 C5.93409596,6.42420243 6.10374253,6.35391119 6.22880001,6.22880001 L6.22880001,6.22880001 Z M4.66680001,10 C4.66680001,9.63199999 4.36800002,9.3332 4,9.3332 L2.6668,9.3332 C2.29853653,9.3332 2,9.63173653 2,10 C2,10.3682635 2.29853653,10.6668 2.6668,10.6668 L4,10.6668 C4.36800002,10.6668 4.66680001,10.368 4.66680001,10 L4.66680001,10 Z M15.3332,10 C15.3332,10.368 15.6312,10.6668 16,10.6668 L17.3332,10.6668 C17.7014635,10.6668 18,10.3682635 18,10 C18,9.63173653 17.7014635,9.3332 17.3332,9.3332 L16,9.3332 C15.6312,9.3332 15.3332,9.63199999 15.3332,10 L15.3332,10 Z M13.7716,6.22880001 C13.8965209,6.35386258 14.066035,6.42413393 14.2428,6.42413393 C14.419565,6.42413393 14.5890791,6.35386258 14.714,6.22880001 L15.6568,5.28560001 C15.7819851,5.16066302 15.8523342,4.99106312 15.8523342,4.81420001 C15.8523342,4.6373369 15.7819851,4.467737 15.6568,4.34280001 C15.3963297,4.08275066 14.9744702,4.08275066 14.714,4.34280001 L13.7716,5.28560001 C13.6464888,5.41065749 13.5761976,5.58030406 13.5761976,5.75720001 C13.5761976,5.93409596 13.6464888,6.10374253 13.7716,6.22880001 Z M14.3332,9.6668 C14.3332,7.2732 12.3932,5.33320001 10,5.33320001 C7.60680001,5.33320001 5.66680001,7.2732 5.66680001,9.6668 C5.66680001,12.06 7.60680001,14 10,14 C12.3932,14 14.3332,12.06 14.3332,9.6668 L14.3332,9.6668 Z M7.33320002,15.3332 C7.33320002,15.7012 7.63200001,16 7.99999999,16 L12,16 C12.368153,16 12.6666,15.701553 12.6666,15.3334 C12.6666,14.965247 12.368153,14.6668 12,14.6668 L7.99999999,14.6668 C7.63199998,14.6668 7.33320002,14.9652 7.33320002,15.3332 L7.33320002,15.3332 Z M8.6668,17.3332 C8.6668,17.7012 8.96519999,18 9.3332,18 L10.6668,18 C10.9049533,18 11.1250159,17.8729468 11.2440926,17.6667 C11.3631692,17.4604532 11.3631692,17.2063468 11.2440926,17.0001 C11.1250159,16.7938532 10.9049533,16.6668 10.6668,16.6668 L9.3332,16.6668 C8.96519999,16.6668 8.6668,16.9652 8.6668,17.3332 L8.6668,17.3332 Z" id="形状"></path>
            </g>
        </g>
    </g>
</svg>