<?xml version="1.0" encoding="UTF-8"?>
<svg width="192px" height="192px" viewBox="0 0 192 192" version="1.1" xmlns="http://www.w3.org/2000/svg" xmlns:xlink="http://www.w3.org/1999/xlink">
    <title>图形备份</title>
    <g id="投放页" stroke="none" stroke-width="1" fill="none" fill-rule="evenodd" opacity="0.04">
        <g id="画板" transform="translate(-1689.000000, -661.000000)" fill="#999999" fill-rule="nonzero">
            <g id="img_kapianbeijing" transform="translate(1321.000000, 499.000000)">
                <g id="图形备份" transform="translate(368.000000, 162.746667)">
                    <path d="M144.834993,50.2150384 C145.517415,50.5506129 146.233823,50.8117407 146.97189,50.9939284 C147.173924,51.0406618 147.748944,51.1341286 148.067536,51.1730731 L148.56485,51.1730731 L148.735802,51.1730731 L149,51.1730731 L146.171525,51.1730731 L139.955098,51.1730731 C135.999896,51.1730731 131.648396,51.1730731 129.651369,51.492418 C85.5668214,54.7300673 49.5746462,88.0955364 42.9166623,131.897233 C42.2205887,136.58315 38.2096349,140.053837 33.4832334,140.06 L33.4132986,140.06 C14.9596433,140.06 0,125.065 0,106.56773 L0,84.7977544 C0,66.3004844 14.9596433,51.3054844 33.4132986,51.3054844 L41.6500652,51.3054844 C46.9200858,51.3054844 51.1922816,47.0231913 51.1922816,41.7407152 L51.1922816,33.49227 C51.1922816,14.9950001 66.1519249,0 84.6055802,0 L106.316454,0 C115.178211,0 123.677015,3.52863975 129.943224,9.80965878 C136.209433,16.0906778 139.729752,24.6095677 139.729752,33.49227 L139.729752,41.7407152 C139.723857,45.2981687 141.691306,48.5639879 144.834993,50.2150384 Z" id="路径"></path>
                    <path d="M192,84.1833936 L192,105.945421 C192,114.82488 188.447481,123.340659 182.123955,129.619385 C175.80043,135.898111 167.22389,139.425462 158.281074,139.425462 L149.976809,139.425462 C147.422269,139.423394 144.971759,140.430076 143.165426,142.223612 C141.359093,144.017147 140.345228,146.450297 140.347311,148.986739 L140.347311,157.239959 C140.347311,166.119418 136.794792,174.635197 130.471266,180.913923 C124.147741,187.192649 115.571201,190.72 106.628386,190.72 L84.7189255,190.72 C66.0964772,190.72 51,175.730475 51,157.239959 L51,143.263988 C51.5950724,97.587757 84.8748474,58.8117655 130.200267,50.9836501 C132.317502,50.6254916 136.332406,50.6722079 140.504143,50.6644218 C143.640787,50.6644218 146.306935,50.6644218 148.659418,50.6644218 C149.772927,50.6644218 150.462989,50.6644218 151.286358,50.6644218 L155.944275,50.6644218 C158.715555,50.6278705 161.485161,50.8179736 164.225015,51.2328039 C164.507313,51.2795203 164.789611,51.3262366 165.064068,51.3885251 C180.73824,54.5922841 191.98548,68.2939313 191.984317,84.1833936 L192,84.1833936 Z" id="路径"></path>
                </g>
            </g>
        </g>
    </g>
</svg>