<?xml version="1.0" encoding="UTF-8"?>
<svg width="106px" height="30px" viewBox="0 0 106 30" version="1.1" xmlns="http://www.w3.org/2000/svg" xmlns:xlink="http://www.w3.org/1999/xlink">
    <title>logo</title>
    <defs>
        <polygon id="path-1" points="0 0 15.4482759 0 15.4482759 15.75 0 15.75"></polygon>
        <polygon id="path-3" points="0 0 16.6551724 0 16.6551724 17 0 17"></polygon>
    </defs>
    <g id="页面-1" stroke="none" stroke-width="1" fill="none" fill-rule="evenodd">
        <g id="首页-未登录-活动页" transform="translate(-16.000000, -52.000000)">
            <g id="logo" transform="translate(16.000000, 52.000000)">
                <g id="编组">
                    <path d="M22.7854125,7.8934685 C23.0653309,8.0342514 23.28,8.05207487 23.28,8.05207487 C23.2118225,8.05380458 21.0408035,7.99898047 20.4022022,8.10930553 C13.4302234,8.60858847 7.78605463,13.9126143 6.75175338,20.7332148 C6.6401014,21.4699937 6.01096092,22.016129 5.26701487,22.016129 L5.25597732,22.016129 C2.35317613,22.016129 0,19.6592188 0,16.7518112 L0,13.3300047 C0,10.4225972 2.35317613,8.0656869 5.25597732,8.0656869 L6.55195116,8.0656869 C7.38134438,8.0656869 8.05365896,7.39230545 8.05365896,6.5615961 L8.05365896,5.26431779 C8.05365896,2.35691028 10.4068351,0 13.3096363,0 L16.7252707,0 C19.6280719,0 21.981248,2.35691028 21.981248,5.26431779 L21.981248,6.5615961 C21.981248,7.13991901 22.3071186,7.64228534 22.7854125,7.8934685" id="Fill-1" fill="#194DB5"></path>
                    <path d="M30,13.2720905 L30,16.6890148 C30,19.5922739 27.6361713,21.9458213 24.7202296,21.9458213 L23.4191433,21.9458213 C22.5856938,21.9458213 21.9106374,22.6179416 21.9106374,23.4477661 L21.9106374,24.7431934 C21.9106374,27.6464526 19.5468088,30 16.630867,30 L13.1997704,30 C11.2922648,30 9.62008608,28.9921951 8.69235499,27.4827406 C8.20209059,26.685208 7.92,25.7472435 7.92,24.7431934 L7.92,22.5496031 C8.01201886,15.2749338 13.3400615,9.25664122 20.3244435,8.05884029 C21.1028325,7.92516721 23.5523443,8.01100335 23.9821931,8.01100335 C24.0972166,8.01100335 25.072164,7.98839908 25.6524862,8.09713988 C25.6969871,8.1046496 25.7407338,8.1129103 25.7844804,8.12192197 C27.0131584,8.37274674 28.0864603,9.0478709 28.8422218,9.98733733 C29.5670588,10.8870022 30,12.0292312 30,13.2720905" id="Fill-3" fill="#14A1FF"></path>
                </g>
                <g id="编组" transform="translate(36.000000, 0.000000)">
                    <g transform="translate(0.000000, 0.500000)">
                        <mask id="mask-2" fill="white">
                            <use xlink:href="#path-1"></use>
                        </mask>
                        <g id="Clip-2"></g>
                        <path d="M15.0231133,13.4773346 C12.4246609,12.8913437 10.5824613,11.9643795 9.49644108,10.6939349 C8.64618947,11.9153 6.63782005,12.8433279 3.47375812,13.4773346 L3.47375812,12.0123954 C5.88281661,11.2799257 7.29992712,10.3037301 7.72501618,9.0825169 L3.2611401,9.0825169 L3.2611401,7.3246202 L8.07933056,7.3246202 L8.07933056,6.81186868 L8.07933056,5.27376605 L6.02451296,5.27376605 C5.41002997,5.90891241 4.48893018,6.32441664 3.2611401,6.51891122 L3.2611401,5.20045071 C4.20553747,4.76101453 4.79554697,3.80882682 5.03256499,2.34388758 L7.44162348,2.34388758 C7.29992712,2.78332377 7.18145486,3.17482008 7.08738259,3.51579339 L14.1728617,3.51579339 L14.1728617,5.27376605 L10.6300854,5.27376605 L10.6300854,6.66538995 L10.6300854,7.3246202 L14.881417,7.3246202 L14.881417,9.0825169 L10.9843998,9.0825169 C11.8346514,10.4009774 13.1809137,11.3531651 15.0231133,11.9390041 L15.0231133,13.4773346 Z M2.62350651,15.7481348 C0.827681618,15.7961506 -0.0457940859,14.9171263 0.00182999958,13.1112138 L0.00182999958,0 L15.2356578,0 L15.2356578,1.83113606 L2.62350651,1.83113606 L2.62350651,12.8182563 C2.57580893,13.6972046 2.97774739,14.112405 3.827999,14.0633255 L15.4482759,14.0633255 L15.4482759,15.7481348 L2.62350651,15.7481348 Z" id="Fill-1" fill="#194DB5" mask="url(#mask-2)"></path>
                    </g>
                    <g transform="translate(17.137931, 0.000000)">
                        <mask id="mask-4" fill="white">
                            <use xlink:href="#path-3"></use>
                        </mask>
                        <g id="Clip-4"></g>
                        <path d="M16.5850494,15.675078 C14.289139,13.9088716 13.1646918,11.2849811 13.2118536,7.80081111 L13.2118536,6.10819028 L14.4767655,6.10819028 C15.3200645,6.15765444 16.04586,6.01048329 16.6551724,5.66660051 L16.6551724,7.58005439 C16.0930217,7.82615386 15.6012127,7.94798226 15.1795268,7.94798226 C15.1795268,10.2547068 15.6472811,12.1681606 16.5850494,13.6881912 L16.5850494,15.675078 Z M14.1956902,3.23804762 C12.5550878,2.45387274 10.704918,1.96289514 8.64386887,1.76618351 L8.64386887,-2.29000745e-05 C11.0331551,0.196612405 12.8836165,0.540495189 14.1956902,1.03025145 L14.1956902,3.23804762 Z M8.85474828,16.6319195 L8.85474828,15.0863171 L9.55750955,15.0863171 C10.2129633,15.1359339 10.5171457,14.7919748 10.4710773,14.0563481 L10.4710773,4.56274059 L7.02753981,4.56274059 L7.02753981,2.79645785 L12.64963,2.79645785 L12.64963,14.3506904 C12.6956983,15.9201088 11.9468687,16.6801623 10.4008085,16.6319195 L8.85474828,16.6319195 Z M6.25450971,15.7488163 L6.25450971,13.9088716 C7.23841922,12.3394532 7.77636945,10.2788282 7.87083876,7.72722554 L6.39504738,7.72722554 L6.39504738,6.10819028 L9.90885374,6.10819028 L9.90885374,7.72722554 C9.86161908,11.4068095 8.64386887,14.0815382 6.25450971,15.7488163 L6.25450971,15.7488163 Z M2.88131392,9.64060309 L4.00576111,9.64060309 L4.00576111,6.69687486 L2.88131392,6.69687486 L2.88131392,9.64060309 Z M2.88131392,5.0778396 L4.00576111,5.0778396 L4.00576111,2.28128251 L2.88131392,2.28128251 L2.88131392,5.0778396 Z M0,17 L0,15.1600554 C0.655526616,14.3262636 0.959636151,12.9775256 0.913567784,11.1124672 L0.913567784,0.662323585 L5.90316552,0.662323585 L5.90316552,14.7185419 C5.94923388,16.0431586 5.34094192,16.6801623 4.07595706,16.6319195 L2.88131392,16.6319195 L2.88131392,15.1600554 L3.37319579,15.1600554 C3.84095007,15.1600554 4.05175659,14.9150246 4.00568822,14.4241233 L4.00568822,11.2596383 L2.81104508,11.2596383 C2.85711345,13.8606288 1.92043859,15.7729377 0,17 L0,17 Z" id="Fill-3" fill="#194DB5" mask="url(#mask-4)"></path>
                    </g>
                    <path d="M42.2770138,12.12613 L44.3240824,12.12613 C44.9349597,12.1754611 45.2172635,11.881911 45.171067,11.2454038 L45.171067,8.97016253 L42.2770138,8.97016253 L42.2770138,12.12613 Z M40.0890862,13.8874303 L40.0890862,7.20871001 L47.2882722,7.20871001 L47.2882722,11.5389538 C47.3347616,13.1537836 46.5582065,13.9369136 44.9591927,13.8874303 L40.0890862,13.8874303 Z M39.3829607,5.88758255 L48.0647541,5.88758255 L48.0647541,4.05274252 L39.3829607,4.05274252 L39.3829607,5.88758255 Z M36.2068966,16.75 L36.2068966,0.75 L51.1704619,0.75 L51.1704619,14.2545962 C51.2167316,15.9173867 50.4403961,16.7248016 48.8413824,16.6767647 L46.8650362,16.6767647 L46.8650362,14.9152361 L47.7824503,14.9152361 C48.3934008,14.964491 48.6757046,14.6949213 48.6294349,14.1078212 L48.6294349,2.65822755 L38.8183531,2.65822755 L38.8183531,16.75 L36.2068966,16.75 Z" id="Fill-5" fill="#194DB5"></path>
                    <path d="M61.1890395,12.1013084 L65.9499122,12.1013084 C66.5649577,12.1509043 66.8491537,11.8315928 66.8025739,11.1420728 L66.8025739,10.8468704 L61.1890395,10.8468704 L61.1890395,12.1013084 Z M61.1890395,9.37116459 L66.8025739,9.37116459 L66.8025739,8.1905846 L61.1890395,8.1905846 L61.1890395,9.37116459 Z M61.1890395,6.78850714 L66.8025739,6.78850714 L66.8025739,5.60792716 L61.1890395,5.60792716 L61.1890395,6.78850714 Z M58.2049815,2.80392531 L58.2049815,1.25436145 L60.4075742,1.25436145 C60.3119824,1.10679852 60.2177909,0.787487034 60.1233045,0.295125863 C60.0756929,0.147562932 60.0521818,0.0495958401 60.0521818,0 L62.4682901,0 C62.5148699,0.0991916801 62.5624816,0.246754612 62.610167,0.442688795 C62.6569679,0.639924103 62.7279432,0.91086434 62.8234614,1.25436145 L65.3105449,1.25436145 C65.4524218,0.91086434 65.5701243,0.492284635 65.6657162,0 L68.0816033,0 C68.0339916,0.541957011 67.9395053,0.959235592 67.7974073,1.25436145 L69.8581231,1.25436145 L69.8581231,2.80392531 L65.1681521,2.80392531 C65.0729287,3.29628648 64.9551525,3.71486619 64.8130545,4.0583633 L69.218461,4.0583633 L69.218461,11.1420728 C69.2650408,12.8148609 68.5078973,13.6508723 66.9446719,13.6508723 L58.7733735,13.6508723 L58.7733735,4.0583633 L62.325971,4.0583633 C62.4682901,3.66519381 62.5624816,3.24669064 62.610167,2.80392531 L58.2049815,2.80392531 Z M55.4336283,3.98458183 C55.2439186,2.90319353 54.8652363,1.67294116 54.2967706,0.295125863 L56.5705597,0.295125863 C57.1855316,1.52537823 57.6118993,2.75555406 57.8495154,3.98458183 L55.4336283,3.98458183 Z M53.5862069,16.75 L53.5862069,15.2005892 C54.5809666,14.9053868 55.0539141,14.2170149 55.0073343,13.1344786 L55.0073343,7.15749101 L53.5862069,7.15749101 L53.5862069,5.31272476 L57.6365158,5.31272476 L57.6365158,12.4702158 C57.6365158,14.0452664 58.3936594,14.8314523 59.9103049,14.8314523 L70,14.8314523 L70,16.5285025 L59.6970105,16.5285025 C58.2758831,16.5285025 57.2811234,16.0860433 56.7126577,15.2005892 C56.0965803,15.9868517 55.0539141,16.5031689 53.5862069,16.75 L53.5862069,16.75 Z" id="Fill-7" fill="#194DB5"></path>
                </g>
                <g id="医药人跳槽-上医脉同道" transform="translate(36.000000, 23.000000)" fill="#194DB5" fill-rule="nonzero">
                    <path d="M2.10123602,2.07667732 L2.92525015,2.07667732 L2.92525015,2.32587859 C2.91838336,2.4600639 2.90464979,2.5942492 2.87718266,2.7284345 L1.0094173,2.7284345 L1.0094173,3.35463259 L2.68491269,3.35463259 C2.62997842,3.46964856 2.56817736,3.57827476 2.49264273,3.68051118 C2.22483814,4.00638978 1.7166961,4.27476038 0.961349814,4.49201278 L1.35275652,5.0543131 C2.12870316,4.83067093 2.68491269,4.51757188 3.02825191,4.1086262 C3.19992152,3.8913738 3.33725721,3.63578275 3.43339219,3.35463259 L5.41102609,3.35463259 L5.41102609,2.7284345 L3.57072788,2.7284345 C3.59132823,2.60063898 3.6050618,2.46645367 3.61192859,2.32587859 L3.61192859,2.07667732 L5.00588582,2.07667732 L5.00588582,1.46964856 L2.43770846,1.46964856 C2.48577595,1.35463259 2.53384344,1.23322684 2.58191093,1.09904153 L1.92956641,0.932907348 C1.74416323,1.4313099 1.43515794,1.87220447 1.00255052,2.2428115 L1.53129292,2.69648562 C1.74416323,2.52396166 1.9364332,2.31948882 2.10123602,2.07667732 Z M3.68059643,3.56549521 L3.32352364,4.05750799 C3.90033353,4.30031949 4.46340985,4.62619808 5.0127526,5.04792332 L5.40415931,4.49201278 C4.8822837,4.12779553 4.31234059,3.82108626 3.68059643,3.56549521 Z M0,0.242811502 L0,5.74440895 L5.74749853,5.74440895 L5.74749853,5.10543131 L0.693545223,5.10543131 L0.693545223,0.875399361 L5.52776143,0.875399361 L5.52776143,0.242811502 L0,0.242811502 Z" id="形状"></path>
                    <path d="M6.5509123,0.504792332 L6.5509123,1.11821086 L8.08220522,1.11821086 L8.08220522,1.5399361 L8.79635079,1.5399361 L8.79635079,1.11821086 L10.4031783,1.11821086 L10.4031783,1.52715655 L11.1173239,1.52715655 L11.1173239,1.11821086 L12.6486168,1.11821086 L12.6486168,0.504792332 L11.1173239,0.504792332 L11.1173239,0.0319488818 L10.4031783,0.0319488818 L10.4031783,0.504792332 L8.79635079,0.504792332 L8.79635079,0.0319488818 L8.08220522,0.0319488818 L8.08220522,0.504792332 L6.5509123,0.504792332 Z M9.34569355,4.85623003 C8.60408083,5.04792332 7.72513243,5.20766773 6.72258191,5.32268371 L6.81185011,5.94888179 C7.75946635,5.82747604 8.60408083,5.66134185 9.34569355,5.45686901 L9.34569355,4.85623003 Z M7.738866,1.43769968 C7.48479498,1.91054313 7.18265646,2.3514377 6.83931725,2.75399361 C6.75691583,2.85623003 6.67451442,2.92651757 6.58524622,2.96485623 L6.7294487,3.48242812 L7.71826565,3.36102236 C7.45046106,3.69329073 7.22385717,3.92971246 7.04532078,4.07028754 C6.96291936,4.14696486 6.8599176,4.20447284 6.74318226,4.24920128 L6.92171866,4.81789137 C7.59466353,4.74760383 8.31567589,4.61341853 9.07102217,4.41533546 L9.07102217,3.84664537 C8.61094762,3.98083067 8.16460663,4.08945687 7.72513243,4.16613419 C8.13027271,3.78913738 8.63154797,3.20127796 9.22209143,2.40255591 L8.58348048,2.17252396 C8.43241122,2.39616613 8.28134197,2.60702875 8.13713949,2.80511182 L7.45046106,2.88178914 C7.75259957,2.55591054 8.05473808,2.15335463 8.35687659,1.66773163 L7.738866,1.43769968 Z M10.3001766,3.42492013 L9.77830096,3.72523962 C10.1216402,4.12779553 10.4031783,4.49201278 10.6091819,4.81789137 L11.1241907,4.47923323 C10.9319207,4.17891374 10.6572494,3.82747604 10.3001766,3.42492013 Z M9.97743771,1.52076677 C9.79890131,2.23642173 9.46242888,2.8370607 8.96115362,3.32907348 L9.37316068,3.82108626 C9.7164999,3.49520767 9.99803806,3.12460064 10.2246419,2.70926518 L11.7216009,2.70926518 C11.7147342,4.04472843 11.687267,4.82428115 11.6460663,5.04792332 C11.5979988,5.26517572 11.433196,5.38019169 11.1516578,5.38019169 C10.8769865,5.38019169 10.5542476,5.36741214 10.1834412,5.35463259 L10.3413773,5.93610224 C10.7739847,5.95527157 11.08299,5.96805112 11.2615264,5.96805112 C11.8864038,5.96805112 12.2366098,5.76357827 12.3121444,5.35463259 C12.3808122,4.9456869 12.4151462,3.85942492 12.4151462,2.1086262 L10.4924465,2.1086262 C10.5473808,1.94249201 10.6023151,1.76996805 10.6503826,1.59105431 L9.97743771,1.52076677 Z" id="形状"></path>
                    <path d="M16.8030214,0.0511182109 L16.0751422,0.0511182109 C16.0751422,0.293929712 16.0682755,0.626198083 16.0682755,1.0543131 C16.0133412,2.88817891 15.0725917,4.31948882 13.2322935,5.34185304 L13.6717677,5.94249201 C15.1000589,5.08626198 16.0408083,4.00638978 16.4940161,2.7028754 C17.0227585,4.05111821 17.929174,5.12460064 19.2132627,5.92971246 L19.6939376,5.34185304 C18.1351776,4.45367412 17.1532274,3.16932907 16.7549539,1.48881789 C16.782421,1.09265176 16.8030214,0.61341853 16.8030214,0.0511182109 Z" id="路径"></path>
                    <path d="M20.4218168,0.28115016 L20.4218168,2.38977636 L21.2526977,2.38977636 L21.2526977,4.95846645 C21.1565627,4.98402556 21.0535609,5.01597444 20.9505592,5.04792332 L20.9505592,2.96485623 L20.3737493,2.96485623 L20.3737493,5.19488818 C20.2913479,5.20766773 20.2089464,5.22683706 20.126545,5.25239617 L20.3256818,5.84664537 C21.1222288,5.62939297 21.8295076,5.39936102 22.4475181,5.15654952 L22.4475181,4.55591054 C22.262115,4.62619808 22.069845,4.69648562 21.8707083,4.76038339 L21.8707083,3.85303514 L22.4475181,3.85303514 L22.4475181,3.7827476 L22.770257,4.28753994 C23.0380616,4.11501597 23.2852658,3.91693291 23.5187365,3.68690096 C23.4020012,4.50479233 23.0861291,5.13099042 22.5642535,5.55271565 L23.1067294,6 C23.8483422,5.36102236 24.2260153,4.35782748 24.2397489,2.99041534 L24.2397489,0.0638977636 L23.566804,0.0638977636 L23.566804,2.14057508 C23.4020012,1.71884984 23.2303316,1.33546326 23.058662,0.990415335 L22.4818521,1.24600639 C22.7015892,1.62300319 22.9075927,2.04472843 23.0998627,2.51757188 L23.566804,2.30670927 L23.566804,2.87539936 C23.2371984,3.19488818 22.866392,3.45047923 22.4475181,3.65495208 L22.4475181,3.27795527 L21.8707083,3.27795527 L21.8707083,2.38977636 L22.420051,2.38977636 L22.420051,0.28115016 L20.4218168,0.28115016 Z M21.8020404,1.84025559 L21.0398273,1.84025559 L21.0398273,0.830670927 L21.8020404,0.830670927 L21.8020404,1.84025559 Z M25.8946439,0.785942492 C25.7161075,1.22044728 25.510104,1.59744409 25.2628997,1.92332268 L25.2628997,0.0638977636 L24.5830881,0.0638977636 L24.5830881,5.21405751 C24.5830881,5.63578275 24.7959584,5.85303514 25.2285658,5.85303514 L25.7435747,5.85303514 C25.9770453,5.85303514 26.1555817,5.78913738 26.2791838,5.67412141 C26.402786,5.54632588 26.4851874,5.15015974 26.5401216,4.47923323 L25.9083775,4.30031949 C25.8946439,4.76038339 25.86031,5.04153355 25.8122425,5.13099042 C25.7710418,5.21405751 25.7092407,5.25878594 25.6199725,5.25878594 L25.4345694,5.25878594 C25.317834,5.25878594 25.2628997,5.19488818 25.2628997,5.0798722 L25.2628997,3.34185304 C25.5307043,3.55910543 25.7985089,3.82747604 26.0663135,4.14057508 L26.4714538,3.55910543 C26.1006474,3.20766773 25.7023739,2.90095847 25.2628997,2.63897764 L25.2628997,2.12140575 L25.7023739,2.40894569 C26.0045125,2.02555911 26.2654503,1.57827476 26.4851874,1.0543131 L25.8946439,0.785942492 Z" id="形状"></path>
                    <path d="M29.4653718,1.2971246 L29.4653718,3.38658147 L33.1665686,3.38658147 L33.1665686,1.2971246 L32.1777516,1.2971246 L32.1777516,0.990415335 L33.310771,0.990415335 L33.310771,0.447284345 L32.1777516,0.447284345 L32.1777516,0.0319488818 L31.5322739,0.0319488818 L31.5322739,0.447284345 L31.0859329,0.447284345 L31.0859329,0.0319488818 L30.4404552,0.0319488818 L30.4404552,0.447284345 L29.2937022,0.447284345 L29.2937022,0.990415335 L30.4404552,0.990415335 L30.4404552,1.2971246 L29.4653718,1.2971246 Z M31.5322739,0.990415335 L31.5322739,1.2971246 L31.0859329,1.2971246 L31.0859329,0.990415335 L31.5322739,0.990415335 Z M32.5897587,2.95846645 L32.0884834,2.95846645 L32.0884834,2.55591054 L32.5897587,2.55591054 L32.5897587,2.95846645 Z M31.5528742,2.95846645 L31.0653325,2.95846645 L31.0653325,2.55591054 L31.5528742,2.55591054 L31.5528742,2.95846645 Z M30.5297234,2.95846645 L30.0421817,2.95846645 L30.0421817,2.55591054 L30.5297234,2.55591054 L30.5297234,2.95846645 Z M30.0421817,2.14057508 L30.0421817,1.76357827 L30.5297234,1.76357827 L30.5297234,2.14057508 L30.0421817,2.14057508 Z M31.0653325,1.76357827 L31.5528742,1.76357827 L31.5528742,2.14057508 L31.0653325,2.14057508 L31.0653325,1.76357827 Z M32.0884834,1.76357827 L32.5897587,1.76357827 L32.5897587,2.14057508 L32.0884834,2.14057508 L32.0884834,1.76357827 Z M32.9193643,3.66134185 L29.6782421,3.66134185 L29.6782421,5.97444089 L30.3374534,5.97444089 L30.3374534,5.74440895 L32.2670198,5.74440895 L32.2670198,5.97444089 L32.9193643,5.97444089 L32.9193643,3.66134185 Z M30.3374534,5.23322684 L30.3374534,4.91373802 L32.2670198,4.91373802 L32.2670198,5.23322684 L30.3374534,5.23322684 Z M30.3374534,4.45367412 L30.3374534,4.1341853 L32.2670198,4.1341853 L32.2670198,4.45367412 L30.3374534,4.45367412 Z M28.5795566,2.85623003 C28.7031587,3.03514377 28.8473612,3.26517572 29.012164,3.5399361 L29.3829704,3.01597444 C29.1151658,2.69648562 28.8473612,2.39616613 28.5795566,2.12779553 L28.5795566,1.84664537 L29.1975672,1.84664537 L29.1975672,1.23961661 L28.5795566,1.23961661 L28.5795566,0.0447284345 L27.9066117,0.0447284345 L27.9066117,1.23961661 L27.1375319,1.23961661 L27.1375319,1.84664537 L27.8722778,1.84664537 C27.6800078,2.54952077 27.3778693,3.17571885 26.9521287,3.72523962 L27.261134,4.46645367 C27.515205,4.03833866 27.7280753,3.57188498 27.9066117,3.06709265 L27.9066117,5.95527157 L28.5795566,5.95527157 L28.5795566,2.85623003 Z" id="形状"></path>
                    <polygon id="路径" points="38.6599961 0.0447284345 38.6599961 5.08626198 36.2772219 5.08626198 36.2772219 5.73801917 42.4504611 5.73801917 42.4504611 5.08626198 39.4016088 5.08626198 39.4016088 2.58785942 41.942319 2.58785942 41.942319 1.94249201 39.4016088 1.94249201 39.4016088 0.0447284345"></polygon>
                    <path d="M45.5885815,2.07667732 L46.4125956,2.07667732 L46.4125956,2.32587859 C46.4057289,2.4600639 46.3919953,2.5942492 46.3645282,2.7284345 L44.4967628,2.7284345 L44.4967628,3.35463259 L46.1722582,3.35463259 C46.1173239,3.46964856 46.0555229,3.57827476 45.9799882,3.68051118 C45.7121836,4.00638978 45.2040416,4.27476038 44.4486953,4.49201278 L44.840102,5.0543131 C45.6160487,4.83067093 46.1722582,4.51757188 46.5155974,4.1086262 C46.687267,3.8913738 46.8246027,3.63578275 46.9207377,3.35463259 L48.8983716,3.35463259 L48.8983716,2.7284345 L47.0580734,2.7284345 C47.0786737,2.60063898 47.0924073,2.46645367 47.0992741,2.32587859 L47.0992741,2.07667732 L48.4932313,2.07667732 L48.4932313,1.46964856 L45.925054,1.46964856 C45.9731214,1.35463259 46.0211889,1.23322684 46.0692564,1.09904153 L45.4169119,0.932907348 C45.2315087,1.4313099 44.9225034,1.87220447 44.489896,2.2428115 L45.0186384,2.69648562 C45.2315087,2.52396166 45.4237787,2.31948882 45.5885815,2.07667732 Z M47.1679419,3.56549521 L46.8108691,4.05750799 C47.387679,4.30031949 47.9507553,4.62619808 48.5000981,5.04792332 L48.8915048,4.49201278 C48.3696292,4.12779553 47.7996861,3.82108626 47.1679419,3.56549521 Z M43.4873455,0.242811502 L43.4873455,5.74440895 L49.234844,5.74440895 L49.234844,5.10543131 L44.1808907,5.10543131 L44.1808907,0.875399361 L49.0151069,0.875399361 L49.0151069,0.242811502 L43.4873455,0.242811502 Z" id="形状"></path>
                    <path d="M52.0502256,0.249201278 L50.1893271,0.249201278 L50.1893271,3.80191693 C50.1824603,4.50479233 50.0794585,5.0798722 49.8871885,5.52715655 L50.4090642,5.96805112 C50.6768687,5.42492013 50.8210712,4.72204473 50.8348048,3.85942492 L51.3978811,3.85942492 L51.3978811,5.1629393 C51.3978811,5.31629393 51.33608,5.39936102 51.2124779,5.39936102 C51.0957426,5.39936102 50.9721405,5.38658147 50.8348048,5.37380192 L50.9927408,5.92971246 L51.3978811,5.92971246 C51.8304885,5.92971246 52.0502256,5.74440895 52.0502256,5.38019169 L52.0502256,4.95207668 L52.4072984,5.39297125 C53.0939768,4.86900958 53.5403178,4.10223642 53.7463214,3.09265176 L53.7463214,2.60702875 L52.2630959,2.60702875 L52.2630959,3.19488818 L53.0939768,3.19488818 C52.8948401,3.87220447 52.5446341,4.40894569 52.0502256,4.80511182 L52.0502256,0.249201278 Z M50.8348048,3.2715655 L50.8348048,2.35782748 L51.3978811,2.35782748 L51.3978811,3.2715655 L50.8348048,3.2715655 Z M50.8348048,1.77635783 L50.8348048,0.837060703 L51.3978811,0.837060703 L51.3978811,1.77635783 L50.8348048,1.77635783 Z M53.9591917,5.91054313 C54.4055327,5.91054313 54.6321366,5.69968051 54.6321366,5.28434505 L54.6321366,3.48881789 C54.9480086,4.17252396 55.3462821,4.77955272 55.8406906,5.30351438 L56.3282323,4.77316294 C55.8063567,4.31309904 55.3737493,3.76357827 55.0372768,3.11182109 C55.4630175,2.84345048 55.8475574,2.45367412 56.1840298,1.95527157 L55.6484206,1.54632588 C55.4012164,1.96166134 55.1196782,2.30670927 54.7969394,2.57507987 C54.7351383,2.42811502 54.680204,2.27476038 54.6321366,2.12140575 L54.6321366,1.22683706 L52.6888366,1.22683706 L52.6888366,1.83386581 L53.9317245,1.83386581 L53.9317245,5.0798722 C53.9317245,5.23322684 53.8699235,5.30990415 53.7531881,5.30990415 L53.2107122,5.27795527 L53.3961154,5.91054313 L53.9591917,5.91054313 Z M53.6845203,0 L53.3892486,0.530351438 C53.9317245,0.677316294 54.4536002,0.888178914 54.9548754,1.1629393 L55.2158132,0.575079872 C54.7282715,0.325878594 54.2201295,0.134185304 53.6845203,0 Z" id="形状"></path>
                    <path d="M62.0963312,5.93610224 C62.5632725,5.93610224 62.7967432,5.68051118 62.7967432,5.18210863 L62.7967432,0.236421725 L57.1110457,0.236421725 L57.1110457,5.95527157 L57.8320581,5.95527157 L57.8320581,0.888178914 L62.0757308,0.888178914 L62.0757308,5.02875399 C62.0757308,5.20766773 62.0001962,5.2971246 61.8628605,5.2971246 L61.0045125,5.26517572 L61.2036492,5.93610224 L62.0963312,5.93610224 Z M58.2097312,1.43769968 L58.2097312,2.05750799 L61.6980577,2.05750799 L61.6980577,1.43769968 L58.2097312,1.43769968 Z M58.5530704,2.58785942 L58.5530704,4.76677316 L61.3615852,4.76677316 L61.3615852,2.58785942 L58.5530704,2.58785942 Z M60.66804,4.17252396 L59.2466157,4.17252396 L59.2466157,3.18210863 L60.66804,3.18210863 L60.66804,4.17252396 Z" id="形状"></path>
                    <path d="M65.6601923,0.68370607 L65.6601923,1.30351438 L67.2395527,1.30351438 C67.2120855,1.41853035 67.1708848,1.53354633 67.1228173,1.6485623 L66.0584658,1.6485623 L66.0584658,4.85623003 L69.4369237,4.85623003 L69.4369237,1.6485623 L67.8918972,1.6485623 L68.0154993,1.30351438 L69.8695311,1.30351438 L69.8695311,0.68370607 L68.9013145,0.68370607 C69.011183,0.549520767 69.1141848,0.402555911 69.2103198,0.242811502 L68.5167746,0.0127795527 C68.3931725,0.242811502 68.2558368,0.466453674 68.0979007,0.68370607 L67.3700216,0.68370607 C67.2464195,0.428115016 67.1090838,0.21086262 66.9648813,0.0191693291 L66.2988032,0.249201278 C66.4086718,0.383386581 66.5185403,0.530351438 66.6146753,0.68370607 L65.6601923,0.68370607 Z M68.7639788,4.26837061 L66.7245438,4.26837061 L66.7245438,3.91693291 L68.7639788,3.91693291 L68.7639788,4.26837061 Z M66.7245438,3.39297125 L66.7245438,3.08626198 L68.7639788,3.08626198 L68.7639788,3.39297125 L66.7245438,3.39297125 Z M66.7245438,2.56230032 L66.7245438,2.23642173 L68.7639788,2.23642173 L68.7639788,2.56230032 L66.7245438,2.56230032 Z M64.3417697,0.0958466454 L63.854228,0.523961661 C64.3486365,0.89456869 64.7331764,1.24600639 65.000981,1.56549521 L65.5022562,1.10543131 C65.1863841,0.773162939 64.7949774,0.434504792 64.3417697,0.0958466454 Z M68.2558368,5.85303514 L69.8283304,5.85303514 L70,5.19488818 C69.8145968,5.20766773 69.5467922,5.22044728 69.1965862,5.23322684 C68.8395134,5.23322684 68.4961742,5.23961661 68.152835,5.23961661 C67.6240926,5.23961661 67.164018,5.23322684 66.7726113,5.22683706 C66.3743378,5.21405751 66.0721993,5.1629393 65.8730626,5.06709265 C65.7151265,4.98402556 65.5571905,4.85623003 65.3992545,4.69009585 L65.3305866,4.62619808 L65.3305866,2.19169329 L63.7237591,2.19169329 L63.7237591,2.80511182 L64.6645085,2.80511182 L64.6645085,4.55591054 C64.3761036,4.69648562 64.0602315,5.02236422 63.7168923,5.53354633 L64.2387679,5.98722045 C64.5958407,5.41214058 64.8430449,5.13099042 64.9803806,5.13099042 C65.062782,5.13099042 65.1451834,5.18210863 65.2413184,5.29073482 C65.4335884,5.50798722 65.6739258,5.65495208 65.9485972,5.73162939 C66.2370022,5.79552716 66.6009417,5.83386581 67.0404159,5.84025559 C67.4798901,5.84664537 67.8850304,5.85303514 68.2558368,5.85303514 Z" id="形状"></path>
                </g>
                <polygon id="路径-9" fill="#194DB5" fill-rule="nonzero" points="106 19.75 106 20.25 36 20.25 36 19.75"></polygon>
            </g>
        </g>
    </g>
</svg>