<?xml version="1.0" encoding="UTF-8"?>
<svg width="21px" height="20px" viewBox="0 0 21 20" version="1.1" xmlns="http://www.w3.org/2000/svg" xmlns:xlink="http://www.w3.org/1999/xlink">
    <title>icon_zhuanye</title>
    <g id="投放页" stroke="none" stroke-width="1" fill="none" fill-rule="evenodd">
        <g id="画板" transform="translate(-205.000000, -1577.000000)">
            <g id="推荐" transform="translate(205.500000, 1577.000000)">
                <rect id="矩形" fill="#D8D8D8" opacity="0" x="0" y="0" width="20" height="20"></rect>
                <path d="M5,18.6602542 C8.09401074,20.4465822 11.9059893,20.4465822 15,18.6602542 C18.0940109,16.8739262 20,13.5726559 20,10 C20,4.4771525 15.5228475,0 10,0 C4.4771525,0 0,4.4771525 0,10 C0,13.5726559 1.90598914,16.8739262 5,18.6602542 Z" id="路径" fill="#547DFF" fill-rule="nonzero"></path>
                <path d="M15.2212406,9.51270162 L13.52533,11.1656996 C13.3536791,11.3339174 13.2747197,11.5742287 13.3159159,11.8111069 L13.7158624,14.1455588 C13.818853,14.7411874 13.1923273,15.1960622 12.6567765,14.9145548 L10.5609193,13.8125561 C10.3480731,13.7009927 10.094028,13.7009927 9.88118179,13.8125561 L7.78532455,14.9145548 C7.24977381,15.1960622 6.62496461,14.7411874 6.72623863,14.1455588 L7.12618518,11.8111069 C7.16738139,11.5742287 7.08842198,11.3322009 6.9167711,11.1656996 L5.22086042,9.51270162 C4.7883002,9.09044045 5.02689492,8.35577469 5.62595649,8.26823274 L7.9707075,7.928364 C8.20802984,7.89373238 8.41328281,7.74492398 8.51999032,7.53013396 L9.56877719,5.40681258 C9.83655256,4.86439581 10.6089815,4.86439581 10.8767569,5.40681258 L11.9255438,7.53013396 C12.0322513,7.74492398 12.2375042,7.89373238 12.4748266,7.928364 L14.8195776,8.26823274 C15.4152061,8.35405818 15.6538009,9.09044045 15.2212406,9.51270162 L15.2212406,9.51270162 Z" id="路径" fill="#FFFFFF" fill-rule="nonzero"></path>
            </g>
        </g>
    </g>
</svg>