<svg width="16" height="17" viewBox="0 0 16 17" fill="none" xmlns="http://www.w3.org/2000/svg">
<g clip-path="url(#clip0_1144_1115)">
<rect x="0.5" y="1" width="15" height="15" rx="1.5" stroke="#F4881B"/>
<path d="M7.35 4.65H12.47V5.57H10.35C10.31 5.87 10.27 6.15 10.23 6.42H12.2V11.26H11.27V7.29H8.5V11.27H7.57V6.42H9.27C9.31 6.14 9.35 5.86 9.38 5.57H7.35V4.65ZM10.79 11.22C11.5 11.76 12.1 12.29 12.58 12.83L11.89 13.52C11.47 13 10.88 12.44 10.14 11.84L10.79 11.22ZM9.38 7.78H10.31V9.55C10.27 10.62 9.99 11.47 9.49 12.11C8.99 12.7 8.19 13.16 7.07 13.49L6.56 12.68C7.64 12.37 8.36 11.98 8.74 11.51C9.12 11.01 9.34 10.35 9.38 9.55V7.78ZM4.96 13.38H3.87L3.66 12.48C4 12.52 4.33 12.54 4.63 12.54C4.86 12.54 4.98 12.4 4.98 12.12V5.57H3.52V4.65H7.06V5.57H5.94V12.36C5.94 13.04 5.61 13.38 4.96 13.38Z" fill="#F4881B"/>
</g>
<defs>
<clipPath id="clip0_1144_1115">
<rect width="16" height="16" fill="white" transform="translate(0 0.5)"/>
</clipPath>
</defs>
</svg>
