<?xml version="1.0" encoding="UTF-8"?>
<svg width="88px" height="88px" viewBox="0 0 88 88" version="1.1" xmlns="http://www.w3.org/2000/svg" xmlns:xlink="http://www.w3.org/1999/xlink">
    <title>卡通</title>
    <g id="页面-1" stroke="none" stroke-width="1" fill="none" fill-rule="evenodd">
        <g id="卡通">
            <rect id="矩形" fill="#FFFFFF" opacity="0" x="0" y="0" width="88" height="88"></rect>
            <path d="M65.5060298,72.9024072 C66.8292108,71.8291748 68.5550991,72.0974829 70.6836947,73.7073314 C73.8765881,76.1221041 75.8613597,75.1383078 77.155776,73.7967674 C78.4501922,72.455227 81.2979079,72.455227 82.5060298,75.4066159" id="路径-4" stroke="#AAF1DF" stroke-width="3" stroke-linecap="round" transform="translate(74.006030, 73.832542) rotate(-26.000000) translate(-74.006030, -73.832542) "></path>
            <path d="M32.6808205,23.4868285 L58.4491647,23.4868285 C61.7628732,23.4868285 64.4491647,26.17312 64.4491647,29.4868285 L64.4491647,69.4868285 C64.4491647,72.800537 61.7628732,75.4868285 58.4491647,75.4868285 L32.6808205,75.4868285 C29.367112,75.4868285 26.6808205,72.800537 26.6808205,69.4868285 L26.6808205,29.4868285 C26.6808205,26.17312 29.367112,23.4868285 32.6808205,23.4868285 Z" id="矩形" fill="#E1E5F0" transform="translate(45.564993, 49.486829) rotate(9.000000) translate(-45.564993, -49.486829) "></path>
            <path d="M17.0000948,70.2362575 L19.334092,74.904252 L14.7272781,74.9975816 L17.0000948,70.2362575 Z" id="三角形" stroke="#B6EFF8" stroke-width="2"></path>
            <path d="M24.5188063,63.3387658 L46.99217,63.6758658 C50.5315724,63.7289393 53.3789659,66.6021876 53.4000623,70.141925 C53.4000623,70.141925 53.4000623,70.141925 53.4000623,70.141925 C53.4095269,71.7299765 54.442019,72.9620345 55.3451329,73.3772308 C56.2482467,73.7924271 57.23114,73.9481943 58.2938125,73.8445322 C57.8965651,74.1018318 57.4943243,74.2803577 57.0870901,74.38011 C56.8530616,74.4374355 56.5049327,74.5160844 56.0843821,74.5897815 C55.8768811,74.6261438 55.513629,74.6591418 54.9946256,74.6887756 L24.5194043,74.5775623 C21.3948752,74.56616 18.8679744,72.0300209 18.8679744,68.905471 C18.8679744,65.8307188 21.3605536,63.3381396 24.4353058,63.3381396 C24.4631405,63.3381396 24.4909747,63.3383483 24.5188063,63.3387658 Z" id="矩形备份-2" fill="#C8CFE3" transform="translate(38.580893, 68.971390) rotate(9.000000) translate(-38.580893, -68.971390) "></path>
            <circle id="椭圆形" fill="#FFFFFF" cx="38" cy="39.1406861" r="7"></circle>
            <circle id="椭圆形备份" fill="#FFFFFF" cx="55" cy="42.1406861" r="7"></circle>
            <path d="M39.6703071,35.9254951 C41.1167258,35.9254951 42.2892799,37.0980492 42.2892799,38.5444679 L42.2892799,41.0256 C42.2892799,42.4720187 41.1167258,43.6445728 39.6703071,43.6445728 C38.2238884,43.6445728 37.0513343,42.4720187 37.0513343,41.0256 L37.0513343,38.5444679 C37.0513343,37.0980492 38.2238884,35.9254951 39.6703071,35.9254951 Z" id="矩形" fill="#7B819B" transform="translate(39.670307, 39.785034) rotate(10.000000) translate(-39.670307, -39.785034) "></path>
            <path d="M56.2111878,38.6823086 C57.6576065,38.6823086 58.8301605,39.8548626 58.8301605,41.3012814 L58.8301605,43.7824135 C58.8301605,45.2288322 57.6576065,46.4013862 56.2111878,46.4013862 C54.764769,46.4013862 53.592215,45.2288322 53.592215,43.7824135 L53.592215,41.3012814 C53.592215,39.8548626 54.764769,38.6823086 56.2111878,38.6823086 Z" id="矩形备份" fill="#7B819B" transform="translate(56.211188, 42.541847) rotate(10.000000) translate(-56.211188, -42.541847) "></path>
            <path d="M41,51.1406861 C42.7081936,52.9568763 44.2081936,53.9479524 45.5,54.1139144 C46.7918064,54.2798765 48.2918064,53.6742188 50,52.2969416" id="路径" stroke="#7B819B" stroke-width="2" stroke-linecap="round" transform="translate(45.500000, 52.640686) scale(1, -1) rotate(-18.000000) translate(-45.500000, -52.640686) "></path>
            <path d="M27,52.1406861 C23.9554515,51.3323866 21.7814611,49.7739505 20.4780289,47.4653778 C18.8981568,44.6671888 19.0035813,40.111968 14.9597326,40.2590192 C13.9991737,40.2939491 12.8044991,40.5941967 11.2975108,41.2463329" id="路径-3" stroke="#FF8077" stroke-width="4" stroke-linecap="round"></path>
            <path d="M79.9999522,57.1406823 C77.5225416,56.9978812 75.6321202,55.7721942 74.328688,53.4636215 C72.7488159,50.6654326 72.0035335,45.1119643 67.9596849,45.2590155 C66.9991259,45.2939454 64.297463,46.2463292 64.297463,46.2463292" id="路径-3备份" stroke="#FF8077" stroke-width="4" stroke-linecap="round" transform="translate(72.148708, 51.198417) scale(-1, 1) rotate(-9.000000) translate(-72.148708, -51.198417) "></path>
            <path d="M34.6331444,24.9426405 L32.6159148,25.7555569 C31.3352791,26.2716359 29.878754,25.6518402 29.3626751,24.3712045 C29.1186537,23.7656722 29.1211832,23.088707 29.3697228,22.4850152 L30.1741544,20.5310865 L30.1741544,20.5310865 L29.3697228,18.5771578 C28.8440882,17.3004145 29.4529821,15.8392985 30.7297254,15.3136638 C31.3334173,15.0651242 32.0103825,15.0625947 32.6159148,15.3066161 L34.6331444,16.1195325 L34.6331444,16.1195325 L36.650374,15.3066161 C37.9310097,14.7905371 39.3875348,15.4103328 39.9036137,16.6909685 C40.1476351,17.2965008 40.1451056,17.973466 39.896566,18.5771578 L39.0921344,20.5310865 L39.0921344,20.5310865 L39.896566,22.4850152 C40.4222006,23.7617585 39.8133067,25.2228745 38.5365634,25.7485092 C37.9328715,25.9970488 37.2559063,25.9995783 36.650374,25.7555569 L34.6331444,24.9426405 L34.6331444,24.9426405 Z" id="星形" fill="#E2F9FE" transform="translate(34.633144, 20.531087) rotate(51.000000) translate(-34.633144, -20.531087) "></path>
            <circle id="椭圆形" stroke="#DCFAF2" stroke-width="2" cx="8.5" cy="54.6406861" r="3.5"></circle>
            <circle id="椭圆形" stroke="#FFDF59" stroke-width="2" cx="81" cy="30" r="3"></circle>
        </g>
    </g>
</svg>