<svg width="28" height="17" viewBox="0 0 28 17" fill="none" xmlns="http://www.w3.org/2000/svg">
<rect y="0.5" width="28" height="16" rx="2" stroke="#DB3A2C"/>
<rect x="0.5" y="1" width="27" height="15" rx="1.5" stroke="#DB3A2C"/>
<path d="M12.22 10.21H5.63V9.37H11.31V8.77H6.01V7.97H11.31V7.37H5.68V7.33C5.46 7.49 5.25 7.64 5.04 7.78L4.43 7.05C5.59 6.35 6.59 5.39 7.43 4.17L8.38 4.39L8.02 4.93H11.14V5.58C10.87 5.94 10.6 6.25 10.34 6.53H12.22V10.21ZM9.18 6.53C9.44 6.29 9.71 6.01 9.98 5.71H7.41C7.15 6 6.89 6.27 6.63 6.53H9.18ZM5.51 10.7L6.44 10.88C6.19 11.8 5.83 12.59 5.37 13.27L4.55 12.75C5 12.11 5.32 11.42 5.51 10.7ZM10.37 13.39H7.95C7.27 13.39 6.94 13.05 6.94 12.37V10.62H7.9V12.17C7.9 12.42 8.01 12.55 8.23 12.55H10.19C10.38 12.55 10.51 12.5 10.59 12.41C10.7 12.3 10.77 11.98 10.8 11.46L11.7 11.75C11.62 12.54 11.48 13.02 11.26 13.18C11.07 13.32 10.77 13.39 10.37 13.39ZM9.23 10.32C9.71 10.78 10.07 11.19 10.32 11.54L9.53 12.09C9.27 11.71 8.91 11.28 8.45 10.8L9.23 10.32ZM12.21 10.46C12.82 11.26 13.29 11.97 13.62 12.57L12.83 13.13C12.49 12.47 12.03 11.74 11.45 10.94L12.21 10.46ZM23.08 9.22V13.51H22.14V13.16H19.27V13.51H18.33V9.22H23.08ZM19.27 12.25H22.14V10.14H19.27V12.25ZM15.65 13.42H14.75L14.54 12.5C14.81 12.53 15.07 12.55 15.32 12.55C15.57 12.55 15.7 12.43 15.7 12.19V10.04C15.32 10.19 14.94 10.33 14.56 10.47L14.3 9.48C14.77 9.37 15.24 9.23 15.7 9.06V6.97H14.5V6.06H15.7V4.31H16.64V6.06H17.74V6.97H16.64V8.67C16.97 8.51 17.29 8.35 17.61 8.17V9.13C17.29 9.31 16.96 9.47 16.64 9.63V12.43C16.64 13.09 16.31 13.42 15.65 13.42ZM19.72 5.54H18.16V4.64H23.25C23.24 6.6 23.12 7.77 22.9 8.16C22.66 8.54 22.27 8.73 21.72 8.73C21.5 8.73 21.25 8.71 20.96 8.68L20.73 7.85C21.05 7.87 21.31 7.89 21.51 7.91C21.85 7.89 22.07 7.76 22.17 7.5C22.25 7.25 22.31 6.6 22.33 5.54H20.65C20.48 6.34 20.26 6.98 19.99 7.46C19.64 8.02 19.12 8.53 18.42 8.99L17.84 8.24C18.43 7.88 18.87 7.48 19.17 7.04C19.41 6.65 19.59 6.15 19.72 5.54Z" fill="#DB3A2C"/>
</svg>
