<?xml version="1.0" encoding="UTF-8"?>
<svg width="16px" height="16px" viewBox="0 0 16 16" version="1.1" xmlns="http://www.w3.org/2000/svg" xmlns:xlink="http://www.w3.org/1999/xlink">
    <title>close-outlined</title>
    <g id="发起多-回复快" stroke="none" stroke-width="1" fill="none" fill-rule="evenodd" opacity="0.8">
        <g id="1.0C端每日精选职位" transform="translate(-335.000000, -112.000000)" fill-rule="nonzero">
            <g id="今日优选职位-+-card_3-+-card_4-+-card_4备份-2-+-card_4备份-+-close-outlined-蒙版" transform="translate(8.000000, 96.000000)">
                <g id="close-outlined" transform="translate(327.000000, 16.000000)">
                    <rect id="矩形" fill="#000000" opacity="0" x="0" y="0" width="16" height="16"></rect>
                    <path d="M8.76262518,8.09375 L12.8641877,3.2046875 C12.9329377,3.1234375 12.8751252,3 12.7688752,3 L11.5220002,3 C11.4485627,3 11.3782502,3.0328125 11.3298127,3.0890625 L7.94700018,7.121875 L4.56418768,3.0890625 C4.51731268,3.0328125 4.44700018,3 4.37200018,3 L3.12512518,3 C3.01887518,3 2.96106268,3.1234375 3.02981268,3.2046875 L7.13137518,8.09375 L3.02981268,12.9828125 C2.96106268,13.0640625 3.01887518,13.1875 3.12512518,13.1875 L4.37200018,13.1875 C4.44543768,13.1875 4.51575018,13.1546875 4.56418768,13.0984375 L7.94700018,9.065625 L11.3298127,13.0984375 C11.3766877,13.1546875 11.4470002,13.1875 11.5220002,13.1875 L12.7688752,13.1875 C12.8751252,13.1875 12.9329377,13.0640625 12.8641877,12.9828125 L8.76262518,8.09375 Z" id="路径" fill="#FFFFFF"></path>
                </g>
            </g>
        </g>
    </g>
</svg>