<?xml version="1.0" encoding="UTF-8"?>
<svg width="8px" height="8px" viewBox="0 0 8 8" version="1.1" xmlns="http://www.w3.org/2000/svg" xmlns:xlink="http://www.w3.org/1999/xlink">
    <title>切换</title>
    <g id="小程序登录注册优化后正向流程" stroke="none" stroke-width="1" fill="none" fill-rule="evenodd">
        <g id="01-00新用户引导填写求职期望" transform="translate(-339.000000, -139.000000)">
            <g id="编组-3" transform="translate(276.000000, 131.000000)">
                <g id="编组-8" transform="translate(12.000000, 4.000000)">
                    <g id="切换" transform="translate(51.000000, 4.000000)">
                        <rect id="矩形" fill-opacity="0" fill="#FFFFFF" x="0.000788787551" y="0" width="8" height="8"></rect>
                        <path d="M3.33412102,0.650126403 C3.55503492,0.94467827 3.49533956,1.36254584 3.20078769,1.58345974 L2.66212102,1.98745974 L2.66212102,1.98745974 L7.33550991,1.99973571 C7.70375744,2.00070302 8.00155361,2.29990412 8.00078769,2.66815212 C8.00002212,3.03623169 7.70101406,3.33399853 7.33293449,3.33323297 C7.33286843,3.33323283 7.33280237,3.33323268 7.33273632,3.33323252 L0.540575736,3.31708594 C0.195398743,3.31626537 -0.0837572963,3.03577893 -0.0829367284,2.69060194 C-0.0824703144,2.49440196 0.0101010807,2.30980803 0.167061506,2.19208771 L2.40078769,0.51679307 C2.69533956,0.29587917 3.11320712,0.355574537 3.33412102,0.650126403 Z" id="路径-3" fill="#4655D4" fill-rule="nonzero"></path>
                        <path d="M3.33490943,4.93347146 C3.55582333,5.22802333 3.49612797,5.6458909 3.2015761,5.8668048 L2.66290943,6.2708048 L2.66290943,6.2708048 L7.33629832,6.28308077 C7.70454585,6.28404808 8.00234202,6.58324918 8.0015761,6.95149718 C8.00081054,7.31957675 7.70180247,7.61734359 7.3337229,7.61657802 C7.33365684,7.61657789 7.33359078,7.61657774 7.33352473,7.61657758 L0.541364147,7.600431 C0.196187154,7.59961043 -0.0829688853,7.31912399 -0.0821483174,6.973947 C-0.0816819034,6.77774702 0.0108894916,6.59315309 0.167849917,6.47543277 L2.4015761,4.80013813 C2.69612797,4.57922423 3.11399553,4.6389196 3.33490943,4.93347146 Z" id="路径-3备份" fill="#4655D4" fill-rule="nonzero" transform="translate(4.001183, 6.141673) scale(-1, -1) translate(-4.001183, -6.141673) "></path>
                    </g>
                </g>
            </g>
        </g>
    </g>
</svg>