<?xml version="1.0" encoding="UTF-8"?>
<svg width="46px" height="46px" viewBox="0 0 46 46" version="1.1" xmlns="http://www.w3.org/2000/svg" xmlns:xlink="http://www.w3.org/1999/xlink">
    <title>商务男士</title>
    <defs>
        <circle id="path-1" cx="23" cy="23" r="23"></circle>
    </defs>
    <g id="投放页" stroke="none" stroke-width="1" fill="none" fill-rule="evenodd">
        <g id="画板" transform="translate(-258.000000, -1628.000000)">
            <g id="商务男士" transform="translate(258.000000, 1628.000000)">
                <mask id="mask-2" fill="white">
                    <use xlink:href="#path-1"></use>
                </mask>
                <use id="蒙版" fill="#E5E5E5" xlink:href="#path-1"></use>
                <g id="编组" mask="url(#mask-2)">
                    <g transform="translate(8.280000, 8.970000)">
                        <path d="M14.7619334,37.72 C20.5160385,37.72 25.7431573,35.4321076 29.555,31.7281674 C29.2294968,30.4867371 28.8629001,29.4453626 28.4495753,28.9273321 C26.7967883,26.8752781 19.2918868,25.875 19.2918868,25.875 L14.7619334,27.0855089 L10.2424527,25.8800876 C10.2424527,25.8800876 2.77887223,26.8547581 1.12608527,28.9068121 C0.707638015,29.4298737 0.330568776,30.4918247 0,31.7590886 C3.81201349,35.4475965 9.01830096,37.72 14.7619334,37.72" id="Fill-1" fill="#D0D4D7"></path>
                        <polygon id="Fill-5" fill="#FBE5CE" points="11.155 27.485 18.285 27.485 18.285 21.39 11.155 21.39"></polygon>
                        <path d="M20.9549448,13.7926681 C21.1084815,12.624745 21.9681292,11.7513903 22.8737871,11.8530486 C23.7845761,11.9546509 24.3986102,12.9802972 24.2400552,14.1530318 C24.0814438,15.3259903 23.2268708,16.1890505 22.3212129,16.0926514 C21.4104239,15.9910491 20.7963898,14.9654028 20.9549448,13.7926681 Z" id="Fill-7" fill="#FFEDDB"></path>
                        <path d="M5.07295872,14.1933878 C4.96012143,13.0255838 5.59627273,11.9845143 6.5094294,11.8575559 C7.42275567,11.7307655 8.25371524,12.5785718 8.38204221,13.7516355 C8.4948795,14.9194395 7.85867167,15.9605091 6.94557153,16.0874674 C6.02715741,16.2144817 5.19110999,15.3614157 5.07295872,14.1933878" id="Fill-3" fill="#FFEDDB"></path>
                        <path d="M14.7250307,4.14 L14.7147406,4.14 C14.3827124,4.15560421 7.13,4.5550833 7.13,8.52838277 L7.13,16.775577 C7.13,17.5647611 8.83839027,23.2073677 14.7147406,23.3427184 C20.5731404,23.4776691 22.31,17.584195 22.31,16.775577 L22.31,8.7460986 C22.2994812,7.03963866 20.9455287,5.95031649 19.3839443,5.26573198 C17.2515435,4.32153464 14.7250307,4.14 14.7250307,4.14 Z" id="Fill-8" fill="#FFEDDB"></path>
                        <path d="M10.12,25.645 L14.1043005,37.7097909 C14.3163472,37.72 14.528565,37.72 14.7406117,37.72 C14.9372638,37.72 15.1390474,37.7148955 15.3356995,37.7097909 L19.32,25.645 L14.7199145,26.5817385 L10.12,25.645 Z" id="Fill-9" fill="#D0D4D7"></path>
                        <polygon id="Fill-10" fill="#777F84" points="15.3004678 29.1659468 16.3263139 28.1317063 14.7773601 26.565 13.2437391 28.1317063 14.2695853 29.1659468 12.995 35.2329986 14.7773601 37.03 16.56 35.2329986"></polygon>
                        <polygon id="Fill-11" fill="#FFFFFF" points="14.72 26.5786926 18.3628042 24.725 20.24 25.8411541 17.1857133 30.245"></polygon>
                        <polygon id="Fill-12" fill="#FFFFFF" points="14.605 26.5839776 10.9637418 24.725 9.085 25.8414248 12.7767326 30.245"></polygon>
                        <path d="M6.34748525,13.57 L7.07628205,13.57 L8.05,6.80505155 C8.05,6.80505155 5.83716112,5.93661328 5.3791029,8.60415585 C4.92615078,11.2561128 6.34748525,13.57 6.34748525,13.57" id="路径" fill="#61402F"></path>
                        <path d="M22.6325476,13.57 L21.9037613,13.57 L20.93,6.80505155 C20.93,6.80505155 23.142807,5.93661328 23.600916,8.60415585 C24.0538042,11.2561128 22.6325476,13.57 22.6325476,13.57" id="路径" fill="#61402F"></path>
                        <path d="M7.11644087,7.37354523 C7.11644087,7.37354523 10.1959141,9.775 14.46592,9.775 C18.7357548,9.775 22.77273,8.45238514 24.61,4.84743086 C24.5066019,4.87338018 21.3339962,4.30266672 17.3643182,1.26842591 C12.3647082,-2.56487091 2.99146607,3.11488542 7.11644087,7.37354523" id="Fill-14" fill="#61402F"></path>
                    </g>
                </g>
            </g>
        </g>
    </g>
</svg>