<?xml version="1.0" encoding="UTF-8"?>
<svg width="46px" height="46px" viewBox="0 0 46 46" version="1.1" xmlns="http://www.w3.org/2000/svg" xmlns:xlink="http://www.w3.org/1999/xlink">
    <title>经典男士</title>
    <defs>
        <circle id="path-1" cx="23" cy="23" r="23"></circle>
        <polygon id="path-3" points="0 0 17.02 0 17.02 7.935 0 7.935"></polygon>
    </defs>
    <g id="投放页" stroke="none" stroke-width="1" fill="none" fill-rule="evenodd">
        <g id="画板" transform="translate(-427.000000, -1570.000000)">
            <g id="经典男士" transform="translate(427.000000, 1570.000000)">
                <mask id="mask-2" fill="white">
                    <use xlink:href="#path-1"></use>
                </mask>
                <use id="蒙版" fill="#787878" xlink:href="#path-1"></use>
                <g id="编组" mask="url(#mask-2)">
                    <g transform="translate(4.600000, 8.050000)">
                        <polygon id="Fill-1" fill="#FBE5CE" points="14.72 30.245 22.195 30.245 22.195 19.55 14.72 19.55"></polygon>
                        <g id="编组" stroke-width="1" fill="none" transform="translate(0.000000, 2.760000)">
                            <path d="M22.1222178,22.3130343 L22.1222178,22.8084873 C22.1222178,25.4667122 20.8962336,27.6079575 18.4269675,27.6079575 C15.9576446,27.6079575 14.6778389,25.453819 14.6778389,22.7998539 L14.6778389,22.3044009 C6.89782715,22.765434 0,28.8249214 0,36.1641351 L0,36.455 L36.8,36.455 L36.8,36.1641351 C36.8,28.8464481 29.8720578,22.804057 22.1222178,22.3130343" id="Fill-2" fill="#39334C"></path>
                            <path d="M25.8819519,8.94598539 C25.9228993,9.35533192 25.9466057,9.77331182 25.9466057,10.1997547 C25.9486474,11.2616588 25.8110595,12.3188486 25.5378687,13.3447425 C27.2348618,12.7825513 27.1424749,10.8374311 27.1424749,10.8374311 C27.2543714,9.41792383 26.5682467,9.00857729 25.8819519,8.94598539 M10.8857779,8.92445877 C10.2060619,8.99568404 9.53059946,9.40701852 9.64249597,10.8181196 C9.64249597,10.8181196 9.54370037,12.8104961 11.3073323,13.3447425 C10.9941014,12.2662532 10.8354727,11.1484595 10.8363801,10.0253834 C10.8363801,9.65261509 10.8533943,9.28632179 10.8857779,8.92445877" id="Fill-4" fill="#FFEACF"></path>
                            <path d="M25.8991929,8.97415742 C25.4087312,3.91818529 22.027619,0 18.4160784,0 C14.7724377,0 11.3179945,3.8622956 10.8748888,8.97415742 C10.8450006,9.33602044 10.8276946,9.70214335 10.8276946,10.0748549 C10.8263985,11.1977605 10.9790156,12.3152703 11.281414,13.3964291 C12.3893766,17.3492614 15.3812046,20.1002383 18.4721117,20.1002383 C21.606008,20.1002383 24.5356208,17.3752183 25.5702523,13.3771744 C25.8338585,12.3490086 25.9661153,11.2913644 25.9637097,10.2299147 C25.9607842,9.81062841 25.9392896,9.39151254 25.8991929,8.97415742" id="Fill-6" fill="#FFEACF"></path>
                        </g>
                        <g id="编组" stroke-width="1" fill="none" transform="translate(10.120000, 0.000000)">
                            <mask id="mask-4" fill="white">
                                <use xlink:href="#path-3"></use>
                            </mask>
                            <g id="Clip-9"></g>
                            <path d="M7.36437306,7.69430041 C6.61159008,7.69430041 5.85903388,7.71142731 5.1128279,7.75478509 C4.68277149,7.78056079 4.2355922,7.81299378 3.79907219,7.85612397 C3.06154104,7.92946805 2.42277829,8.07194561 1.76921728,7.60143964 C1.23035688,7.17713645 0.816402784,6.6141111 0.57146624,5.97222238 C0.149744477,4.99758254 -0.042916258,3.93890143 0.00799879215,2.87760292 C0.0265958261,2.37950045 0.190510536,1.89784208 0.478877958,1.49220209 C1.12404762,0.628972429 2.34969421,0.426237784 3.34747044,0.264186628 C4.18575442,0.128195665 5.03180607,0.0459182875 5.88046583,0.018378695 C7.73160778,-0.0676540816 9.58490427,0.133942564 11.3746987,0.616056133 C13.5894467,1.24195596 15.7634853,2.53887731 16.7032025,4.74221541 C16.8210215,5.01556294 16.9180322,5.29761616 16.9935543,5.58592838 C17.0733288,5.9015526 16.9694576,6.23538481 16.7246911,6.44921495 L16.7096661,6.46207435 C16.0432346,7.05645158 15.2120379,7.43273118 14.3269778,7.54095495 C12.0218528,7.81077468 9.68877551,7.68986221 7.36437306,7.69430041" id="Fill-8" fill="#39334C" mask="url(#mask-4)"></path>
                        </g>
                        <g id="编组" stroke-width="1" fill="none" transform="translate(0.000000, 2.760000)">
                            <path d="M25.906653,11.4168761 C25.906653,11.4168761 25.9238889,11.3568923 25.9518407,11.2470166 C26.2873747,10.023643 28.2053277,2.46563408 25.2552588,0.0658306125 C25.1901704,0.0140110045 25.1060318,-0.00770333889 25.0238208,0.00624373285 C24.9416666,0.0202475 24.8694911,0.0684952969 24.8251538,0.139137782 L23.1156198,2.89997764 C23.0467327,3.01155421 23.0615873,3.15550387 23.1521895,3.25052538 L24.4101303,4.58354795 C24.4730642,4.65022175 24.5002789,4.74297545 24.483213,4.83289438 L24.3886421,5.98987768 C24.3612006,6.27840064 24.3844465,6.5694182 24.4575292,6.84983371 C24.57047,7.32505467 24.8898453,7.72481403 25.3283415,7.94008651 C25.453699,7.96401198 25.5489503,8.06697085 25.5626711,8.19391188 L25.906653,11.4168761 Z M10.9235099,11.4168761 L10.8741267,11.2470166 C10.5385926,10.023643 8.62063963,2.46563408 11.572863,0.0658306125 C11.6375545,0.01270701 11.7221467,-0.00991446002 11.8047546,0.00403261172 C11.8871356,0.0180363789 11.9595946,0.0674180841 12.002968,0.139137782 L13.712502,2.89997764 C13.7783275,3.01314169 13.7605813,3.156411 13.6693555,3.25052538 L12.4115847,4.58354795 C12.3504651,4.65197931 12.3256885,4.74541335 12.3449088,4.8351055 L12.4394797,5.9920888 C12.4676016,6.28044167 12.4450361,6.57140254 12.3728605,6.85204483 C12.2605434,7.32443102 11.9458172,7.72305647 11.5126506,7.94229764 C11.3868395,7.96531597 11.2913614,8.0687851 11.278321,8.19589622 L10.9235099,11.4168761 Z" id="Fill-10" fill="#39334C"></path>
                            <path d="M36.8,34.9018739 L36.8,35.19 L20.2729921,35.19 L20.2729921,27.7564375 L23.9650006,27.7564375 L23.9650006,21.6843021 L22.1243259,21.6843021 L22.1243259,21.0756768 C29.8740965,21.5660354 36.8,27.5952525 36.8,34.9018739 L36.8,34.9018739 Z M16.5272347,27.7564375 L16.5272347,35.19 L0,35.19 L0,34.9018739 C0,27.5737649 6.89602411,21.5272558 14.6735196,21.0672859 L14.6735196,21.6843021 L13.3360326,21.6843021 L13.3360326,27.7564375 L16.5272347,27.7564375 Z" id="Fill-12" fill="#8BA6C8"></path>
                            <path d="M26.0421593,21.6897798 L23.9758297,30.0304122 L20.125,27.715 C20.125,27.715 22.0124623,25.1773982 22.1265371,20.9586925 C23.4575606,21.0342107 24.7735594,21.2800421 26.0421593,21.6897798 Z M10.7514339,21.6682923 L12.8243971,30.0304122 C15.3914657,28.5634707 16.675,27.83 16.675,27.83 C16.675,27.83 14.7875377,25.1687805 14.6735196,20.9500748 C13.340455,21.0172021 12.0217914,21.2585545 10.7514339,21.6682923 Z" id="Fill-14" fill="#FFFFFF"></path>
                        </g>
                    </g>
                </g>
            </g>
        </g>
    </g>
</svg>