<?xml version="1.0" encoding="UTF-8"?>
<svg width="46px" height="46px" viewBox="0 0 46 46" version="1.1" xmlns="http://www.w3.org/2000/svg" xmlns:xlink="http://www.w3.org/1999/xlink">
    <title>休闲男士</title>
    <defs>
        <circle id="path-1" cx="23" cy="23" r="23"></circle>
    </defs>
    <g id="投放页" stroke="none" stroke-width="1" fill="none" fill-rule="evenodd">
        <g id="画板" transform="translate(-313.000000, -1571.000000)">
            <g id="休闲男士" transform="translate(313.000000, 1571.000000)">
                <mask id="mask-2" fill="white">
                    <use xlink:href="#path-1"></use>
                </mask>
                <use id="蒙版" fill="#E2F3FA" xlink:href="#path-1"></use>
                <g id="编组-2" mask="url(#mask-2)">
                    <g transform="translate(9.890000, 8.510000)">
                        <g id="编组" stroke-width="1" fill="none">
                            <path d="M13.225,40.2564722 C25.1344241,40.2564722 26.45,35.9108598 26.45,31.4034585 C26.45,26.8960572 20.5289658,24.7636982 13.225,24.7636982 C5.92103418,24.7636982 0,26.8960572 0,31.4034585 C0,35.9108598 1.31557592,40.2564722 13.225,40.2564722 Z" id="椭圆形" fill="#1A1A1A"></path>
                            <path d="M15.9253927,21.3054897 L15.9253927,24.0720565 C15.9253927,24.2103849 15.9715532,24.3256585 16.0638743,24.4178774 C16.1088806,24.4628338 16.1827098,24.5475393 16.2715969,24.6253699 C16.3338946,24.6799185 16.449296,24.7721374 16.617801,24.9020266 C17.3892312,25.2336623 17.8641361,25.6684983 17.8641361,26.1469816 C17.8641361,27.1401378 15.8181243,27.94525 13.2942408,27.94525 C10.7703574,27.94525 8.72434555,27.1401378 8.72434555,26.1469816 C8.72434555,25.6684435 9.19935915,25.2335628 9.97396528,24.9113681 L9.97068063,24.9020266 L10.3168848,24.6945341 C10.4479187,24.6024847 10.5402398,24.5102658 10.5938482,24.4178774 C10.6340544,24.3485861 10.6570887,24.2664219 10.6629508,24.1713847 L10.663089,21.3054897 L15.9253927,21.3054897 Z" id="形状结合" fill="#FBE5CE"></path>
                            <path d="M17.2007959,4.42812356 C18.2873121,4.86605941 19.2660929,5.40629124 19.9413613,5.74355158 C21.1928801,6.36861814 21.741623,6.67729783 21.741623,12.5216402 C21.741623,18.3659826 17.9596012,23.1037582 13.2942408,23.1037582 C8.62888047,23.1037582 4.84685864,18.3659826 4.84685864,12.5216402 C4.84685864,9.55264187 7.3395288,6.50435744 10.3861257,5.39773073 C10.6487121,5.30235049 11.2575901,4.83629981 11.9092287,4.42843548 Z" id="形状结合" fill="#FFEDDB"></path>
                            <path d="M4.41989439,13.6302327 C3.46663146,10.6767442 3.29666667,8.08833333 3.91,5.865 C4.64339331,3.20644924 7.63900314,1.02548816 9.9475,0.466472223 C12.1365892,-0.0636284451 13.9506173,-0.116112102 15.755,0.178972223 C19.1012135,0.72620379 21.6138836,3.04892652 22.5980409,5.87524567 C23.6079379,8.77548473 23.6079379,11.6757238 22.5980409,14.5759628 C21.9035353,14.3505536 21.5248239,14.0353102 21.4619067,13.6302327 C20.9583847,10.3884264 20.01,5.87147222 17.1925,5.18147222 C15.807737,4.8423466 15.527721,5.39935925 13.2825,6.67647222 C12.100235,7.348961 7.34694369,7.64897998 6.4975,8.80397222 C5.92185414,9.58668038 5.67114889,11.1954339 5.74538423,13.6302327 L4.41989439,13.6302327 Z" id="路径" fill="#919A9F"></path>
                        </g>
                        <ellipse id="椭圆形" fill="#FFEDDB" transform="translate(22.027269, 14.767684) rotate(22.000000) translate(-22.027269, -14.767684) " cx="22.0272689" cy="14.7676836" rx="1.17668806" ry="1.45355584"></ellipse>
                        <ellipse id="椭圆形备份-6" fill="#FFEDDB" transform="translate(4.861467, 14.352382) scale(-1, 1) rotate(22.000000) translate(-4.861467, -14.352382) " cx="4.86146662" cy="14.3523819" rx="1.17668806" ry="1.45355584"></ellipse>
                    </g>
                </g>
            </g>
        </g>
    </g>
</svg>