<?xml version="1.0" encoding="UTF-8"?>
<svg width="46px" height="46px" viewBox="0 0 46 46" version="1.1" xmlns="http://www.w3.org/2000/svg" xmlns:xlink="http://www.w3.org/1999/xlink">
    <title>活波男士</title>
    <defs>
        <circle id="path-1" cx="23" cy="23" r="23"></circle>
    </defs>
    <g id="投放页" stroke="none" stroke-width="1" fill="none" fill-rule="evenodd">
        <g id="画板" transform="translate(-370.000000, -1571.000000)">
            <g id="活波男士" transform="translate(370.000000, 1571.000000)">
                <mask id="mask-2" fill="white">
                    <use xlink:href="#path-1"></use>
                </mask>
                <use id="蒙版" fill="#DDF8F1" xlink:href="#path-1"></use>
                <g id="编组" mask="url(#mask-2)">
                    <g transform="translate(8.970000, 7.820000)">
                        <path d="M21.6633564,3.33958871 L20.4356313,3.33958871 C19.4434349,3.33958871 18.6389877,4.14138103 18.6389877,5.13030299 L18.6389877,6.6895115 C20.5834613,8.13092458 21.8430208,10.4383719 21.8430208,13.0392165 L21.8430208,15.8654113 C22.7509995,15.7755398 23.46,15.0122479 23.46,14.0838744 L23.46,5.13030299 C23.46,4.14138103 22.6555528,3.33958871 21.6633564,3.33958871 M6.51164357,15.87 L9.5360123,15.87 L9.5360123,5.12571429 C9.5360123,4.13679232 8.73178972,3.335 7.73936873,3.335 L6.51164357,3.335 C5.51944716,3.335 4.715,4.13679232 4.715,5.12571429 L4.715,14.0792857 C4.715,15.0682077 5.51944716,15.87 6.51164357,15.87" id="Fill-1" fill="#8C4C17"></path>
                        <path d="M19.32,13.7424151 C19.32,14.6669084 19.8130917,15.5210401 20.6137217,15.9833999 C21.4144083,16.4455334 22.4008181,16.4455334 23.2012217,15.9833999 C24.0019083,15.5210401 24.495,14.6669084 24.495,13.7424151 C24.495,12.8180916 24.0019083,11.9637335 23.2012217,11.5016001 C22.4008181,11.0394666 21.4144083,11.0394666 20.6137217,11.5016001 C19.8130917,11.9637335 19.32,12.8180916 19.32,13.7424151" id="Fill-3" fill="#FFEACF"></path>
                        <path d="M3.22,13.7423585 C3.22,15.1714086 4.37843424,16.33 5.8075,16.33 C7.23656576,16.33 8.395,15.1714086 8.395,13.7423585 C8.395,12.8180552 7.90190835,11.9637158 7.1012217,11.5015925 C6.30081807,11.0394692 5.31440835,11.0394692 4.5137217,11.5015925 C3.71309165,11.9637158 3.22,12.8180552 3.22,13.7423585" id="Fill-5" fill="#FFEACF"></path>
                        <path d="M28.06,38.18 L0,38.18 L0,34.4180703 C0,29.6997101 3.81721584,25.875 8.52570433,25.875 L19.5342957,25.875 C24.2430085,25.875 28.06,29.6997101 28.06,34.4180703 L28.06,38.18 Z" id="Fill-7" fill="#FFC34C"></path>
                        <path d="M14.0298872,31.05 C11.8704037,31.05 10.12,29.3157468 10.12,27.1766874 L10.12,17.94 L17.94,17.94 L17.94,27.1766874 C17.9397744,29.3157468 16.1893707,31.05 14.0298872,31.05" id="Fill-9" fill="#FBE5CE"></path>
                        <path d="M7.8955599,34.7097186 C8.76889488,34.5704629 9.36357998,33.7540656 9.2236937,32.8860612 L7.99991327,25.2909944 C7.95298513,24.9989816 7.67646835,24.7999732 7.38266225,24.8468381 L5.28375056,25.1809177 C4.98994446,25.2277826 4.78977011,25.5023885 4.83686666,25.7944013 L6.06064708,33.3894681 C6.20053336,34.2577515 7.02194426,34.8488068 7.8955599,34.7097186 M20.2794813,34.7097186 C19.4060902,34.5704629 18.8114612,33.7540656 18.9513475,32.8860612 L20.1751279,25.2909944 C20.2220561,24.9989816 20.4985167,24.7999732 20.792379,24.8468381 L22.8912345,25.1809177 C23.1850967,25.2277826 23.3852711,25.5023885 23.3381184,25.7944013 L22.1143941,33.3894681 C21.9744517,34.2577515 21.1528724,34.8488068 20.2794813,34.7097186" id="Fill-11" fill="#CCC033"></path>
                        <path d="M24.15,38.18 L4.025,38.18 L4.025,34.3244971 C4.025,33.3415474 4.8277522,32.545 5.81785808,32.545 L22.3571419,32.545 C23.3472478,32.545 24.15,33.3415474 24.15,34.3244971 L24.15,38.18 Z" id="Fill-13" fill="#CCC033"></path>
                        <path d="M14.03,22.885 C9.64764905,22.885 6.095,19.3349282 6.095,14.9556573 L6.095,10.9191183 C6.095,6.53979128 9.64764905,2.99 14.03,2.99 C18.412351,2.99 21.965,6.53979128 21.965,10.9191183 L21.965,14.9556573 C21.965,19.3349282 18.412351,22.885 14.03,22.885" id="Fill-15" fill="#FFEACF"></path>
                        <path d="M21.62,7.13 L6.13030979,7.13 C4.3958494,7.13 2.99,5.73252803 2.99,4.00852776 L2.99,0.981089873 C2.99,0.439124255 3.43183037,0 3.97678628,0 L17.7619051,0 C19.8928296,0 21.62,1.71703269 21.62,3.83495161 L21.62,7.13 Z" id="Fill-17" fill="#8C4C17"></path>
                    </g>
                </g>
            </g>
        </g>
    </g>
</svg>