<?xml version="1.0" encoding="UTF-8"?>
<svg width="46px" height="46px" viewBox="0 0 46 46" version="1.1" xmlns="http://www.w3.org/2000/svg" xmlns:xlink="http://www.w3.org/1999/xlink">
    <title>干练女生</title>
    <defs>
        <circle id="path-1" cx="23" cy="23" r="23"></circle>
        <polygon id="path-3" points="0 0 25.53 0 25.53 22.54 0 22.54"></polygon>
    </defs>
    <g id="投放页" stroke="none" stroke-width="1" fill="none" fill-rule="evenodd">
        <g id="画板" transform="translate(-427.000000, -1628.000000)">
            <g id="干练女生" transform="translate(427.000000, 1628.000000)">
                <mask id="mask-2" fill="white">
                    <use xlink:href="#path-1"></use>
                </mask>
                <use id="蒙版" fill="#FFDEE4" xlink:href="#path-1"></use>
                <g id="编组" mask="url(#mask-2)">
                    <g transform="translate(4.370000, 9.200000)">
                        <g id="编组" stroke-width="1" fill="none" transform="translate(5.980000, 0.000000)">
                            <mask id="mask-4" fill="white">
                                <use xlink:href="#path-3"></use>
                            </mask>
                            <g id="Clip-2"></g>
                            <path d="M24.3552474,8.89647853 C23.364347,6.94802231 22.1515361,5.12080722 20.7408565,3.4513614 C19.3260834,1.80332465 17.5768591,-0.00427027276 15.3247184,-7.5514851e-06 C14.4585814,0.0115412777 13.5980368,0.140226524 12.7663193,0.382997302 C11.9348324,0.140226524 11.0743455,0.0115412777 10.2081508,-7.5514851e-06 C7.95583718,-0.00427027276 6.20661288,1.80332465 4.79633682,3.4513614 C3.38559954,5.12167282 2.17128964,6.94871479 1.17739124,8.89647853 C0.302894397,10.6364993 -0.285350017,12.7003683 0.143250294,14.6788895 C0.482198535,16.2457334 3.80584001,21.0123388 2.30147252,22.4437457 L5.55056729,22.4897377 L9.07109739,22.54 L9.07109739,22.1024702 C7.7411911,21.0297084 6.66133048,19.6792635 5.90710002,18.1455431 C5.30801664,16.5894903 4.19725345,13.9870476 4.94272049,11.8490259 C4.94272049,11.8249046 4.95805647,11.8007834 4.96681989,11.7745847 C4.9931678,11.7067797 5.01703658,11.6366664 5.045633,11.5557043 C5.08708627,11.4484282 5.13078805,11.3368817 5.17448983,11.2340489 C5.21836457,11.131043 5.29700472,10.9581547 5.36048184,10.8204095 C5.423786,10.6824913 5.51793509,10.494253 5.60101459,10.3321558 C5.6840941,10.1703471 5.79334855,9.9710869 5.89827895,9.79387058 C6.003267,9.61671196 6.11696081,9.40862273 6.25031466,9.22044219 C6.38384147,9.03220395 6.51719532,8.82867352 6.65925494,8.63841556 C6.8013722,8.44792677 6.96534036,8.24866661 7.12930852,8.06492947 C7.29344964,7.88101921 7.47275378,7.69278097 7.65857282,7.51989263 C7.84502607,7.34406126 8.04139581,7.17884787 8.24681724,7.02534888 C8.45604384,6.8711574 8.67512928,6.73070005 8.90263221,6.60513095 C9.13163416,6.47667653 9.3699184,6.36553403 9.61564002,6.27245362 C9.8671847,6.17891157 10.1261668,6.10585528 10.3897035,6.05357329 C10.666443,6.0012913 10.9472759,5.97261123 11.229262,5.96834095 C11.5314846,5.96274343 11.8339378,5.98478727 12.1323552,6.03395312 C12.2809874,6.05582384 12.4253532,6.09298675 12.5694883,6.11935857 C12.6355022,6.1286493 12.7019197,6.13378517 12.7685678,6.13447765 L12.7663193,6.13447765 C12.8330251,6.13378517 12.8994425,6.1286493 12.9653988,6.11935857 C13.1117825,6.09298675 13.2561482,6.05582384 13.4027625,6.03395312 C13.7011799,5.98461416 14.0034026,5.96274343 14.3056252,5.96834095 C14.5876112,5.97261123 14.8684441,6.0012913 15.1454719,6.05357329 C15.4087204,6.10585528 15.6677024,6.17891157 15.9195354,6.27245362 C16.1647958,6.36599568 16.4030223,6.47713818 16.6323126,6.60513095 C16.8597578,6.73070005 17.0789009,6.8711574 17.2883581,7.02534888 C17.4934913,7.17884787 17.6899187,7.34406126 17.8763719,7.51989263 C18.0624216,7.69278097 18.2371711,7.87449838 18.4056363,8.06492947 C18.5738708,8.25541826 18.7247515,8.44140595 18.8736143,8.63841556 C19.0222465,8.83519434 19.1532942,9.02343258 19.2846301,9.22044219 C19.4156778,9.4174518 19.5251629,9.59911152 19.6366082,9.79387058 C19.7481111,9.98862964 19.8400117,10.1507269 19.9318546,10.3321558 C20.0237552,10.5138732 20.0958228,10.6561194 20.1744053,10.8204095 L20.3604549,11.2340489 C20.4041567,11.3434025 20.4478585,11.4526984 20.4894847,11.5557043 C20.5178505,11.6255868 20.5419499,11.6957 20.5658187,11.7745847 L20.5922243,11.8490259 C21.3378643,13.9827773 20.2269281,16.5894903 19.6278447,18.1455431 C18.8736143,19.6792635 17.793696,21.0297084 16.4638474,22.1024702 L16.4638474,22.54 L19.982129,22.4897377 L23.2292058,22.4437457 C21.7247807,21.0123388 25.0484222,16.2457334 25.3873704,14.6788895 C25.8137222,12.7003683 25.2299748,10.6364993 24.3552474,8.89647853" id="Fill-1" fill="#39334C" mask="url(#mask-4)"></path>
                        </g>
                        <path d="M22.5005951,20.125 L14.9291089,20.125 L14.9291089,24.5233586 C7.03435111,24.9932301 0,31.1295136 0,38.5750623 L0,38.87 L37.375,38.87 L37.375,38.5750623 C37.375,31.1468629 30.3647186,25.019571 22.5005951,24.5190934 L22.5005951,20.125 Z" id="Fill-3" fill="#FBE5CE"></path>
                        <path d="M26.6142752,12.3087998 C26.0966146,7.18852666 22.5210247,3.22 18.7091817,3.22 C14.860478,3.22 11.2104183,7.13186547 10.7451689,12.3087998 C10.7118792,12.6795999 10.695,13.0514928 10.695,13.4235584 C10.6940824,14.5619018 10.8551746,15.6946654 11.1732697,16.7878524 C12.3528654,20.78238 15.502543,23.575 18.7704048,23.575 C22.0796195,23.575 25.172624,20.8151687 26.2649061,16.7660508 C26.5418211,15.7276842 26.6813153,14.6574493 26.68,13.5829 C26.68,13.1465226 26.6559161,12.7254465 26.6142752,12.3087998" id="Fill-5" fill="#FFEDDB"></path>
                        <path d="M26.5870828,12.19 C26.630835,12.6071999 26.6561302,13.0310815 26.6561302,13.4635455 C26.6582482,14.5403856 26.5114393,15.6127328 26.22,16.6531694 C28.030724,16.0873028 27.9321454,14.1212273 27.9321454,14.1212273 C28.0514806,12.670618 27.319433,12.2554917 26.5870828,12.19 M10.8079326,12.19 C10.0604688,12.2620005 9.32251612,12.6816773 9.44299058,14.110168 C9.44299058,14.110168 9.33687608,16.1309063 11.27,16.675 C10.9266664,15.5803614 10.7527928,14.4460937 10.7537875,13.3062388 C10.7537875,12.9284951 10.7726854,12.5570299 10.8079326,12.19" id="Fill-7" fill="#FFEDDB"></path>
                        <path d="M25.609827,6.77530701 C25.4147169,6.6236975 25.2196068,6.48315312 25.02652,6.33583062 C25.3139534,5.63791709 25.2360828,4.84227133 24.8187494,4.21335548 C24.4014161,3.58449756 23.6993665,3.20498137 22.9458078,3.20069436 C22.7913384,3.2002309 22.636869,3.21587269 22.485348,3.24686661 C22.4754046,3.08164295 22.4281735,2.92076424 22.3473545,2.77662803 C21.5536176,1.39887593 17.7758231,2.09771638 13.9084225,4.33443453 C12.4055253,5.20504501 11.0693534,6.33675754 9.96170599,7.67621622 C9.3501875,8.41891162 8.74924832,9.21415185 8.40510296,10.1193481 C8.13096601,10.8466334 7.90515856,12.0485023 8.83261093,12.4287136 C9.22936375,12.558135 9.65525302,12.5697215 10.058365,12.4615035 C10.9417658,12.2531201 11.7974177,11.9410374 12.608093,11.5320914 C14.9891881,10.4336322 17.3110853,9.19671415 19.6461054,8.00365104 C20.4793846,7.57732534 21.5097973,7.22584851 22.1784325,6.55556881 C22.1784325,6.72484775 22.5907941,7.52460672 22.6565246,7.65425978 C23.5927641,9.55473736 25.0440944,10.9498692 26.6686825,12.2528883 C26.7346441,12.2528883 27.545782,12.624236 27.9644449,12.077063 C28.5938268,11.2596346 27.8131551,8.49358669 25.609827,6.77530701" id="Fill-9" fill="#39334C"></path>
                        <path d="M32.9723692,28.98 L4.39612395,28.98 C1.7121758,31.5078972 0,34.880127 0,38.5731765 L0,38.87 L37.375,38.87 L37.375,38.5731765 C37.375,34.880127 35.6608088,31.5078972 32.9723692,28.98" id="Fill-11" fill="#EE95A5"></path>
                    </g>
                </g>
            </g>
        </g>
    </g>
</svg>