<?xml version="1.0" encoding="UTF-8"?>
<svg width="46px" height="46px" viewBox="0 0 46 46" version="1.1" xmlns="http://www.w3.org/2000/svg" xmlns:xlink="http://www.w3.org/1999/xlink">
    <title>优雅女士</title>
    <defs>
        <circle id="path-1" cx="23" cy="23" r="23"></circle>
        <polygon id="path-3" points="0 0 30.935 0 30.935 21.85 0 21.85"></polygon>
    </defs>
    <g id="投放页" stroke="none" stroke-width="1" fill="none" fill-rule="evenodd">
        <g id="画板" transform="translate(-370.000000, -1628.000000)">
            <g id="优雅女士" transform="translate(370.000000, 1628.000000)">
                <mask id="mask-2" fill="white">
                    <use xlink:href="#path-1"></use>
                </mask>
                <use id="蒙版" fill="#DDEDC8" xlink:href="#path-1"></use>
                <g id="编组" mask="url(#mask-2)">
                    <g transform="translate(7.590000, 7.820000)">
                        <g id="编组" stroke-width="1" fill="none" transform="translate(0.000000, 5.060000)">
                            <mask id="mask-4" fill="white">
                                <use xlink:href="#path-3"></use>
                            </mask>
                            <g id="Clip-2"></g>
                            <path d="M15.3968798,0 C22.5741581,0 28.3924631,3.37663237 28.3924631,7.54172844 C28.3924631,8.11283714 28.2830584,8.66913803 28.0757083,9.20395716 C29.8466649,10.4990495 30.935,12.0617601 30.935,13.7443582 C30.935,18.2209397 23.2298203,21.85 15.4674826,21.85 C7.70517972,21.85 0,18.2209397 0,13.7443582 C0,12.0966592 1.04385567,10.5638076 2.75030489,9.28449635 C2.5219865,8.72520609 2.40129646,8.14161852 2.40129646,7.54172844 C2.40129646,3.37663237 8.21974076,0 15.3968798,0" id="Fill-1" fill="#4D4132" mask="url(#mask-4)"></path>
                        </g>
                        <path d="M13.7007994,0 L17.2342355,0 C22.2281366,0 24.725,2.4916145 24.725,7.47491306 C24.725,12.4582464 22.2281366,14.95 17.2342355,14.95 L13.7007994,14.95 C8.70689828,14.95 6.21,12.4582464 6.21,7.47491306 C6.21,2.4916145 8.70689828,0 13.7007994,0" id="Fill-5" fill="#4D4132"></path>
                    </g>
                </g>
                <g id="编组-3备份-2" mask="url(#mask-2)">
                    <g transform="translate(10.120000, 15.640000)">
                        <path d="M12.995,34.155 C24.6973037,34.155 25.99,29.887593 25.99,25.4613087 C25.99,21.0350245 20.1719403,18.9410403 12.995,18.9410403 C5.81805968,18.9410403 0,21.0350245 0,25.4613087 C0,29.887593 1.29269634,34.155 12.995,34.155 Z" id="椭圆形" fill="#BE83FF"></path>
                        <path d="M14.72,26.335 C15.5633333,24.495 16.7398619,22.1739257 18.2495858,19.3717772 C17.1615286,18.9539257 15.5058333,18.7833333 13.2825,18.86 C11.0591667,18.9366667 9.25663688,19.099344 7.87491063,19.3480321 C10.2916369,24.0060107 11.5,26.335 11.5,26.335 C11.4431318,26.3253561 11.9606318,25.7886894 13.0525,24.725 C14.1641667,25.7983333 14.72,26.335 14.72,26.335 Z" id="椭圆形" fill="#FFFFFF"></path>
                        <path d="M10.477644,15.5450671 L15.6484293,15.5450671 L15.6484293,18.2618456 C15.6484293,18.3976846 15.6937871,18.5108837 15.7845026,18.601443 C15.8287262,18.6455903 15.9012713,18.7287714 15.9886126,18.8052013 C16.0498268,18.8587683 16.1632212,18.9493276 16.3287958,19.0768792 L13.0525,24.725 L9.8325,19.09 L10.1374607,18.8731208 C10.2662158,18.782728 10.3569313,18.6921687 10.4096073,18.601443 C10.4622834,18.5107172 10.4849622,18.3975181 10.477644,18.2618456 L10.477644,15.5450671 Z" id="形状结合" fill="#FBE5CE"></path>
                        <path d="M13.0630366,17.3109732 C17.6472603,17.3109732 21.3635079,12.6584605 21.3635079,6.9192953 C21.3635079,4.60885133 18.061202,4.24071368 17.02,3.6225 C15.18,2.53 13.0525,0 13.0525,0 C13.0525,0 11.3275,2.3575 9.545,3.335 C6.73947991,4.87351102 4.76256545,4.00372827 4.76256545,6.9192953 C4.76256545,12.6584605 8.47881299,17.3109732 13.0630366,17.3109732 Z" id="形状结合" fill="#FFEDDB"></path>
                        <ellipse id="椭圆形备份-7" fill="#FFEDDB" transform="translate(21.631191, 9.092718) rotate(22.000000) translate(-21.631191, -9.092718) " cx="21.6311913" cy="9.09271812" rx="1.15463087" ry="1.42630872"></ellipse>
                        <ellipse id="椭圆形备份-8" fill="#FFEDDB" transform="translate(4.787164, 8.685201) scale(-1, 1) rotate(22.000000) translate(-4.787164, -8.685201) " cx="4.78716443" cy="8.68520134" rx="1.15463087" ry="1.42630872"></ellipse>
                    </g>
                </g>
            </g>
        </g>
    </g>
</svg>