<?xml version="1.0" encoding="UTF-8"?>
<svg width="46px" height="46px" viewBox="0 0 46 46" version="1.1" xmlns="http://www.w3.org/2000/svg" xmlns:xlink="http://www.w3.org/1999/xlink">
    <title>可爱女生</title>
    <defs>
        <circle id="path-1" cx="23" cy="23" r="23"></circle>
    </defs>
    <g id="投放页" stroke="none" stroke-width="1" fill="none" fill-rule="evenodd">
        <g id="画板" transform="translate(-258.000000, -1571.000000)">
            <g id="可爱女生" transform="translate(258.000000, 1571.000000)">
                <g id="IMG_2486"></g>
                <mask id="mask-2" fill="white">
                    <use xlink:href="#path-1"></use>
                </mask>
                <use id="蒙版" fill="#DDDDFF" xlink:href="#path-1"></use>
                <g id="编组-3" mask="url(#mask-2)">
                    <g transform="translate(10.120000, 8.970000)">
                        <g id="编组备份" stroke-width="1" fill="none">
                            <path d="M12.995,0 C19.5750663,-1.20873857e-15 24.909264,5.33419769 24.909264,11.914264 L24.909264,23.6359732 L24.909264,23.6359732 L1.080736,23.6359732 L1.080736,11.914264 C1.080736,5.33419769 6.41493369,1.20873857e-15 12.995,0 Z" id="矩形" fill="#613325"></path>
                            <path d="M12.995,40.48 C24.6973037,40.48 25.99,36.212593 25.99,31.7863087 C25.99,27.3600245 20.1719403,25.2660403 12.995,25.2660403 C5.81805968,25.2660403 0,27.3600245 0,31.7863087 C0,36.212593 1.29269634,40.48 12.995,40.48 Z" id="椭圆形" fill="#FF7B54"></path>
                            <path d="M15.6484293,21.8700671 L15.6484293,24.5868456 C15.6484293,24.7226846 15.6937871,24.8358837 15.7845026,24.926443 C15.8287262,24.9705903 15.9012713,25.0537714 15.9886126,25.1302013 C16.0498268,25.1837683 16.1632212,25.2743276 16.3287958,25.4018792 L16.3264691,25.4114272 C17.0870712,25.7277859 17.5534555,26.1546888 17.5534555,26.6244295 C17.5534555,27.5997125 15.5430265,28.3903356 13.0630366,28.3903356 C10.5830468,28.3903356 8.5726178,27.5997125 8.5726178,26.6244295 C8.5726178,26.1546384 9.03910209,25.7276944 9.79984895,25.4113254 L9.79727749,25.4018792 L10.1374607,25.1981208 C10.2662158,25.107728 10.3569313,25.0171687 10.4096073,24.926443 C10.4622834,24.8357172 10.4849622,24.7225181 10.477644,24.5868456 L10.477644,21.8700671 L15.6484293,21.8700671 Z" id="形状结合" fill="#FBE5CE"></path>
                            <path d="M21.3501715,11.8166044 C21.3590997,12.2508917 21.3635079,12.7253727 21.3635079,13.2442953 C21.3635079,18.9834605 17.6472603,23.6359732 13.0630366,23.6359732 C8.47881299,23.6359732 4.76256545,18.9834605 4.76256545,13.2442953 C4.76256545,12.7678161 4.82798195,12.2892574 4.95049992,11.8172814 Z" id="形状结合" fill="#FFEDDB"></path>
                        </g>
                        <ellipse id="椭圆形备份-7" fill="#FFEDDB" transform="translate(21.631191, 15.417718) rotate(22.000000) translate(-21.631191, -15.417718) " cx="21.6311913" cy="15.4177181" rx="1.15463087" ry="1.42630872"></ellipse>
                        <ellipse id="椭圆形备份-8" fill="#FFEDDB" transform="translate(4.787164, 15.010201) scale(-1, 1) rotate(22.000000) translate(-4.787164, -15.010201) " cx="4.78716443" cy="15.0102013" rx="1.15463087" ry="1.42630872"></ellipse>
                    </g>
                </g>
            </g>
        </g>
    </g>
</svg>