<?xml version="1.0" encoding="UTF-8"?>
<svg width="15px" height="15px" viewBox="0 0 15 15" version="1.1" xmlns="http://www.w3.org/2000/svg" xmlns:xlink="http://www.w3.org/1999/xlink">
    <title>Combined shape 1297</title>
    <g id="B/C搜索推荐优化" stroke="none" stroke-width="1" fill="none" fill-rule="evenodd">
        <g id="1.1搜索-职位" transform="translate(-330.000000, -115.000000)" fill="#CCCCCC">
            <g id="搜索框" transform="translate(0.000000, 88.000000)">
                <g transform="translate(16.000000, 16.000000)" id="Combined-shape-1297">
                    <path d="M321.49997,11 C325.639985,11 329,14.359925 329,18.499925 C329,22.639925 325.639985,26 321.49997,26 C317.359985,26 314,22.639925 314,18.499925 C314,14.359925 317.359985,11 321.49997,11 Z M324.58247,15.552425 C324.424985,15.39494 324.15497,15.39494 323.98997,15.552425 L323.98997,15.552425 L323.973668,15.5687271 C323.957366,15.5850292 323.928838,15.6135578 323.888083,15.654313 L323.729138,15.8132583 C323.707402,15.8349944 323.684308,15.8580891 323.659855,15.8825422 L323.496835,16.045563 C323.466948,16.0754502 323.435703,16.1066958 323.403099,16.1393 L323.191173,16.3512271 C323.039021,16.5033799 322.865133,16.6772687 322.66951,16.8728937 L322.017431,17.5249771 C321.897883,17.6445257 321.772901,17.7695083 321.642485,17.899925 C321.380818,17.6390917 321.140957,17.3999944 320.922902,17.1826333 L320.612172,16.8728938 C320.415923,16.6772687 320.241478,16.5033799 320.088839,16.3512271 L319.696339,15.9599771 C319.614568,15.8784667 319.545063,15.8091828 319.487824,15.7521255 L319.287485,15.552425 C319.12997,15.39494 318.85247,15.39494 318.694985,15.552425 C318.53747,15.709925 318.53747,15.98744 318.694985,16.144925 L318.694985,16.144925 L320.330402,17.7803417 C320.439429,17.8893694 320.553909,18.0038486 320.673839,18.1237792 L321.049985,18.499925 C320.590607,18.9578417 320.198222,19.3489788 319.872829,19.6733365 L319.610327,19.9350031 C319.364232,20.1803156 319.167356,20.3765656 319.019699,20.5237531 L318.724384,20.8181281 C318.716181,20.8263052 318.709345,20.8331194 318.703876,20.8385708 L318.68747,20.854925 C318.529985,21.012455 318.529985,21.28994 318.68747,21.447425 C318.844985,21.604955 319.122485,21.604955 319.27997,21.447425 C319.27997,21.447425 319.292236,21.4351203 319.316767,21.4105109 L319.480309,21.2464484 C319.575708,21.1507453 319.705178,21.0208625 319.86872,20.8568 L320.081324,20.6435187 C320.119484,20.6052375 320.159006,20.5655891 320.199892,20.5245734 L320.461559,20.2620734 C320.554232,20.1691047 320.652357,20.0706672 320.755934,19.9667609 L321.083017,19.6386359 C321.254736,19.4663703 321.43872,19.2818 321.63497,19.084925 L321.63497,19.084925 L323.997485,21.447425 C324.15497,21.604955 324.43247,21.604955 324.589985,21.447425 C324.74747,21.28994 324.74747,21.012455 324.59747,20.862425 L324.59747,20.862425 L322.234985,18.499925 C322.365401,18.3690917 322.490383,18.2437097 322.609931,18.1237792 L322.952272,17.7803417 C323.332652,17.3987444 323.646465,17.0839267 323.893711,16.8358885 L324.089335,16.6396385 C324.178996,16.5496906 324.25643,16.4720083 324.321638,16.4065917 L324.517262,16.2103417 C324.560734,16.1667306 324.58247,16.144925 324.58247,16.144925 C324.739985,15.98744 324.739985,15.709925 324.58247,15.552425 Z"></path>
                </g>
            </g>
        </g>
    </g>
</svg>