<?xml version="1.0" encoding="UTF-8"?>
<svg width="8px" height="5px" viewBox="0 0 8 5" version="1.1" xmlns="http://www.w3.org/2000/svg" xmlns:xlink="http://www.w3.org/1999/xlink">
    <title>ic_xl</title>
    <g id="B/C搜索推荐优化" stroke="none" stroke-width="1" fill="none" fill-rule="evenodd">
        <g id="1.1搜索-职位" transform="translate(-68.000000, -120.000000)" fill="#333333">
            <g id="搜索框" transform="translate(0.000000, 88.000000)">
                <g transform="translate(16.000000, 16.000000)" id="ic_xl">
                    <path d="M56.356848,20.86591 C58.720032,18.0887767 59.901624,16.70021 59.901624,16.70021 C60.041792,16.528635 60.028168,16.265295 59.871168,16.11202 C59.718728,15.96324 59.486024,15.972385 59.343672,16.13288 C59.343672,16.13288 58.2530373,17.4145167 56.071768,19.97779 C53.7944667,17.4103533 52.655816,16.126635 52.655816,16.126635 C52.509312,15.961545 52.268232,15.95753 52.117152,16.11763 C51.966144,16.277785 51.962512,16.541415 52.109016,16.706455 C52.109016,16.706455 55.803872,20.872155 55.803872,20.872155 C55.950136,21.03734 56.191128,21.0416 56.342208,20.881785 C56.34712,20.876605 56.35184,20.87133 56.356424,20.86591"></path>
                </g>
            </g>
        </g>
    </g>
</svg>