<?xml version="1.0" encoding="UTF-8"?>
<svg width="301px" height="161px" viewBox="0 0 301 161" version="1.1" xmlns="http://www.w3.org/2000/svg" xmlns:xlink="http://www.w3.org/1999/xlink">
    <title>upload_error_Image@2xpng@2x</title>
    <defs>
        <linearGradient x1="50%" y1="19.4128898%" x2="50%" y2="116.680684%" id="linearGradient-1">
            <stop stop-color="#EEF1FB" offset="0%"></stop>
            <stop stop-color="#FFFFFF" stop-opacity="0" offset="100%"></stop>
        </linearGradient>
        <rect id="path-2" x="0" y="0" width="28" height="28"></rect>
        <linearGradient x1="99.8224624%" y1="100%" x2="99.8224624%" y2="0.749271207%" id="linearGradient-4">
            <stop stop-color="#8F95A8" offset="0%"></stop>
            <stop stop-color="#7B8195" offset="100%"></stop>
        </linearGradient>
        <linearGradient x1="150.587194%" y1="47.5757946%" x2="63.9679858%" y2="106.272137%" id="linearGradient-5">
            <stop stop-color="#E5E9F0" offset="0%"></stop>
            <stop stop-color="#D2DAE8" offset="100%"></stop>
        </linearGradient>
    </defs>
    <g id="注册/登录" stroke="none" stroke-width="1" fill="none" fill-rule="evenodd">
        <g id="2.5.1-解析失败-文件格式不对" transform="translate(-37.000000, -171.000000)">
            <g id="upload_error_Image@2xpng" transform="translate(37.500000, 171.593026)">
                <rect id="矩形" fill-opacity="0" fill="#FFFFFF" x="0" y="0" width="300" height="160"></rect>
                <ellipse id="椭圆形" fill="url(#linearGradient-1)" cx="150" cy="130" rx="150" ry="30"></ellipse>
                <g id="empty-1" transform="translate(126.500000, 18.764790)">
                    <path d="M91.7743106,16.8671328 L12.2076852,16.8671328 C11.1342783,16.8671328 10.1049476,17.2944803 9.34588499,18.0535429 C8.5868842,18.8126055 8.15947489,19.8418744 8.15947489,20.9153431 L8.15947489,93.918324 C8.15947489,94.9921018 8.5868842,96.0213707 9.34588499,96.7804951 C10.1049476,97.5396195 11.1342783,97.9667816 12.2076852,97.9667816 L91.7743106,97.9667816 C92.8480884,97.9667816 93.8773573,97.5396195 94.6364817,96.7804951 C95.3956061,96.0213707 95.8233864,94.9921018 95.8233864,93.918324 L95.8233864,20.9153431 C95.8233864,19.8418125 95.3956061,18.8124819 94.6364817,18.0534192 C93.8773573,17.2943566 92.8480884,16.8671328 91.7743106,16.8671328 Z" id="路径" fill="#B6C6F6" fill-rule="nonzero"></path>
                    <polygon id="路径" fill="#B6C6F6" fill-rule="nonzero" points="95.8233864 52.2221166 95.8233864 22.105895 90.5849333 16.8671328 90.5849333 52.2216839 95.8233864 52.2216839"></polygon>
                    <path d="M86.5364757,72.5985494 L17.4465092,72.5985494 C15.2109248,72.5985494 13.3982989,70.7860471 13.3982989,68.55071 L13.3982989,4.04821646 C13.3982989,1.81258884 15.2109248,0 17.4465092,0 L86.5364757,0 C88.772431,0 90.5849333,1.81258884 90.5849333,4.04821646 L90.5849333,68.55071 C90.5849333,70.7860471 88.772431,72.5985494 86.5364757,72.5985494 Z" id="路径" fill="#F3F5FF" fill-rule="nonzero"></path>
                    <path d="M14.6799705,69.8315779 L14.6799705,5.32992512 C14.6799705,3.09427277 16.4925964,1.28168392 18.7282426,1.28168392 L87.81858,1.28168392 C88.6079952,1.28168392 89.3417743,1.51118306 89.964281,1.9020456 C89.2490474,0.76081824 87.9830157,0 86.5364757,0 L17.4465092,0 C15.2109248,0 13.3982989,1.81258884 13.3982989,4.04821646 L13.3982989,68.55071 C13.3982989,69.99725 14.1591542,71.2626635 15.3003754,71.9785153 C14.9095005,71.3560086 14.6799705,70.6216113 14.6799705,69.8321961 L14.6799705,69.8315779 Z" id="路径" fill="#FFFFFF" fill-rule="nonzero"></path>
                    <path d="M76.5516713,13.6283049 L27.4320554,13.6283049 C26.6123444,13.6283049 25.9478373,14.292812 25.9478373,15.112523 C25.9478373,15.932234 26.6123444,16.5967411 27.4320554,16.5967411 L76.5516713,16.5967411 C77.3713823,16.5967411 78.0358894,15.932234 78.0358894,15.112523 C78.0358894,14.292812 77.3713823,13.6283049 76.5516713,13.6283049 Z" id="路径" fill="#FFFFFF" fill-rule="nonzero"></path>
                    <path d="M76.5516713,24.9628115 L27.4320554,24.9628115 C26.6123444,24.9628115 25.9478373,25.6273186 25.9478373,26.4470296 C25.9478373,27.2667406 26.6123444,27.9312477 27.4320554,27.9312477 L76.5516713,27.9312477 C77.3713823,27.9312477 78.0358894,27.2667406 78.0358894,26.4470296 C78.0358894,25.6273186 77.3713823,24.9628115 76.5516713,24.9628115 Z" id="路径" fill="#FFFFFF" fill-rule="nonzero"></path>
                    <path d="M76.5516713,36.2998527 L27.4320554,36.2998527 C26.6123444,36.2998527 25.9478373,36.9643598 25.9478373,37.7840708 C25.9478373,38.6037818 26.6123444,39.2682888 27.4320554,39.2682888 L76.5516713,39.2682888 C77.3713823,39.2682888 78.0358894,38.6037818 78.0358894,37.7840708 C78.0358894,36.9643598 77.3713823,36.2998527 76.5516713,36.2998527 Z" id="路径" fill="#FFFFFF" fill-rule="nonzero"></path>
                    <path d="M76.5514549,47.6342975 L27.4322718,47.6342975 C26.6124413,47.6342975 25.9478373,48.2989014 25.9478373,49.1187319 C25.9478373,49.9385624 26.6124413,50.6031664 27.4322718,50.6031664 L76.5514549,50.6031664 C77.3712854,50.6031664 78.0358894,49.9385624 78.0358894,49.1187319 C78.0358894,48.2989014 77.3712854,47.6342975 76.5514549,47.6342975 Z" id="路径" fill="#FFFFFF" fill-rule="nonzero"></path>
                    <path d="M101.958818,54.9462483 L96.3154572,94.8981385 C96.0329492,96.8954765 94.3236829,98.3803437 92.3065632,98.3803437 L11.675989,98.3803437 C9.65899291,98.3803437 7.94966477,96.8954765 7.66746583,94.8981385 L0.0405090135,40.9133881 C-0.303530443,38.4762773 1.58763952,36.29874 4.04900775,36.29874 L28.9494697,36.29874 C30.9664658,36.29874 32.6757939,37.7831744 32.957931,39.7800796 L33.9574655,46.8498277 C34.2396644,48.8471657 35.9489926,50.3316001 37.9659886,50.3316001 L97.9511602,50.3316001 C100.412133,50.3316001 102.303762,52.5091374 101.959436,54.9462483 L101.958818,54.9462483 Z" id="路径" fill="#94ACF7" fill-rule="nonzero"></path>
                    <g id="编组-5" transform="translate(37.991431, 60.338713)">
                        <mask id="mask-3" fill="white">
                            <use xlink:href="#path-2"></use>
                        </mask>
                        <use id="蒙版" fill-opacity="0" fill="#D5DFFE" xlink:href="#path-2"></use>
                        <g mask="url(#mask-3)" fill="#D5DFFE" fill-rule="nonzero">
                            <g transform="translate(14.000000, 14.000000) rotate(-315.000000) translate(-14.000000, -14.000000) translate(-3.000000, -3.000000)">
                                <path d="M17,0 C18.0543618,0 18.9181651,0.815877791 18.9945143,1.85073766 L19,2 L19,32 C19,33.1045695 18.1045695,34 17,34 C15.9456382,34 15.0818349,33.1841222 15.0054857,32.1492623 L15,32 L15,2 C15,0.8954305 15.8954305,0 17,0 Z" id="路径-2"></path>
                                <path d="M17,0 C18.0543618,0 18.9181651,0.815877791 18.9945143,1.85073766 L19,2 L19,32 C19,33.1045695 18.1045695,34 17,34 C15.9456382,34 15.0818349,33.1841222 15.0054857,32.1492623 L15,32 L15,2 C15,0.8954305 15.8954305,0 17,0 Z" id="路径-2备份" transform="translate(17.000000, 17.000000) rotate(90.000000) translate(-17.000000, -17.000000) "></path>
                            </g>
                        </g>
                    </g>
                </g>
                <g id="编组-18" transform="translate(74.251923, 36.304395)">
                    <g id="鞋子" transform="translate(11.312043, 84.233719)">
                        <path d="M1.51603446,9.60155912 C1.72383771,10.1032265 4.21331618,9.25265769 4.85997932,9.10265042 C5.50664247,8.95264315 6.39261011,9.13022774 6.55703841,8.98466159 C6.82711458,8.74556679 6.90349319,8.0879109 6.78617425,7.01169391 C6.66967991,7.74476373 6.66967991,7.20867666 6.78617425,5.40343269 C6.9026686,3.59818872 7.05349266,1.79704449 7.23864644,0 L4.30646626,0.199846704 C4.51840278,3.11441077 4.60522373,4.94774798 4.56692911,5.69985834 C4.50948717,6.82802387 4.15777182,7.57845005 3.91747521,7.83967099 C3.6771786,8.10089193 2.96567791,8.30601583 2.35792029,8.65308085 C1.75016266,9.00014588 1.34040988,9.17757578 1.51603446,9.60155912 Z" id="路径-2备份" fill="#F8CDBA"></path>
                        <path d="M6.86056932,6.90992714 C6.88496736,7.09814063 7.12319487,7.30512003 7.12319487,7.98399508 C7.12319487,8.66287013 7.00180087,8.92645614 6.86056932,9.14132123 C6.81082493,9.21687638 6.79105398,9.41469417 6.80125645,9.73477461 C6.80574293,9.87552808 6.82551388,10.139854 6.86056932,10.5277523 L5.74279731,10.5277523 L5.74279731,9.55648023 C5.67659119,9.40041255 5.27020853,9.44414607 4.52364935,9.68768079 C3.40381057,10.0529829 2.40265381,10.7121036 1.49803539,10.5927739 C0.979912354,10.5244274 0.00721989415,10.1034745 8.82346246e-05,9.75820353 C-0.0070434249,9.4129326 2.1279895,8.37227313 2.85890929,8.31982684 C3.02792055,8.30769964 2.86635647,8.65386739 3.20554953,8.69427971 C3.5447426,8.73469203 3.75605857,8.70778389 4.35531884,8.51655027 C4.75482568,8.38906119 5.58990918,7.85352015 6.86056932,6.90992714 Z" id="路径" fill="#1F161E" fill-rule="nonzero"></path>
                    </g>
                    <g id="鞋子备份" transform="translate(26.054382, 89.487257) scale(-1, 1) translate(-26.054382, -89.487257) translate(22.435058, 84.133776)">
                        <path d="M1.51603446,9.70150213 C1.72383771,10.2031695 4.21331618,9.3526007 4.85997932,9.20259343 C5.50664247,9.05258616 6.39261011,9.23017075 6.55703841,9.08460459 C6.82711458,8.8455098 6.90349319,8.18785391 6.78617425,7.11163692 L6.78617425,5.35348084 L7.23864644,0 L3.77647778,0 C4.45483497,2.98417947 4.71831875,4.91744659 4.56692911,5.79980135 C4.365273,6.97512772 4.45885322,7.34659962 4.21855661,7.60782056 C3.97826,7.8690415 2.96567791,8.40595884 2.35792029,8.75302386 C1.75016266,9.10008889 1.34040988,9.27751879 1.51603446,9.70150213 Z" id="路径-2备份" fill="#F8CDBA"></path>
                        <path d="M6.86056932,7.00987015 C6.88496736,7.19808364 7.12319487,7.40506303 7.12319487,8.08393808 C7.12319487,8.76281314 7.00180087,9.02639915 6.86056932,9.24126424 C6.81082493,9.31681939 6.79105398,9.51463718 6.80125645,9.83471762 C6.80574293,9.97547109 6.82551388,10.239797 6.86056932,10.6276953 L5.74279731,10.6276953 L5.74279731,9.65642324 C5.67659119,9.50035556 5.27020853,9.54408908 4.52364935,9.7876238 C3.40381057,10.1529259 2.40265381,10.8120466 1.49803539,10.6927169 C0.979912354,10.6243704 0.00721989415,10.2034175 8.82346246e-05,9.85814654 C-0.0070434249,9.5128756 2.1279895,8.47221613 2.85890929,8.41976985 C3.02792055,8.40764265 2.86635647,8.7538104 3.20554953,8.79422272 C3.5447426,8.83463504 3.75605857,8.8077269 4.35531884,8.61649328 C4.75482568,8.4890042 5.58990918,7.95346316 6.86056932,7.00987015 Z" id="路径" fill="#1F161E" fill-rule="nonzero"></path>
                    </g>
                    <path d="M10.5779355,38.2642056 C8.48866141,57.8827141 7.48279852,84.7991074 7.48279852,84.7991074 L20.0500656,86.4653787 L18.9271717,46.3167901 L19.532004,58.2650564 L21.0607723,86.4653787 L33.4765457,84.7991074 C33.4765457,84.7991074 28.4561753,41.9008127 28.0857829,40.0452276 C27.7153906,38.1896425 25.9049999,32.0134764 25.9049999,32.0134764 L11.606426,32.7591343 L10.5779355,38.2642056 Z" id="路径" fill="url(#linearGradient-4)" fill-rule="nonzero"></path>
                    <path d="M20.1597246,43.9345846 C19.3381305,45.0793685 18.5307294,45.6517605 17.7375213,45.6517605" id="路径-4" stroke="#141933" stroke-width="0.48" stroke-linecap="round"></path>
                    <path d="M19.1672505,45.2285421 L19.6634876,51.1895056 C19.9943123,59.5964593 20.1597246,63.7999361 20.1597246,63.7999361" id="路径-5" stroke="#141933" stroke-width="0.48" stroke-linecap="round"></path>
                    <path d="M5.22783368,16.7350493 L1.1026433,13.8168508 L1.142802,11.542307 L11.6197593,5.5285424 L14.2267279,2.45863328 L18.1009264,0 C18.4346606,0.169772043 18.4763066,0.396338594 18.2258646,0.679699651 C17.9754226,0.963060709 17.0614404,1.8442144 15.4839182,3.32316074 L14.6934435,3.95636697 C14.6934435,3.95636697 14.3898884,3.91294183 14.3898884,4.7083071 C14.3898884,5.50367236 13.3816582,6.72947303 13.3816582,6.72947303 L5.51006007,12.4603793 L7.27927368,13.3416396 L5.22783368,16.7350493 Z" id="路径" fill="#F8CDBA" fill-rule="nonzero"></path>
                    <path d="M28.5522268,22.6049119 L31.80285,26.4077172 L33.3567684,27.236548 L44.4360139,17.3406455 C48.768113,15.5075133 50.678471,13.9820843 50.1670878,12.7643586 C49.400013,10.9377701 46.0527393,13.5344548 45.4527727,13.3116267 C45.0933673,13.1781432 46.0527393,11.7691956 45.1008674,11.561417 C45.0101416,11.541613 44.6215677,12.3629147 43.9351457,14.0253221 L33.3567684,22.6049119 L30.6717135,20.1340366 L28.5522268,22.6049119 Z" id="路径" fill="#F8CDBA" fill-rule="nonzero"></path>
                    <path d="M33.4094325,21.6500274 L42.162795,14.6404715 C43.6144091,16.06049 44.3402161,17.1448408 44.3402161,17.8935237 C44.3402161,18.1551118 40.6966216,21.5384782 33.4094325,28.0436228 L26.3368055,21.6500274 C26.3368055,21.6500274 26.7424039,21.420337 26.0827001,24.1886506 C25.7122381,25.7432197 26.2307819,31.8177199 26.3886563,32.9769233 C26.5909267,34.4658581 28.4027049,37.1214776 27.9662401,37.8628391 C27.7429508,38.2421093 23.3800509,38.9920473 18.9486229,38.9851378 C14.717914,38.9779571 10.2062932,38.8827479 9.74477916,38.5143185 C8.79985531,37.7599801 10.736247,36.4625978 10.7762604,31.8152848 C10.7958897,29.5354646 10.6870006,24.7992077 9.95449515,21.8478323 C9.92245263,20.745541 10.0660122,19.9291994 10.3851737,19.3988076 C4.9367898,16.7672787 1.84261299,15.1811666 1.1026433,14.6404715 C-0.00731122706,13.8294288 -0.22016692,12.5483175 0.201206877,11.9573929 C0.482122741,11.5634432 3.73321883,9.51346552 9.95449515,5.80745987 L11.929697,8.05519362 C11.929697,8.05519362 6.58599769,12.4537365 6.85712909,12.5483175 C7.65800326,12.8276931 9.45730898,13.4028633 11.1657429,13.5837073 C13.4525575,13.8246595 15.4069473,13.5837073 15.4069473,13.5837073 L21.7676384,12.9199733 C21.7676384,12.9199733 25.9073305,13.134153 26.8566375,14.0734203 C27.8059444,15.0126875 33.4094325,21.6500274 33.4094325,21.6500274 Z" id="路径" fill="url(#linearGradient-5)" fill-rule="nonzero"></path>
                    <path d="M10.6025661,19.3988076 C10.4232837,19.898628 9.22830373,22.126423 10.6025661,24.2459393" id="路径" stroke="#141933" stroke-width="0.5" stroke-linecap="round"></path>
                    <path d="M25.03582,19.3988076 C25.5779825,20.2506674 25.9633595,20.9569577 26.1919508,21.5176785 C26.6345381,22.6033186 26.1919508,23.946702 26.1919508,23.946702" id="路径备份" stroke="#141933" stroke-width="0.5" stroke-linecap="round"></path>
                    <path d="M17.5409933,6.0318102 C16.0865956,7.95951604 15.0206659,5.18394175 15.0206659,6.9817167 C15.0206659,8.12858383 14.6484095,8.54321906 15.0206659,8.95314821 C15.5027691,9.48404077 16.0402385,9.57234794 16.0425867,9.61387275 C16.0959693,10.557883 17.0921072,12.7723252 16.8638299,13.1566687 C16.1246345,14.4012296 12.6068997,16.2759359 10.936643,15.7369181 C9.26638629,15.1979003 8.79637572,11.6886722 9.63503148,10.1869542 C10.4736872,8.68523621 12.3708547,6.9817167 12.3708547,5.01640846 C12.3708547,3.05110022 14.3917821,1.00250881 15.8355513,0.566582532 C17.2793205,0.130656256 19.1788176,-0.17275376 19.700939,1.78729258 C20.2230605,3.74733893 22.877074,3.13849451 23.6528131,3.74733893 C24.4285522,4.35618334 24.9201151,5.18239241 24.2864641,6.9817167 C24.0432161,7.67244699 24.0801046,8.25635597 24.3971294,8.73344365 C24.552818,8.96773808 24.9383636,9.26121445 25.5537661,9.61387275 C27.5971449,11.4024226 28.0682723,13.0516819 26.9671484,14.5616505 C25.8660244,16.0716192 23.4439546,15.7670021 19.700939,13.6477994 L18.6003411,12.4519478 L18.5574328,9.61387275 C19.8350905,8.94360092 20.3678633,7.85427842 20.1557512,6.34590524 C19.837583,4.08334548 18.3720281,4.93032985 17.5409933,6.0318102 Z" id="路径-29" fill="#1F161E"></path>
                    <path d="M19.9631967,8.32670227 L16.3511639,8.32670227 L16.3511639,13.7028996 C16.3758825,13.7399516 17.6131304,16.7350493 18.1571803,16.7350493 C18.7012302,16.7350493 19.9351269,13.8675198 19.9631967,13.8192398 L19.9631967,8.32670227 Z" id="路径" fill="#F8CDBA"></path>
                    <path d="M18.1571889,12.0318102 C20.3663279,12.0318102 22.1571889,10.2409492 22.1571889,8.0318102 C22.1571889,6.91043013 20.5610166,6.12242277 19.9631967,5.37791566 C19.3833006,4.65573031 19.5551191,4.65573031 19.0679333,4.49573861 C18.5807474,4.33574691 18.0223557,5.17225498 17.5409933,5.37791566 C15.9263323,6.06777488 14.1571889,6.37648127 14.1571889,8.0318102 C14.1571889,10.2409492 15.9480499,12.0318102 18.1571889,12.0318102 Z" id="椭圆形" fill="#F8CDBA"></path>
                </g>
            </g>
        </g>
    </g>
</svg>