<?xml version="1.0" encoding="UTF-8"?>
<svg width="301px" height="161px" viewBox="0 0 301 161" version="1.1" xmlns="http://www.w3.org/2000/svg" xmlns:xlink="http://www.w3.org/1999/xlink">
    <title>upload_wait_Image@2xpng@2x</title>
    <defs>
        <linearGradient x1="50%" y1="19.4128898%" x2="50%" y2="116.680684%" id="linearGradient-1">
            <stop stop-color="#EEF1FB" offset="0%"></stop>
            <stop stop-color="#FFFFFF" stop-opacity="0" offset="100%"></stop>
        </linearGradient>
    </defs>
    <g id="注册/登录" stroke="none" stroke-width="1" fill="none" fill-rule="evenodd">
        <g id="2.5-上传+解析加载页面" transform="translate(-37.000000, -171.000000)">
            <g id="upload_wait_Image@2xpng" transform="translate(37.500000, 171.593026)">
                <rect id="矩形" fill-opacity="0" fill="#FFFFFF" x="0" y="0" width="300" height="160"></rect>
                <ellipse id="椭圆形" fill="url(#linearGradient-1)" cx="150" cy="130" rx="150" ry="30"></ellipse>
                <g id="empty-1" transform="translate(123.913969, 19.511560)">
                    <path d="M91.7743106,16.8671328 L12.2076852,16.8671328 C11.1342783,16.8671328 10.1049476,17.2944803 9.34588499,18.0535429 C8.5868842,18.8126055 8.15947489,19.8418744 8.15947489,20.9153431 L8.15947489,93.918324 C8.15947489,94.9921018 8.5868842,96.0213707 9.34588499,96.7804951 C10.1049476,97.5396195 11.1342783,97.9667816 12.2076852,97.9667816 L91.7743106,97.9667816 C92.8480884,97.9667816 93.8773573,97.5396195 94.6364817,96.7804951 C95.3956061,96.0213707 95.8233864,94.9921018 95.8233864,93.918324 L95.8233864,20.9153431 C95.8233864,19.8418125 95.3956061,18.8124819 94.6364817,18.0534192 C93.8773573,17.2943566 92.8480884,16.8671328 91.7743106,16.8671328 Z" id="路径" fill="#B6C6F6" fill-rule="nonzero"></path>
                    <polygon id="路径" fill="#B6C6F6" fill-rule="nonzero" points="95.8233864 52.2221166 95.8233864 22.105895 90.5849333 16.8671328 90.5849333 52.2216839 95.8233864 52.2216839"></polygon>
                    <path d="M86.5364757,72.5985494 L17.4465092,72.5985494 C15.2109248,72.5985494 13.3982989,70.7860471 13.3982989,68.55071 L13.3982989,4.04821646 C13.3982989,1.81258884 15.2109248,0 17.4465092,0 L86.5364757,0 C88.772431,0 90.5849333,1.81258884 90.5849333,4.04821646 L90.5849333,68.55071 C90.5849333,70.7860471 88.772431,72.5985494 86.5364757,72.5985494 Z" id="路径" fill="#F3F5FF" fill-rule="nonzero"></path>
                    <path d="M14.6799705,69.8315779 L14.6799705,5.32992512 C14.6799705,3.09427277 16.4925964,1.28168392 18.7282426,1.28168392 L87.81858,1.28168392 C88.6079952,1.28168392 89.3417743,1.51118306 89.964281,1.9020456 C89.2490474,0.76081824 87.9830157,0 86.5364757,0 L17.4465092,0 C15.2109248,0 13.3982989,1.81258884 13.3982989,4.04821646 L13.3982989,68.55071 C13.3982989,69.99725 14.1591542,71.2626635 15.3003754,71.9785153 C14.9095005,71.3560086 14.6799705,70.6216113 14.6799705,69.8321961 L14.6799705,69.8315779 Z" id="路径" fill="#FFFFFF" fill-rule="nonzero"></path>
                    <path d="M76.551424,12.8815343 L27.4318081,12.8815343 C26.6120971,12.8815343 25.94759,13.5460414 25.94759,14.3657524 C25.94759,15.1854634 26.6120971,15.8499705 27.4318081,15.8499705 L76.551424,15.8499705 C77.371135,15.8499705 78.0356421,15.1854634 78.0356421,14.3657524 C78.0356421,13.5460414 77.371135,12.8815343 76.551424,12.8815343 Z" id="路径" fill="#FFFFFF" fill-rule="nonzero"></path>
                    <path d="M76.551424,24.216041 L27.4318081,24.216041 C26.6120971,24.216041 25.94759,24.880548 25.94759,25.700259 C25.94759,26.51997 26.6120971,27.1844771 27.4318081,27.1844771 L76.551424,27.1844771 C77.371135,27.1844771 78.0356421,26.51997 78.0356421,25.700259 C78.0356421,24.880548 77.371135,24.216041 76.551424,24.216041 Z" id="路径" fill="#FFFFFF" fill-rule="nonzero"></path>
                    <path d="M76.551424,35.5530821 L27.4318081,35.5530821 C26.6120971,35.5530821 25.94759,36.2175892 25.94759,37.0373002 C25.94759,37.8570112 26.6120971,38.5215182 27.4318081,38.5215182 L76.551424,38.5215182 C77.371135,38.5215182 78.0356421,37.8570112 78.0356421,37.0373002 C78.0356421,36.2175892 77.371135,35.5530821 76.551424,35.5530821 Z" id="路径" fill="#FFFFFF" fill-rule="nonzero"></path>
                    <path d="M76.5512077,46.8875269 L27.4320245,46.8875269 C26.612194,46.8875269 25.94759,47.5521308 25.94759,48.3719613 C25.94759,49.1917918 26.612194,49.8563958 27.4320245,49.8563958 L76.5512077,49.8563958 C77.3710382,49.8563958 78.0356421,49.1917918 78.0356421,48.3719613 C78.0356421,47.5521308 77.3710382,46.8875269 76.5512077,46.8875269 Z" id="路径" fill="#FFFFFF" fill-rule="nonzero"></path>
                    <path d="M101.958818,54.9462483 L96.3154572,94.8981385 C96.0329492,96.8954765 94.3236829,98.3803437 92.3065632,98.3803437 L11.675989,98.3803437 C9.65899291,98.3803437 7.94966477,96.8954765 7.66746583,94.8981385 L0.0405090135,40.9133881 C-0.303530443,38.4762773 1.58763952,36.29874 4.04900775,36.29874 L28.9494697,36.29874 C30.9664658,36.29874 32.6757939,37.7831744 32.957931,39.7800796 L33.9574655,46.8498277 C34.2396644,48.8471657 35.9489926,50.3316001 37.9659886,50.3316001 L97.9511602,50.3316001 C100.412133,50.3316001 102.303762,52.5091374 101.959436,54.9462483 L101.958818,54.9462483 Z" id="路径" fill="#94ACF7" fill-rule="nonzero"></path>
                    <rect id="矩形" fill="#D5DFFE" x="18" y="70.2407339" width="66" height="4"></rect>
                </g>
                <g id="sitting-leaning" transform="translate(65.315309, 72.990129)">
                    <path d="M3.31018966,44.4041311 C3.07389893,44.4106056 2.04071772,44.4106056 0.21064602,44.4041311 L0.120571733,43.3724751 C0.673659346,43.3179582 0.950203153,43.2906997 0.950203153,43.2906997 C0.950203153,43.2906997 0.0832997394,41.6144713 0.0724902507,41.5097108 C-0.0980872695,39.8565528 0.0672482,38.7205689 0.21064602,38.5537503 C0.412674593,38.3187251 1.04878328,37.9564683 1.46584194,38.4355282 C1.8829006,38.9145882 1.8829006,40.5922267 2.06011865,40.8466756 C2.23733669,41.1011244 2.67945295,41.9819974 3.15439732,41.8285512" id="路径" fill="#141933" fill-rule="nonzero"></path>
                    <path d="M1.92521249,40.4933864 C1.60184048,40.5945396 1.47597787,40.7693526 1.54762465,41.0178251 C1.65509483,41.390534 2.90631572,44.4041311 3.31018966,44.4041311 C3.44640755,44.4041311 5.81853341,44.5209144 5.91997166,44.1778566 C5.98601523,43.9545014 6.20228219,43.0892016 6.56877253,41.581957 C5.17717705,41.7888582 4.25730248,41.8715139 3.80914881,41.8299244 C3.13691831,41.76754 3.13691831,41.5004793 2.72253777,41.2250186 C2.44628408,41.0413782 2.18050899,40.7975008 1.92521249,40.4933864 Z" id="路径-6" fill="#F8CDBA"></path>
                    <path d="M45.0706219,33.2439077 C44.5832722,32.667949 31.0711623,20.6612719 27.7837675,20.7250704 C26.1733424,20.756324 23.5000191,24.9614674 20.6941541,29.8471009 C17.7723478,34.9346138 14.2261169,40.1507602 14.3192317,40.4933864 C14.5017663,41.1650428 24.4513998,41.1047886 25.1779938,40.4933864 C25.9045878,39.8819841 27.6585966,32.5638535 28.9203891,29.8471009 C29.4165997,30.5666061 36.1270413,38.4800908 37.3480736,39.2439006 C38.569106,40.0077104 45.0706219,33.2439077 45.0706219,33.2439077 Z" id="路径" fill="#474C66" fill-rule="nonzero"></path>
                    <path d="M5.41463494,44.9017745 C33.8637272,45.276295 49.4150457,45.0949416 52.0685906,44.3577145 C56.048908,43.2518739 57.099811,43.3617491 57.0448734,41.0401927 C56.9899358,38.7186363 49.4919486,33.5860267 48.4977553,33.5860267 C46.9736801,33.5860267 36.422527,35.1812829 26.7472132,37.6636841 C23.439143,38.2047898 16.3282836,37.9995342 5.41463494,37.0479173 L5.41463494,44.9017745 Z" id="路径" fill="#8F95A8" fill-rule="nonzero"></path>
                    <path d="M59.6358012,11.1860405 C62.2320456,12.3361856 65.4255148,27.1994632 64.9913306,27.6868129 C64.5571464,28.1741625 60.8763276,29.8506452 60.8763276,29.8506452 C60.8054403,33.4694377 57.7395681,42.1318559 56.8198065,42.5093303 C50.3548921,40.669807 46.3781191,34.9368032 46.3781191,33.3666513 C46.3781191,31.7964994 41.4550018,32.9998099 41.0757552,32.5620813 C40.8989558,32.3806096 42.4965591,32.6886806 42.2770993,32.5620813 C42.2770993,32.5620813 44.8795462,30.4142977 45.2155687,28.2982151 C45.1429093,27.658458 44.5864447,15.6696571 45.3041778,14.5425503 C46.7325552,12.3078307 56.3997997,9.75234651 59.6358012,11.1860405 Z" id="路径" fill="#DDE2ED" fill-rule="nonzero"></path>
                    <path d="M60.8993659,29.8471009 C60.1904937,30.182043 53.7521621,32.9572776 50.9343951,33.5456415" id="路径" stroke="#141933" stroke-width="0.5" stroke-linecap="round"></path>
                    <path d="M56.864111,20.2596045 C57.1990531,20.9684767 59.260099,25.0533527 59.0084493,25.4733595 C58.7567997,25.8933662 47.0214206,31.360543 45.9900116,31.6937129" id="路径" stroke="#141933" stroke-width="0.5" stroke-linecap="round"></path>
                    <path d="M47.1312958,19.2087015 C47.0657252,20.7221436 47.1082575,28.1227693 47.3599071,30.8554715" id="路径" stroke="#141933" stroke-width="0.5" stroke-linecap="round"></path>
                    <path d="M45.9900116,31.6937129 C46.0963424,31.9152355 46.8371139,34.0542573 46.9150898,34.5185686 C46.9930658,34.9828799 43.9626371,35.5960543 42.9064176,35.5446611 C41.850198,35.4932678 40.5618228,34.513252 40.5618228,33.354246 C40.5618228,32.19524 42.1479243,31.3747204 45.9900116,31.6937129 Z" id="路径" fill="#F8CDBA" fill-rule="nonzero"></path>
                    <path d="M45.0560107,5.33229439 C45.5275726,6.64026205 45.6782285,7.80702553 45.5079785,8.83258484 C45.2526035,10.3709238 47.4794684,11.3415308 47.8176345,11.5536319 C48.0430785,11.6950327 48.0430785,12.1197822 47.8176345,12.8278805 L50.9736676,11.5536319 L53.3816805,10.7700199 L50.2602662,7.8041418 L46.5612564,5.80392842 L45.0560107,5.33229439 Z" id="路径-3" fill="#1F161E"></path>
                    <path d="M50.2591944,12.7827751 C50.3655252,13.2878465 53.1513929,12.7455593 53.0397455,12.2032721 L52.3344177,8.83258484 L49.5556387,9.41208785 L50.2591944,12.7827751 Z" id="路径" fill="#F8CDBA" fill-rule="nonzero"></path>
                    <path d="M49.5556387,10.9081366 C51.5924138,10.9081366 52.8837936,8.94122759 52.8837936,6.90445249 C52.8837936,4.86767739 51.2326612,3.21654493 49.1958861,3.21654493 C47.159111,3.21654493 45.5079785,4.86767739 45.5079785,6.90445249 C45.5079785,8.94122759 47.5188636,10.9081366 49.5556387,10.9081366 Z" id="椭圆形" fill="#F8CDBA" fill-rule="nonzero"></path>
                    <path d="M52.3945701,9.08618595 C52.5284179,11.7892168 52.5550158,11.208382 53.0430131,11.208382 C53.1099428,11.208382 53.8560687,11.0495035 55.3313898,10.9081366 C55.7973755,10.8634854 56.6589678,10.8174464 57.9161667,10.7700199 C57.3072108,9.91549565 56.8563465,9.35421767 56.5635735,9.08618595 C55.7137059,8.30813766 54.9839726,8.06606894 54.8745448,7.87399943 C54.3738333,6.9951427 54.4959912,6.40045925 54.4959912,6.06206348 C54.4959912,4.47488781 54.4504184,3.07237417 53.5714922,2.63291106 C52.692566,2.19344796 50.1813601,0 48.7600088,0 C47.4428899,0 47.2178426,0.573278375 47.2178426,1.0399554 C47.2178426,2.05859053 46.4289926,2.31917161 45.4411534,2.31917161 C44.8157588,2.31917161 44.0198021,2.49684053 44.0198021,3.35912701 C44.0198021,4.93919592 45.0128745,6.12787368 45.5079785,6.38371692 C45.5978169,6.2082885 45.7113672,5.74500187 45.9390758,5.5182443 C46.1897617,5.26860536 46.5579959,5.25643741 46.7061561,5.09791348 C46.6161372,5.39639727 46.9809507,5.9388797 47.6797818,6.06206348 C48.0801291,6.14971348 52.2607224,6.38315508 52.3945701,9.08618595 Z" id="路径" fill="#1F161E" fill-rule="nonzero"></path>
                    <circle id="椭圆形" fill="#F8CDBA" fill-rule="nonzero" cx="51.2993259" cy="7.06234078" r="1"></circle>
                </g>
            </g>
        </g>
    </g>
</svg>