<?xml version="1.0" encoding="UTF-8"?>
<svg width="301px" height="161px" viewBox="0 0 301 161" version="1.1" xmlns="http://www.w3.org/2000/svg" xmlns:xlink="http://www.w3.org/1999/xlink">
    <title>upload_win_Image@2xpng@2x</title>
    <defs>
        <linearGradient x1="50%" y1="19.4128898%" x2="50%" y2="116.680684%" id="linearGradient-1">
            <stop stop-color="#EEF1FB" offset="0%"></stop>
            <stop stop-color="#FFFFFF" stop-opacity="0" offset="100%"></stop>
        </linearGradient>
        <rect id="path-2" x="0" y="0" width="28" height="28"></rect>
        <linearGradient x1="99.8224624%" y1="100%" x2="99.8224624%" y2="0.749271207%" id="linearGradient-4">
            <stop stop-color="#8F95A8" offset="0%"></stop>
            <stop stop-color="#7B8195" offset="100%"></stop>
        </linearGradient>
        <linearGradient x1="150.587194%" y1="48.2240804%" x2="63.9679858%" y2="91.2237309%" id="linearGradient-5">
            <stop stop-color="#E5E9F0" offset="0%"></stop>
            <stop stop-color="#D2DAE8" offset="100%"></stop>
        </linearGradient>
    </defs>
    <g id="注册/登录" stroke="none" stroke-width="1" fill="none" fill-rule="evenodd">
        <g id="2.5.2-解析成功落地页-信息完整" transform="translate(-37.000000, -171.000000)">
            <g id="upload_win_Image@2xpng" transform="translate(37.500000, 171.593026)">
                <rect id="矩形" fill-opacity="0" fill="#FFFFFF" x="0" y="0" width="300" height="160"></rect>
                <ellipse id="椭圆形" fill="url(#linearGradient-1)" cx="150" cy="130" rx="150" ry="30"></ellipse>
                <g id="empty-1" transform="translate(120.403298, 19.511560)">
                    <path d="M91.7743106,16.8671328 L12.2076852,16.8671328 C11.1342783,16.8671328 10.1049476,17.2944803 9.34588499,18.0535429 C8.5868842,18.8126055 8.15947489,19.8418744 8.15947489,20.9153431 L8.15947489,93.918324 C8.15947489,94.9921018 8.5868842,96.0213707 9.34588499,96.7804951 C10.1049476,97.5396195 11.1342783,97.9667816 12.2076852,97.9667816 L91.7743106,97.9667816 C92.8480884,97.9667816 93.8773573,97.5396195 94.6364817,96.7804951 C95.3956061,96.0213707 95.8233864,94.9921018 95.8233864,93.918324 L95.8233864,20.9153431 C95.8233864,19.8418125 95.3956061,18.8124819 94.6364817,18.0534192 C93.8773573,17.2943566 92.8480884,16.8671328 91.7743106,16.8671328 Z" id="路径" fill="#B6C6F6" fill-rule="nonzero"></path>
                    <polygon id="路径" fill="#B6C6F6" fill-rule="nonzero" points="95.8233864 52.2221166 95.8233864 22.105895 90.5849333 16.8671328 90.5849333 52.2216839 95.8233864 52.2216839"></polygon>
                    <path d="M86.5364757,72.5985494 L17.4465092,72.5985494 C15.2109248,72.5985494 13.3982989,70.7860471 13.3982989,68.55071 L13.3982989,4.04821646 C13.3982989,1.81258884 15.2109248,0 17.4465092,0 L86.5364757,0 C88.772431,0 90.5849333,1.81258884 90.5849333,4.04821646 L90.5849333,68.55071 C90.5849333,70.7860471 88.772431,72.5985494 86.5364757,72.5985494 Z" id="路径" fill="#F3F5FF" fill-rule="nonzero"></path>
                    <path d="M14.6799705,69.8315779 L14.6799705,5.32992512 C14.6799705,3.09427277 16.4925964,1.28168392 18.7282426,1.28168392 L87.81858,1.28168392 C88.6079952,1.28168392 89.3417743,1.51118306 89.964281,1.9020456 C89.2490474,0.76081824 87.9830157,0 86.5364757,0 L17.4465092,0 C15.2109248,0 13.3982989,1.81258884 13.3982989,4.04821646 L13.3982989,68.55071 C13.3982989,69.99725 14.1591542,71.2626635 15.3003754,71.9785153 C14.9095005,71.3560086 14.6799705,70.6216113 14.6799705,69.8321961 L14.6799705,69.8315779 Z" id="路径" fill="#FFFFFF" fill-rule="nonzero"></path>
                    <path d="M76.551424,12.8815343 L27.4318081,12.8815343 C26.6120971,12.8815343 25.94759,13.5460414 25.94759,14.3657524 C25.94759,15.1854634 26.6120971,15.8499705 27.4318081,15.8499705 L76.551424,15.8499705 C77.371135,15.8499705 78.0356421,15.1854634 78.0356421,14.3657524 C78.0356421,13.5460414 77.371135,12.8815343 76.551424,12.8815343 Z" id="路径" fill="#FFFFFF" fill-rule="nonzero"></path>
                    <path d="M76.551424,24.216041 L27.4318081,24.216041 C26.6120971,24.216041 25.94759,24.880548 25.94759,25.700259 C25.94759,26.51997 26.6120971,27.1844771 27.4318081,27.1844771 L76.551424,27.1844771 C77.371135,27.1844771 78.0356421,26.51997 78.0356421,25.700259 C78.0356421,24.880548 77.371135,24.216041 76.551424,24.216041 Z" id="路径" fill="#FFFFFF" fill-rule="nonzero"></path>
                    <path d="M76.551424,35.5530821 L27.4318081,35.5530821 C26.6120971,35.5530821 25.94759,36.2175892 25.94759,37.0373002 C25.94759,37.8570112 26.6120971,38.5215182 27.4318081,38.5215182 L76.551424,38.5215182 C77.371135,38.5215182 78.0356421,37.8570112 78.0356421,37.0373002 C78.0356421,36.2175892 77.371135,35.5530821 76.551424,35.5530821 Z" id="路径" fill="#FFFFFF" fill-rule="nonzero"></path>
                    <path d="M76.5512077,46.8875269 L27.4320245,46.8875269 C26.612194,46.8875269 25.94759,47.5521308 25.94759,48.3719613 C25.94759,49.1917918 26.612194,49.8563958 27.4320245,49.8563958 L76.5512077,49.8563958 C77.3710382,49.8563958 78.0356421,49.1917918 78.0356421,48.3719613 C78.0356421,47.5521308 77.3710382,46.8875269 76.5512077,46.8875269 Z" id="路径" fill="#FFFFFF" fill-rule="nonzero"></path>
                    <path d="M101.958818,54.9462483 L96.3154572,94.8981385 C96.0329492,96.8954765 94.3236829,98.3803437 92.3065632,98.3803437 L11.675989,98.3803437 C9.65899291,98.3803437 7.94966477,96.8954765 7.66746583,94.8981385 L0.0405090135,40.9133881 C-0.303530443,38.4762773 1.58763952,36.29874 4.04900775,36.29874 L28.9494697,36.29874 C30.9664658,36.29874 32.6757939,37.7831744 32.957931,39.7800796 L33.9574655,46.8498277 C34.2396644,48.8471657 35.9489926,50.3316001 37.9659886,50.3316001 L97.9511602,50.3316001 C100.412133,50.3316001 102.303762,52.5091374 101.959436,54.9462483 L101.958818,54.9462483 Z" id="路径" fill="#94ACF7" fill-rule="nonzero"></path>
                    <g id="编组-5" transform="translate(40.621343, 62.338713)">
                        <mask id="mask-3" fill="white">
                            <use xlink:href="#path-2"></use>
                        </mask>
                        <use id="蒙版" fill-opacity="0" fill="#FFFFFF" xlink:href="#path-2"></use>
                        <path d="M23.7462943,3.82030596 C24.4859445,2.9157157 25.8188647,2.78200534 26.723455,3.52165552 C27.5828157,4.22432319 27.7464574,5.46241709 27.1265156,6.36004289 L27.0221054,6.4988162 L14.1881928,22.1946584 C13.4485426,23.0992486 12.1156224,23.232959 11.2110321,22.4933088 C11.1832983,22.4706319 11.156145,22.4472543 11.1295983,22.4231985 L1.19506307,13.4208216 L1.19506307,13.4208216 C0.329193656,12.6361968 0.263331887,11.2982069 1.04795669,10.4323375 C1.79128546,9.61204012 3.03126325,9.50975518 3.89595069,10.1684033 L4.03644085,10.2852311 L12.3211854,17.7921066 L23.7462943,3.82030596 Z" id="路径-3" fill="#D5DFFE" fill-rule="nonzero" mask="url(#mask-3)"></path>
                    </g>
                </g>
                <g id="编组-18" transform="translate(72.618013, 36.220041)">
                    <g id="鞋子" transform="translate(8.150303, 85.064844)">
                        <path d="M1.51603446,9.60155912 C1.72383771,10.1032265 4.21331618,9.25265769 4.85997932,9.10265042 C5.50664247,8.95264315 6.39261011,9.13022774 6.55703841,8.98466159 C6.82711458,8.74556679 6.90349319,8.0879109 6.78617425,7.01169391 C6.66967991,7.74476373 6.66967991,7.20867666 6.78617425,5.40343269 C6.9026686,3.59818872 7.05349266,1.79704449 7.23864644,0 L4.30646626,0.199846704 C4.51840278,3.11441077 4.60522373,4.94774798 4.56692911,5.69985834 C4.50948717,6.82802387 4.15777182,7.57845005 3.91747521,7.83967099 C3.6771786,8.10089193 2.96567791,8.30601583 2.35792029,8.65308085 C1.75016266,9.00014588 1.34040988,9.17757578 1.51603446,9.60155912 Z" id="路径-2备份" fill="#F8CDBA"></path>
                        <path d="M6.86056932,6.90992714 C6.88496736,7.09814063 7.12319487,7.30512003 7.12319487,7.98399508 C7.12319487,8.66287013 7.00180087,8.92645614 6.86056932,9.14132123 C6.81082493,9.21687638 6.79105398,9.41469417 6.80125645,9.73477461 C6.80574293,9.87552808 6.82551388,10.139854 6.86056932,10.5277523 L5.74279731,10.5277523 L5.74279731,9.55648023 C5.67659119,9.40041255 5.27020853,9.44414607 4.52364935,9.68768079 C3.40381057,10.0529829 2.40265381,10.7121036 1.49803539,10.5927739 C0.979912354,10.5244274 0.00721989415,10.1034745 8.82346246e-05,9.75820353 C-0.0070434249,9.4129326 2.1279895,8.37227313 2.85890929,8.31982684 C3.02792055,8.30769964 2.86635647,8.65386739 3.20554953,8.69427971 C3.5447426,8.73469203 3.75605857,8.70778389 4.35531884,8.51655027 C4.75482568,8.38906119 5.58990918,7.85352015 6.86056932,6.90992714 Z" id="路径" fill="#1F161E" fill-rule="nonzero"></path>
                    </g>
                    <g id="鞋子备份" transform="translate(22.892642, 90.318382) scale(-1, 1) translate(-22.892642, -90.318382) translate(19.273319, 84.964901)">
                        <path d="M1.51603446,9.70150213 C1.72383771,10.2031695 4.21331618,9.3526007 4.85997932,9.20259343 C5.50664247,9.05258616 6.39261011,9.23017075 6.55703841,9.08460459 C6.82711458,8.8455098 6.90349319,8.18785391 6.78617425,7.11163692 L6.78617425,5.35348084 L7.23864644,0 L3.77647778,0 C4.45483497,2.98417947 4.71831875,4.91744659 4.56692911,5.79980135 C4.365273,6.97512772 4.45885322,7.34659962 4.21855661,7.60782056 C3.97826,7.8690415 2.96567791,8.40595884 2.35792029,8.75302386 C1.75016266,9.10008889 1.34040988,9.27751879 1.51603446,9.70150213 Z" id="路径-2备份" fill="#F8CDBA"></path>
                        <path d="M6.86056932,7.00987015 C6.88496736,7.19808364 7.12319487,7.40506303 7.12319487,8.08393808 C7.12319487,8.76281314 7.00180087,9.02639915 6.86056932,9.24126424 C6.81082493,9.31681939 6.79105398,9.51463718 6.80125645,9.83471762 C6.80574293,9.97547109 6.82551388,10.239797 6.86056932,10.6276953 L5.74279731,10.6276953 L5.74279731,9.65642324 C5.67659119,9.50035556 5.27020853,9.54408908 4.52364935,9.7876238 C3.40381057,10.1529259 2.40265381,10.8120466 1.49803539,10.6927169 C0.979912354,10.6243704 0.00721989415,10.2034175 8.82346246e-05,9.85814654 C-0.0070434249,9.5128756 2.1279895,8.47221613 2.85890929,8.41976985 C3.02792055,8.40764265 2.86635647,8.7538104 3.20554953,8.79422272 C3.5447426,8.83463504 3.75605857,8.8077269 4.35531884,8.61649328 C4.75482568,8.4890042 5.58990918,7.95346316 6.86056932,7.00987015 Z" id="路径" fill="#1F161E" fill-rule="nonzero"></path>
                    </g>
                    <path d="M7.41619618,39.0953304 C5.32692213,58.7138389 4.32105924,85.6302322 4.32105924,85.6302322 L16.8883263,87.2965035 L15.7654324,47.1479149 L16.3702647,59.0961812 L17.899033,87.2965035 L30.3148064,85.6302322 C30.3148064,85.6302322 25.294436,42.7319375 24.9240437,40.8763524 C24.5536513,39.0207673 22.7432606,32.8446012 22.7432606,32.8446012 L8.4446867,33.5902591 L7.41619618,39.0953304 Z" id="路径" fill="url(#linearGradient-4)" fill-rule="nonzero"></path>
                    <path d="M14.9195107,5.78844437 C13.4651129,7.71615021 12.3991832,4.94057592 12.3991832,6.73835087 C12.3991832,7.885218 12.0269269,8.29985323 12.3991832,8.70978239 C12.8812864,9.24067494 13.4187559,9.32898211 13.4211041,9.37050692 C13.4744866,10.3145172 14.4706245,12.5289594 14.2423473,12.9133028 C13.5031518,14.1578637 9.98541701,16.0325701 8.31516033,15.4935523 C6.64490365,14.9545345 6.17489307,11.4453063 7.01354883,9.94358836 C7.85220459,8.44187038 9.74937205,6.73835087 9.74937205,4.77304263 C9.74937205,2.80773439 11.7702995,0.759142979 13.2140687,0.323216703 C14.6578378,-0.112709572 16.5573349,-0.416119588 17.0794564,1.54392675 C17.6015778,3.5039731 20.2555913,2.89512868 21.0313304,3.5039731 C21.8070695,4.11281751 22.2986325,4.93902659 21.6649814,6.73835087 C21.4217335,7.42908116 21.4586219,8.01299015 21.7756467,8.49007782 C21.9313354,8.72437225 22.316881,9.01784862 22.9322835,9.37050692 C24.9756623,11.1590568 25.4467897,12.8083161 24.3456657,14.3182847 C23.2445418,15.8282533 20.822472,15.5236363 17.0794564,13.4044336 L15.9788585,12.2085819 L15.9359502,9.37050692 C17.2136078,8.70023509 17.7463806,7.61091259 17.5342685,6.10253941 C17.2161004,3.83997965 15.7505454,4.68696402 14.9195107,5.78844437 Z" id="路径-29" fill="#1F161E"></path>
                    <path d="M31.4600681,22.5832547 C31.8165094,22.5832547 34.6046541,22.5832547 39.8245022,22.5832547 L39.8245022,27.0125222 C35.5951985,27.3225584 32.5236845,27.3870731 30.6099604,27.2060663 C28.6962363,27.0250596 26.3233279,25.1329942 23.4912352,21.5298702 C23.4912352,21.5298702 23.6201804,21.768056 23.5906064,22.180804 C23.4196787,24.5663521 22.5319697,27.4568677 22.8926423,30.1051313 C23.1144324,31.7377524 24.5798283,35.1109022 25.0368651,37.1789452 C25.3766857,38.7165968 15.3608225,38.8760459 10.2353156,38.0450422 C8.43487021,37.7531341 7.23785463,37.3390123 7.30509371,36.8194833 C7.51374149,35.207347 8.25562778,32.9943479 8.22129039,30.5698099 C8.17380705,27.217046 6.77618973,23.3099912 7.30509371,19.3684993 C7.55057896,21.7163077 7.19822687,24.2527147 6.24803742,26.9777203 C6.13062436,27.3144439 8.11727958,27.3144439 12.2080031,26.9777203 L12.2080031,31.3890897 C7.53297346,32.054318 4.18747541,32.054318 2.17150893,31.3890897 C0.155542448,30.7238614 -0.456750026,29.3295203 0.334631507,27.2060663 C2.51619843,22.8043396 3.88557334,19.651945 4.44275625,17.7488823 C4.93935963,16.0527295 7.41619618,14.1603069 8.22129039,13.9038801 C10.2998809,13.2418379 12.7467342,13.0373631 12.7467342,13.0373631 C16.3797291,13.0373631 18.1962266,13.0373631 18.1962266,13.0373631 C18.1962266,13.0373631 23.0037206,13.5520764 23.959215,14.4974656 C24.9147093,15.4428549 30.9254061,22.5832547 31.4600681,22.5832547 Z" id="路径" fill="url(#linearGradient-5)" fill-rule="nonzero"></path>
                    <path d="M8.4446867,19.6185598 C8.26540434,20.1183801 6.73736897,21.7724897 7.77386334,23.9264196" id="路径" stroke="#141933" stroke-width="0.5" stroke-linecap="round"></path>
                    <path d="M2.17150893,31.3890897 C3.65919925,31.6916063 10.525241,31.808186 11.717945,31.6349927" id="路径备份-4" stroke="#141933" stroke-width="0.5" stroke-linecap="round"></path>
                    <path d="M22.0668424,19.6185598 C22.609005,20.4704196 22.9943819,21.1767099 23.2229732,21.7374307 C23.6655606,22.8230708 23.2229732,24.1664542 23.2229732,24.1664542" id="路径备份" stroke="#141933" stroke-width="0.5" stroke-linecap="round"></path>
                    <path d="M17.341714,8.08333644 L13.7296984,8.08333644 L13.7296984,13.2739949 C13.7543998,13.311047 14.8853574,16.1184081 15.5357062,16.1184081 C16.1860551,16.1184081 17.3125215,13.3222749 17.3405913,13.2739949 L17.341714,8.08333644 Z" id="路径" fill="#F8CDBA"></path>
                    <path d="M15.5357062,11.7884444 C17.7448452,11.7884444 19.5357062,9.99758337 19.5357062,7.78844437 C19.5357062,6.6670643 17.9395339,5.87905694 17.341714,5.13454983 C16.761818,4.41236448 16.9336365,4.41236448 16.4464506,4.25237279 C15.9592648,4.09238109 15.4008731,4.92888915 14.9195107,5.13454983 C13.3048496,5.82440906 11.5357062,6.13311544 11.5357062,7.78844437 C11.5357062,9.99758337 13.3265672,11.7884444 15.5357062,11.7884444 Z" id="椭圆形" fill="#F8CDBA"></path>
                    <path d="M41.0596958,21.950481 C41.6258504,21.2615875 40.9235821,18.6959195 42.1248673,18.6959195 C42.9257242,18.6959195 43.1847878,19.8775318 42.9020584,22.2407563 C44.1523902,21.9009845 44.9853216,22.0303377 45.4008524,22.6288161 C46.0241487,23.5265337 45.9360213,25.3799355 44.7920847,26.0883642 C44.0294603,26.56065 42.3735995,26.7608016 39.8245022,26.6888191 L39.8245022,22.6393746 C40.2705282,22.6393746 40.6822595,22.4097434 41.0596958,21.950481 Z" id="路径-2" fill="#F8CDBA"></path>
                    <path d="M13.1743131,26.4927043 C13.7404676,25.8038107 13.0381993,23.2381428 14.2394846,23.2381428 C15.0403414,23.2381428 15.2994051,24.419755 15.0166756,26.7829796 C16.2670074,26.4432077 17.0999388,26.572561 17.5154696,27.1710394 C18.1387659,28.068757 18.0506385,29.9221588 16.9067019,30.6305874 C16.1440776,31.1028732 14.4882167,31.3030248 11.9391194,31.2310423 L11.9391194,27.1815978 C12.3851455,27.1815978 12.7968767,26.9519666 13.1743131,26.4927043 Z" id="路径-2备份" fill="#F8CDBA"></path>
                    <path d="M16.9979853,44.7657094 C16.1763913,45.9104933 15.3689901,46.4828853 14.575782,46.4828853" id="路径-4" stroke="#141933" stroke-width="0.48" stroke-linecap="round"></path>
                    <path d="M16.0055112,46.0596669 L16.5017483,52.0206304 C16.832573,60.4275841 16.9979853,64.6310609 16.9979853,64.6310609" id="路径-5" stroke="#141933" stroke-width="0.48" stroke-linecap="round"></path>
                </g>
            </g>
        </g>
    </g>
</svg>