<?xml version="1.0" encoding="UTF-8"?>
<svg width="301px" height="161px" viewBox="0 0 301 161" version="1.1" xmlns="http://www.w3.org/2000/svg" xmlns:xlink="http://www.w3.org/1999/xlink">
    <title>upload_file_sizet_Image@2xpng@2x</title>
    <defs>
        <linearGradient x1="50%" y1="19.4128898%" x2="50%" y2="116.680684%" id="linearGradient-1">
            <stop stop-color="#EEF1FB" offset="0%"></stop>
            <stop stop-color="#FFFFFF" stop-opacity="0" offset="100%"></stop>
        </linearGradient>
        <linearGradient x1="29.6072148%" y1="41.4953139%" x2="48.908128%" y2="59.3698986%" id="linearGradient-2">
            <stop stop-color="#EFF1FC" stop-opacity="0.160593313" offset="0%"></stop>
            <stop stop-color="#DDE0F1" offset="100%"></stop>
        </linearGradient>
        <filter x="0.0%" y="0.0%" width="100.0%" height="100.0%" filterUnits="objectBoundingBox" id="filter-3">
            <feGaussianBlur stdDeviation="0" in="SourceGraphic"></feGaussianBlur>
        </filter>
    </defs>
    <g id="注册/登录" stroke="none" stroke-width="1" fill="none" fill-rule="evenodd">
        <g id="2.5.1-解析失败-文件过大提示" transform="translate(-37.000000, -171.000000)">
            <g id="upload_file_sizet_Image@2xpng" transform="translate(37.500000, 171.593026)">
                <rect id="矩形" fill-opacity="0" fill="#FFFFFF" x="0" y="0" width="300" height="160"></rect>
                <ellipse id="椭圆形" fill="url(#linearGradient-1)" cx="150" cy="130" rx="150" ry="30"></ellipse>
                <g id="empty-1" transform="translate(126.500000, 0.847583)">
                    <path d="M91.7743106,34.4265237 L12.2076852,34.4265237 C11.1342783,34.4265237 10.1049476,34.8538711 9.34588499,35.6129338 C8.5868842,36.3719964 8.15947489,37.4012652 8.15947489,38.4747339 L8.15947489,111.477715 C8.15947489,112.551493 8.5868842,113.580762 9.34588499,114.339886 C10.1049476,115.09901 11.1342783,115.526172 12.2076852,115.526172 L91.7743106,115.526172 C92.8480884,115.526172 93.8773573,115.09901 94.6364817,114.339886 C95.3956061,113.580762 95.8233864,112.551493 95.8233864,111.477715 L95.8233864,38.4747339 C95.8233864,37.4012034 95.3956061,36.3718727 94.6364817,35.6128101 C93.8773573,34.8537475 92.8480884,34.4265237 91.7743106,34.4265237 Z" id="路径" fill="#B6C6F6" fill-rule="nonzero"></path>
                    <polygon id="路径" fill="#B6C6F6" fill-rule="nonzero" points="95.8233864 69.7815075 95.8233864 39.6652858 90.5849333 34.4265237 90.5849333 69.7810748 95.8233864 69.7810748"></polygon>
                    <path d="M91.196392,78.748741 L22.1064255,78.748741 C19.8708411,78.748741 18.0582152,76.9362387 18.0582152,74.7009016 L18.0582152,10.1984081 C18.0582152,7.9627805 19.8708411,6.15019165 22.1064255,6.15019165 L91.196392,6.15019165 C93.4323473,6.15019165 95.2448496,7.9627805 95.2448496,10.1984081 L95.2448496,74.7009016 C95.2448496,76.9362387 93.4323473,78.748741 91.196392,78.748741 Z" id="路径备份-3" fill="#E8EBFA" fill-rule="nonzero" opacity="0.591052827" transform="translate(56.651532, 42.449466) rotate(10.000000) translate(-56.651532, -42.449466) "></path>
                    <path d="M90.4338418,84.4841634 L21.3438753,84.4841634 C19.1082909,84.4841634 17.295665,82.6716611 17.295665,80.436324 L17.295665,15.9338305 C17.295665,13.6982029 19.1082909,11.885614 21.3438753,11.885614 L90.4338418,11.885614 C92.669797,11.885614 94.4822993,13.6982029 94.4822993,15.9338305 L94.4822993,80.436324 C94.4822993,82.6716611 92.669797,84.4841634 90.4338418,84.4841634 Z" id="路径备份-2" fill="#E8EBFA" fill-rule="nonzero" transform="translate(55.888982, 48.184889) rotate(4.000000) translate(-55.888982, -48.184889) "></path>
                    <path d="M86.5364757,90.1579402 L17.4465092,90.1579402 C15.2109248,90.1579402 13.3982989,88.3454379 13.3982989,86.1101009 L13.3982989,21.6076073 C13.3982989,19.3719797 15.2109248,17.5593909 17.4465092,17.5593909 L86.5364757,17.5593909 C88.772431,17.5593909 90.5849333,19.3719797 90.5849333,21.6076073 L90.5849333,86.1101009 C90.5849333,88.3454379 88.772431,90.1579402 86.5364757,90.1579402 Z" id="路径" fill="#F3F5FF" fill-rule="nonzero"></path>
                    <path d="M14.6799705,87.3909688 L14.6799705,22.889316 C14.6799705,20.6536636 16.4925964,18.8410748 18.7282426,18.8410748 L87.81858,18.8410748 C88.6079952,18.8410748 89.3417743,19.0705739 89.964281,19.4614365 C89.2490474,18.3202091 87.9830157,17.5593909 86.5364757,17.5593909 L17.4465092,17.5593909 C15.2109248,17.5593909 13.3982989,19.3719797 13.3982989,21.6076073 L13.3982989,86.1101009 C13.3982989,87.5566409 14.1591542,88.8220543 15.3003754,89.5379062 C14.9095005,88.9153994 14.6799705,88.1810022 14.6799705,87.391587 L14.6799705,87.3909688 Z" id="路径" fill="#FFFFFF" fill-rule="nonzero"></path>
                    <path d="M76.5516713,31.5455113 L27.4320554,31.5455113 C26.6123444,31.5455113 25.9478373,32.2100184 25.9478373,33.0297294 C25.9478373,33.8494404 26.6123444,34.5139475 27.4320554,34.5139475 L76.5516713,34.5139475 C77.3713823,34.5139475 78.0358894,33.8494404 78.0358894,33.0297294 C78.0358894,32.2100184 77.3713823,31.5455113 76.5516713,31.5455113 Z" id="路径" fill="#FFFFFF" fill-rule="nonzero"></path>
                    <path d="M76.5516713,42.8800179 L27.4320554,42.8800179 C26.6123444,42.8800179 25.9478373,43.544525 25.9478373,44.364236 C25.9478373,45.183947 26.6123444,45.8484541 27.4320554,45.8484541 L76.5516713,45.8484541 C77.3713823,45.8484541 78.0358894,45.183947 78.0358894,44.364236 C78.0358894,43.544525 77.3713823,42.8800179 76.5516713,42.8800179 Z" id="路径" fill="#FFFFFF" fill-rule="nonzero"></path>
                    <path d="M76.5516713,54.2170591 L27.4320554,54.2170591 C26.6123444,54.2170591 25.9478373,54.8815661 25.9478373,55.7012771 C25.9478373,56.5209882 26.6123444,57.1854952 27.4320554,57.1854952 L76.5516713,57.1854952 C77.3713823,57.1854952 78.0358894,56.5209882 78.0358894,55.7012771 C78.0358894,54.8815661 77.3713823,54.2170591 76.5516713,54.2170591 Z" id="路径" fill="#FFFFFF" fill-rule="nonzero"></path>
                    <path d="M76.5514549,65.5515039 L27.4322718,65.5515039 C26.6124413,65.5515039 25.9478373,66.2161078 25.9478373,67.0359383 C25.9478373,67.8557688 26.6124413,68.5203727 27.4322718,68.5203727 L76.5514549,68.5203727 C77.3712854,68.5203727 78.0358894,67.8557688 78.0358894,67.0359383 C78.0358894,66.2161078 77.3712854,65.5515039 76.5514549,65.5515039 Z" id="路径" fill="#FFFFFF" fill-rule="nonzero"></path>
                    <path d="M101.958818,72.5056391 L96.3154572,112.457529 C96.0329492,114.454867 94.3236829,115.939735 92.3065632,115.939735 L11.675989,115.939735 C9.65899291,115.939735 7.94966477,114.454867 7.66746583,112.457529 L0.0405090135,58.472779 C-0.303530443,56.0356681 1.58763952,53.8581308 4.04900775,53.8581308 L28.9494697,53.8581308 C30.9664658,53.8581308 32.6757939,55.3425653 32.957931,57.3394705 L33.9574655,64.4092186 C34.2396644,66.4065565 35.9489926,67.890991 37.9659886,67.890991 L97.9511602,67.890991 C100.412133,67.890991 102.303762,70.0685283 101.959436,72.5056391 L101.958818,72.5056391 Z" id="路径" fill="#94ACF7" fill-rule="nonzero"></path>
                    <rect id="矩形" fill="#D5DFFE" x="18" y="88.1579402" width="66" height="4"></rect>
                </g>
                <g id="职位卡片" transform="translate(224.906114, 111.199178)">
                    <polygon id="矩形" fill="url(#linearGradient-2)" opacity="0.363885789" filter="url(#filter-3)" points="11.9584574 0.00852695405 17.7976645 4.76662329 9.11151152 8.52471963 -3.25782726e-13 1.22702278"></polygon>
                    <path d="M16.772886,0.140700569 C16.2899073,1.31022928 15.0256214,2.42879128 12.9800283,3.49638656 C10.9902924,4.53483001 8.44023298,5.19696756 5.32985021,5.48279921 C5.2198462,5.49289166 5.13886634,5.5902611 5.14897513,5.70026361 C5.15502114,5.76605558 5.19316659,5.82461744 5.25090024,5.85674162 L14.7463533,11.1402062 C14.7884431,11.163509 14.8375094,11.1709546 14.8845965,11.1610872 C17.2771842,10.6597077 19.351271,9.61224896 21.106857,8.01871091 C22.8377684,6.44756994 24.0890826,4.16984746 24.8607997,1.18554346 C24.8883755,1.07862416 24.8241244,0.96955341 24.7172227,0.941909494 C24.708544,0.939665251 24.6997242,0.938007235 24.6908229,0.936946668 L16.981187,0.0183552401 C16.8922085,0.00799168832 16.8070787,0.0579033299 16.772886,0.140700569 Z" id="路径-15" fill="#BDCDFF" transform="translate(14.796364, 5.588140) scale(-1, 1) translate(-14.796364, -5.588140) "></path>
                    <path d="M6.63815119,2.33934303 L12.3342043,1.64428733 C12.4221328,1.79252394 12.5834357,1.96439005 12.8181131,2.15988566 C13.0527905,2.35538127 13.2722764,2.54930297 13.4765709,2.74165074 L7.65597647,3.75616053 C7.3540244,3.60296538 7.10827118,3.37698892 6.91871681,3.07823115 C6.72916244,2.77947338 6.63564056,2.53317734 6.63815119,2.33934303 Z" id="路径-16" fill="#DEE6FF"></path>
                </g>
                <g id="man-holding-box备份" transform="translate(76.016646, 38.866387)">
                    <path d="M2.20864904,83.7796434 C2.20864904,83.8580347 -0.192996254,89.7362654 0.289447531,89.8958559 C0.503600741,89.966697 0.953989788,89.8411457 1.8067043,90.1749087 C2.33582614,90.3820134 3.43379498,90.9158444 5.10061082,91.7764016 C6.46107477,91.659651 7.21929479,91.5679629 7.3752709,91.5013372 C7.60923506,91.4013988 7.76642604,91.1498477 7.70037635,90.4844934 C7.63432666,89.8191392 6.28211766,89.9920979 6.06654177,89.8958559 C5.77483563,89.7656262 4.35862806,89.0411712 3.95236389,88.2881077 C3.83806394,88.0762379 5.06002688,84.6534008 5.10061082,84.5500898 L2.20864904,83.7796434 Z" id="路径" fill="#F8CDBA" fill-rule="nonzero"></path>
                    <path d="M24.8952941,77.8456525 C24.8952941,77.9240439 22.3098289,84.6533355 22.7922727,84.8129261 C23.0064259,84.8837672 23.4568149,84.7582159 24.3095294,85.0919788 C24.8386513,85.2990836 25.9366201,85.8329146 27.603436,86.6934718 C28.9638999,86.5767212 29.7221199,86.4850331 29.878096,86.4184074 C30.1120602,86.318469 30.2692512,86.0669179 30.2032015,85.4015636 C30.1371518,84.7362094 28.7849428,84.9091681 28.5693669,84.8129261 C28.2776608,84.6826964 26.8614532,83.9582414 26.455189,83.2051779 C26.3408891,82.9933081 28.8668857,77.9489635 28.9074697,77.8456525 L24.8952941,77.8456525 Z" id="路径备份-4" fill="#F8CDBA" fill-rule="nonzero"></path>
                    <path d="M0.72489037,87.6785749 C0.72489037,87.7106279 0.286068867,87.9186065 0.133279066,88.3368106 C-0.0876059174,88.9413992 -0.00872352735,89.6739673 0.18644407,89.8531485 C0.316555801,89.9726026 0.265132328,90.3058823 0.0321736491,90.8529875 L1.20117879,91.2732599 C1.21116503,90.5268666 1.29386073,90.1840301 1.44926588,90.2447504 C2.25304513,90.558805 4.07572613,91.755539 5.05100162,91.9729726 C6.0262771,92.1904061 7.06526134,92.072911 7.2992255,91.9729726 C7.53318966,91.8730341 8.81261512,90.7165521 7.83464964,90.2447504 C7.01562411,89.8496263 6.46179047,90.0191516 5.94020192,89.8871982 C5.83024709,89.8593814 5.15729816,89.1382062 5.10061082,89.1521092 C5.06524272,89.1607834 4.93152157,89.3795866 4.86187121,89.3800084 C4.22094432,89.3838904 1.90102275,88.7124327 1.30857577,88.4579843 C0.913611118,88.2883521 0.719049318,88.0285489 0.72489037,87.6785749 Z" id="路径" fill="#1F161E" fill-rule="nonzero"></path>
                    <path d="M23.2277155,82.5956451 C23.2277155,82.6276981 22.788894,82.8356767 22.6361042,83.2538807 C22.4152192,83.8584694 22.4941016,84.5910375 22.6892692,84.7702187 C22.8193809,84.8896728 22.7679575,85.2229525 22.5349988,85.7700577 L23.5716667,86.1079358 C23.7089872,85.416472 23.85535,85.1011003 24.0107551,85.1618206 C24.8145344,85.4758752 26.5785513,86.6726092 27.5538268,86.8900428 C28.5291022,87.1074763 29.5680865,86.9899812 29.8020506,86.8900428 C30.0360148,86.7901043 31.3154403,85.6336223 30.3374748,85.1618206 C29.5184493,84.7666965 28.9646156,84.9362217 28.4430271,84.8042684 C28.3330722,84.7764516 27.6601233,84.0552764 27.603436,84.0691793 C27.5680679,84.0778536 27.4343467,84.2966568 27.3646963,84.2970786 C26.7237695,84.3009606 24.4038479,83.6295029 23.8114009,83.3750545 C23.4164363,83.2054223 23.2218745,82.9456191 23.2277155,82.5956451 Z" id="路径备份-5" fill="#1F161E" fill-rule="nonzero"></path>
                    <path d="M13.8495937,45.1134262 C13.7799904,45.6878935 30.1353422,60.4938318 30.1024828,61.1284814 C30.0696234,61.763131 20.9981367,78.3452547 20.9981367,78.3452547 L33.5360172,79.3171895 C33.9190819,75.8768283 34.7201007,72.4938975 35.9390734,69.1683969 C37.4807975,64.9623928 39.3543985,60.7107532 39.3543985,59.4269939 C39.3543985,57.595444 38.2231642,55.3735591 34.5884462,50.9348557 C33.2925761,49.3523442 30.911592,46.2511322 27.445494,41.6312198 C18.683163,43.9519416 14.1511962,45.1126771 13.8495937,45.1134262 Z" id="路径" fill="#80869A" fill-rule="nonzero"></path>
                    <path d="M13.8495937,42.3778674 C13.9531724,42.5724369 12.6274367,46.987088 10.7857553,52.8727776 C9.86664354,55.8100972 8.81902924,59.1137968 7.75644167,62.4421778 C4.3624564,73.0732792 0.815712087,83.9561835 0.815712087,83.9561835 L9.79012406,85.9068467 L19.4032294,64.6159191 L27.5999469,41.1069033 L13.8495937,42.3778674 Z" id="路径" fill="#8F95A8" fill-rule="nonzero"></path>
                    <path d="M46.9283444,22.9983002 C47.7197246,20.3579795 48.62087,19.0378192 49.6317805,19.0378192 C51.1481463,19.0378192 50.9469122,23.5850922 50.6059258,25.575415 C50.3786015,26.9022968 49.1527411,27.4658142 46.9283444,27.2659673 L46.9283444,22.9983002 Z" id="路径-3备份" fill="#F8CDBA" opacity="0.599958147"></path>
                    <path d="M46.2028351,14.1503733 C40.2604123,20.411681 36.9545811,23.5423349 36.2853414,23.5423349 C35.6161017,23.5423349 31.8375887,23.3661955 24.9498024,23.0139166 L24.9498024,27.3321433 L39.0842191,27.4063393 L46.9283444,19.0297606 L46.2028351,14.1503733 Z" id="路径-47" fill="#C4C9D6" transform="translate(35.939073, 20.778356) scale(-1, 1) translate(-35.939073, -20.778356) "></path>
                    <path d="M22.6405947,13.2521089 C23.4939593,13.2521089 24.2391324,13.4073843 24.8887289,13.6915163 C25.6275539,14.0146766 25.884444,14.7009442 26.394556,15.3186097 C26.7615849,15.7630242 27.1271735,16.2597742 27.4751522,16.7996378 C31.860518,21.7111832 34.459169,24.3902117 35.2716823,24.8376186 C36.1124942,25.300608 40.2447382,25.0691133 47.6684144,24.1431344 L47.6684144,28.7976116 C40.8102061,30.0191748 36.4143165,30.6299565 34.4807455,30.6299565 C33.2674652,30.6299565 30.9649258,28.8461264 28.6973637,26.7465389 C28.1896755,27.4170009 27.6503501,28.0765917 27.4343368,28.7604129 C26.7637824,30.8831491 28.998423,40.163239 28.299185,41.2705532 C27.5999469,42.3778674 24.9473618,43.9401336 23.8488699,43.9401336 C23.3745211,43.9401336 21.5496227,43.7010033 19.5839437,43.4067317 L18.9599343,43.3121854 C16.5607772,42.9443771 14.1419307,42.5241466 13.8493722,42.3778674 C13.2896951,42.0980289 11.855368,36.5266422 12.2772117,33.898232 C12.6990555,31.2698217 15.9165941,13.2521089 22.6405947,13.2521089 Z" id="形状结合" fill="#DDE2ED" fill-rule="nonzero"></path>
                    <path d="M25.8882914,10.3196667 L22.0519543,9.49818123 C22.0519543,9.49818123 21.2524058,13.380272 21.2031167,13.7910147 C21.1538275,14.2017574 24.6505791,15.1040897 24.6998683,14.7344212 C24.7491574,14.3647528 25.8882914,10.3196667 25.8882914,10.3196667 Z" id="路径" fill="#F8CDBA" fill-rule="nonzero"></path>
                    <path d="M24.6697911,12.0426973 C25.2507229,12.0426973 25.9561855,12.2710693 26.4792733,12.0426973 C28.3989072,11.2046149 28.7308358,9.32515104 28.8513485,7.64452751 C29.0157351,5.35205583 29.0809274,5.09562163 28.8513485,4.57792688 C28.2013665,3.11223328 26.37641,3.46297006 24.6697911,3.46297006 C22.3603807,3.46297006 20.4882336,5.3351171 20.4882336,7.64452751 C20.4882336,9.95393792 22.4931567,12.0426973 24.6697911,12.0426973 Z" id="椭圆形" fill="#F8CDBA" fill-rule="nonzero"></path>
                    <path d="M23.9814868,8.47362292 C24.444164,9.20138153 22.9448793,9.75368416 23.4075564,11.3568153 C23.6441229,12.1764949 24.4714485,12.5912993 24.7350122,13.5950209 C24.986927,14.5543802 24.0694818,15.0282932 25.1467388,16.5433766 C25.6739645,17.2848811 26.378325,17.3096398 26.7712883,17.5355454 C26.9614148,17.6448448 27.999489,19.007231 29.1718752,18.6135566 C30.3442614,18.2198822 31.1293037,17.3900986 31.1293037,16.0721718 C31.1293037,14.7542449 29.4517748,13.7108919 29.1718752,13.1472077 C28.9081177,12.6160317 29.1718752,10.9444053 28.8969936,10.0616438 C28.6221119,9.1788823 27.0202485,8.33053732 26.7712883,7.89355848 C26.2705768,7.01470175 26.4949098,6.03564574 26.4949098,5.69724997 C26.4949098,4.1100743 25.9889515,2.20322927 25.1100253,1.76376617 C24.2310991,1.32430306 21.3448801,0 19.9235287,0 C18.6064098,0 18.3813625,0.573278375 18.3813625,1.0399554 C18.3813625,2.05859053 17.5925125,2.31917161 16.6046734,2.31917161 C15.9792788,2.31917161 15.183322,2.49684053 15.183322,3.35912701 C15.183322,4.93919592 16.8541517,5.93146384 17.3492558,6.18730708 C17.4021202,6.08407818 17.4412645,5.85141094 17.4972393,5.69724997 C17.6411117,5.30100911 17.7873721,5.15975822 17.7225664,5.37464026 C17.6325475,5.67312404 18.1444706,5.9388797 18.8433017,6.06206348 C19.243649,6.14971348 22.4255119,6.02618396 23.9814868,8.47362292 Z" id="路径" fill="#1F161E" fill-rule="nonzero" transform="translate(23.156313, 9.342374) scale(-1, 1) translate(-23.156313, -9.342374) "></path>
                    <circle id="椭圆形" fill="#F8CDBA" fill-rule="nonzero" cx="22.9417828" cy="7.14277589" r="1"></circle>
                    <path d="M47.6684144,24.1556993 C48.4597946,21.5153787 49.36094,20.1952184 50.3718505,20.1952184 C51.8882163,20.1952184 51.6869822,24.7424914 51.3459958,26.7328141 C51.1186715,28.0596959 49.892811,28.75215 47.6684144,28.8101765 L47.6684144,24.1556993 Z" id="路径-3" fill="#F8CDBA"></path>
                    <polyline id="路径-5" stroke="#1F161E" stroke-width="0.586398177" stroke-linecap="round" points="26.6289941 24.5026974 28.1456534 25.8349482 29.9345545 27.4063393"></polyline>
                    <path d="M26.63641,11.8822189 C26.4018234,12.6368719 26.3076536,13.18657 26.3539004,13.5313131 C26.4232708,14.0484278 27.3158525,14.1426787 27.4108783,14.5130786 C27.4901283,14.8219858 27.3685798,15.3319472 27.0462329,16.0429628 L24.9498024,13.9289649 L25.3071105,12.1598116 L26.63641,11.8822189 Z" id="路径-4" fill="#1F161E"></path>
                </g>
            </g>
        </g>
    </g>
</svg>