<?xml version="1.0" encoding="UTF-8"?>
<svg width="20px" height="20px" viewBox="0 0 20 20" version="1.1" xmlns="http://www.w3.org/2000/svg" xmlns:xlink="http://www.w3.org/1999/xlink">
    <title>形状结合</title>
    <g id="发起多-回复快" stroke="none" stroke-width="1" fill="none" fill-rule="evenodd">
        <g id="0.0一键发送招呼语展开" transform="translate(-323.000000, -688.000000)" fill="#FFFFFF">
            <g id="编组-4" transform="translate(133.000000, 663.000000)">
                <path d="M200,25 C205.522847,25 210,29.4771525 210,35 C210,40.5228475 205.522847,45 200,45 C194.477153,45 190,40.5228475 190,35 C190,29.4771525 194.477153,25 200,25 Z M200.734308,31.9251498 C200.226221,31.3579405 199.377356,31.3583575 198.869727,31.9259274 L198.869727,31.9259274 L195.809166,35.4650386 C195.603985,35.6944569 195.494191,36.0000301 195.500237,36.3137285 C195.506295,36.6280239 195.628229,36.9291893 195.843218,37.1497144 C196.312697,37.6311142 197.060445,37.6138895 197.510129,37.1130988 L197.510129,37.1130988 L199.798,34.452001 L202.079164,37.1069972 C202.501228,37.5770247 203.184316,37.6233043 203.657217,37.2336401 L203.657217,37.2336401 L203.755164,37.1434636 C203.971285,36.921672 204.093836,36.6186635 204.099774,36.3024829 C204.1057,35.9868843 203.995044,35.6795478 203.788418,35.4489167 L203.788418,35.4489167 Z" id="形状结合"></path>
            </g>
        </g>
    </g>
</svg>