<?xml version="1.0" encoding="UTF-8"?>
<svg width="20px" height="20px" viewBox="0 0 20 20" version="1.1" xmlns="http://www.w3.org/2000/svg" xmlns:xlink="http://www.w3.org/1999/xlink">
    <title>编组</title>
    <g id="发起多-回复快" stroke="none" stroke-width="1" fill="none" fill-rule="evenodd">
        <g id="0.0发送招呼语" transform="translate(-326.000000, -505.000000)" fill="#EBEBEB">
            <g id="编组-4" transform="translate(132.000000, 416.000000)">
                <g id="编组" transform="translate(204.001169, 99.001169) rotate(-300.000000) translate(-204.001169, -99.001169) translate(197.000000, 92.000000)">
                    <path d="M0.938991,3.50116883 C2.87198762,0.153120463 7.15312046,-0.994005624 10.5011688,0.938991 C13.8492172,2.87198762 14.9963433,7.15312046 13.0633467,10.5011688 C11.13035,13.8492172 6.84921719,14.9963433 3.50116883,13.0633467 C0.153120463,11.13035 -0.994005624,6.84921719 0.938991,3.50116883 Z M8.44918837,4.5421745 L4.72477192,5.27871896 C4.43389832,5.3362401 4.27564358,5.61034535 4.37126561,5.89100984 L5.59562704,9.4846877 C5.69124908,9.76535219 6.00451042,9.94621371 6.29538401,9.88869257 C6.58625761,9.83117144 6.74451235,9.55706618 6.64889032,9.27640169 L5.84252223,6.90959472 L9.72037993,9.14847691 C9.99380012,9.30633613 10.3271404,9.24041708 10.4652704,9.00116883 C10.6033956,8.76192898 10.493809,8.44029531 10.2203888,8.28243609 L6.34253113,6.0435539 L8.79543418,5.55847867 C8.94069255,5.52976083 9.05318518,5.44690012 9.11718808,5.33604384 C9.18119098,5.22518757 9.19693953,5.08648285 9.14894534,4.94617937 C9.05332331,4.66551488 8.74006197,4.48465336 8.44918837,4.5421745 Z" id="形状结合"></path>
                </g>
            </g>
        </g>
    </g>
</svg>